  0
SECTION
  2
HEADER
  9
$ACADVER
  1
AC1024
  9
$ACADMAINTVER
 70
     6
  9
$DWGCODEPAGE
  3
ANSI_1252
  9
$INSBASE
 10
0.0
 20
0.0
 30
0.0
  9
$EXTMIN
 10
1.000000000000000E+20
 20
1.000000000000000E+20
 30
1.000000000000000E+20
  9
$EXTMAX
 10
-1.000000000000000E+20
 20
-1.000000000000000E+20
 30
-1.000000000000000E+20
  9
$LIMMIN
 10
0.0
 20
0.0
  9
$LIMMAX
 10
12.0
 20
9.0
  9
$ORTHOMODE
 70
     0
  9
$REGENMODE
 70
     1
  9
$FILLMODE
 70
     1
  9
$QTEXTMODE
 70
     0
  9
$MIRRTEXT
 70
     1
  9
$LTSCALE
 40
1.0
  9
$ATTMODE
 70
     1
  9
$TEXTSIZE
 40
0.2
  9
$TRACEWID
 40
0.05
  9
$TEXTSTYLE
  7
Standard
  9
$CLAYER
  8
0
  9
$CELTYPE
  6
ByLayer
  9
$CECOLOR
 62
   256
  9
$CELTSCALE
 40
1.0
  9
$DISPSILH
 70
     0
  9
$DIMSCALE
 40
1.0
  9
$DIMASZ
 40
0.18
  9
$DIMEXO
 40
0.0625
  9
$DIMDLI
 40
0.38
  9
$DIMRND
 40
0.0
  9
$DIMDLE
 40
0.0
  9
$DIMEXE
 40
0.18
  9
$DIMTP
 40
0.0
  9
$DIMTM
 40
0.0
  9
$DIMTXT
 40
0.18
  9
$DIMCEN
 40
0.09
  9
$DIMTSZ
 40
0.0
  9
$DIMTOL
 70
     0
  9
$DIMLIM
 70
     0
  9
$DIMTIH
 70
     1
  9
$DIMTOH
 70
     1
  9
$DIMSE1
 70
     0
  9
$DIMSE2
 70
     0
  9
$DIMTAD
 70
     0
  9
$DIMZIN
 70
     0
  9
$DIMBLK
  1

  9
$DIMASO
 70
     1
  9
$DIMSHO
 70
     1
  9
$DIMPOST
  1

  9
$DIMAPOST
  1

  9
$DIMALT
 70
     0
  9
$DIMALTD
 70
     2
  9
$DIMALTF
 40
25.4
  9
$DIMLFAC
 40
1.0
  9
$DIMTOFL
 70
     0
  9
$DIMTVP
 40
0.0
  9
$DIMTIX
 70
     0
  9
$DIMSOXD
 70
     0
  9
$DIMSAH
 70
     0
  9
$DIMBLK1
  1

  9
$DIMBLK2
  1

  9
$DIMSTYLE
  2
Standard
  9
$DIMCLRD
 70
     0
  9
$DIMCLRE
 70
     0
  9
$DIMCLRT
 70
     0
  9
$DIMTFAC
 40
1.0
  9
$DIMGAP
 40
0.09
  9
$DIMJUST
 70
     0
  9
$DIMSD1
 70
     0
  9
$DIMSD2
 70
     0
  9
$DIMTOLJ
 70
     1
  9
$DIMTZIN
 70
     0
  9
$DIMALTZ
 70
     0
  9
$DIMALTTZ
 70
     0
  9
$DIMUPT
 70
     0
  9
$DIMDEC
 70
     4
  9
$DIMTDEC
 70
     4
  9
$DIMALTU
 70
     2
  9
$DIMALTTD
 70
     2
  9
$DIMTXSTY
  7
Standard
  9
$DIMAUNIT
 70
     0
  9
$DIMADEC
 70
     0
  9
$DIMALTRND
 40
0.0
  9
$DIMAZIN
 70
     0
  9
$DIMDSEP
 70
    46
  9
$DIMATFIT
 70
     3
  9
$DIMFRAC
 70
     0
  9
$DIMLDRBLK
  1

  9
$DIMLUNIT
 70
     2
  9
$DIMLWD
 70
    -2
  9
$DIMLWE
 70
    -2
  9
$DIMTMOVE
 70
     0
  9
$DIMFXL
 40
1.0
  9
$DIMFXLON
 70
     0
  9
$DIMJOGANG
 40
0.7853981633974483
  9
$DIMTFILL
 70
     0
  9
$DIMTFILLCLR
 70
     0
  9
$DIMARCSYM
 70
     0
  9
$DIMLTYPE
  6

  9
$DIMLTEX1
  6

  9
$DIMLTEX2
  6

  9
$DIMTXTDIRECTION
 70
     0
  9
$LUNITS
 70
     2
  9
$LUPREC
 70
     4
  9
$SKETCHINC
 40
0.1
  9
$FILLETRAD
 40
0.5
  9
$AUNITS
 70
     0
  9
$AUPREC
 70
     0
  9
$MENU
  1
.
  9
$ELEVATION
 40
0.0
  9
$PELEVATION
 40
0.0
  9
$THICKNESS
 40
0.0
  9
$LIMCHECK
 70
     0
  9
$CHAMFERA
 40
0.5
  9
$CHAMFERB
 40
0.5
  9
$CHAMFERC
 40
1.0
  9
$CHAMFERD
 40
0.0
  9
$SKPOLY
 70
     0
  9
$TDCREATE
 40
2458975.838168206
  9
$TDUCREATE
 40
2458975.504834873
  9
$TDUPDATE
 40
2458975.838168252
  9
$TDUUPDATE
 40
2458975.504834919
  9
$TDINDWG
 40
0.0000000116
  9
$TDUSRTIMER
 40
0.0000000116
  9
$USRTIMER
 70
     1
  9
$ANGBASE
 50
0.0
  9
$ANGDIR
 70
     0
  9
$PDMODE
 70
     0
  9
$PDSIZE
 40
0.0
  9
$PLINEWID
 40
0.0
  9
$SPLFRAME
 70
     0
  9
$SPLINETYPE
 70
     6
  9
$SPLINESEGS
 70
     8
  9
$HANDSEED
  5
CD
  9
$SURFTAB1
 70
     6
  9
$SURFTAB2
 70
     6
  9
$SURFTYPE
 70
     6
  9
$SURFU
 70
     6
  9
$SURFV
 70
     6
  9
$UCSBASE
  2

  9
$UCSNAME
  2

  9
$UCSORG
 10
0.0
 20
0.0
 30
0.0
  9
$UCSXDIR
 10
1.0
 20
0.0
 30
0.0
  9
$UCSYDIR
 10
0.0
 20
1.0
 30
0.0
  9
$UCSORTHOREF
  2

  9
$UCSORTHOVIEW
 70
     0
  9
$UCSORGTOP
 10
0.0
 20
0.0
 30
0.0
  9
$UCSORGBOTTOM
 10
0.0
 20
0.0
 30
0.0
  9
$UCSORGLEFT
 10
0.0
 20
0.0
 30
0.0
  9
$UCSORGRIGHT
 10
0.0
 20
0.0
 30
0.0
  9
$UCSORGFRONT
 10
0.0
 20
0.0
 30
0.0
  9
$UCSORGBACK
 10
0.0
 20
0.0
 30
0.0
  9
$PUCSBASE
  2

  9
$PUCSNAME
  2

  9
$PUCSORG
 10
0.0
 20
0.0
 30
0.0
  9
$PUCSXDIR
 10
1.0
 20
0.0
 30
0.0
  9
$PUCSYDIR
 10
0.0
 20
1.0
 30
0.0
  9
$PUCSORTHOREF
  2

  9
$PUCSORTHOVIEW
 70
     0
  9
$PUCSORGTOP
 10
0.0
 20
0.0
 30
0.0
  9
$PUCSORGBOTTOM
 10
0.0
 20
0.0
 30
0.0
  9
$PUCSORGLEFT
 10
0.0
 20
0.0
 30
0.0
  9
$PUCSORGRIGHT
 10
0.0
 20
0.0
 30
0.0
  9
$PUCSORGFRONT
 10
0.0
 20
0.0
 30
0.0
  9
$PUCSORGBACK
 10
0.0
 20
0.0
 30
0.0
  9
$USERI1
 70
     0
  9
$USERI2
 70
     0
  9
$USERI3
 70
     0
  9
$USERI4
 70
     0
  9
$USERI5
 70
     0
  9
$USERR1
 40
0.0
  9
$USERR2
 40
0.0
  9
$USERR3
 40
0.0
  9
$USERR4
 40
0.0
  9
$USERR5
 40
0.0
  9
$WORLDVIEW
 70
     1
  9
$SHADEDGE
 70
     3
  9
$SHADEDIF
 70
    70
  9
$TILEMODE
 70
     1
  9
$MAXACTVP
 70
    64
  9
$PINSBASE
 10
0.0
 20
0.0
 30
0.0
  9
$PLIMCHECK
 70
     0
  9
$PEXTMIN
 10
1.000000000000000E+20
 20
1.000000000000000E+20
 30
1.000000000000000E+20
  9
$PEXTMAX
 10
-1.000000000000000E+20
 20
-1.000000000000000E+20
 30
-1.000000000000000E+20
  9
$PLIMMIN
 10
0.0
 20
0.0
  9
$PLIMMAX
 10
12.0
 20
9.0
  9
$UNITMODE
 70
     0
  9
$VISRETAIN
 70
     1
  9
$PLINEGEN
 70
     0
  9
$PSLTSCALE
 70
     1
  9
$TREEDEPTH
 70
  3020
  9
$CMLSTYLE
  2
Standard
  9
$CMLJUST
 70
     0
  9
$CMLSCALE
 40
1.0
  9
$PROXYGRAPHICS
 70
     1
  9
$MEASUREMENT
 70
     0
  9
$CELWEIGHT
370
    -1
  9
$ENDCAPS
280
     0
  9
$JOINSTYLE
280
     0
  9
$LWDISPLAY
290
     1
  9
$INSUNITS
 70
     1
  9
$HYPERLINKBASE
  1

  9
$STYLESHEET
  1

  9
$XEDIT
290
     1
  9
$CEPSNTYPE
380
     0
  9
$PSTYLEMODE
290
     1
  9
$FINGERPRINTGUID
  2
{03BCEF42-6B84-4F38-B59A-977E17904824}
  9
$VERSIONGUID
  2
{FAEB1C32-E019-11D5-929B-00C0DF256EC4}
  9
$EXTNAMES
290
     1
  9
$PSVPSCALE
 40
0.0
  9
$OLESTARTUP
290
     0
  9
$SORTENTS
280
   127
  9
$INDEXCTL
280
     0
  9
$HIDETEXT
280
     1
  9
$XCLIPFRAME
280
     2
  9
$HALOGAP
280
     0
  9
$OBSCOLOR
 70
   257
  9
$OBSLTYPE
280
     0
  9
$INTERSECTIONDISPLAY
280
     0
  9
$INTERSECTIONCOLOR
 70
   257
  9
$DIMASSOC
280
     2
  9
$PROJECTNAME
  1

  9
$CAMERADISPLAY
290
     0
  9
$LENSLENGTH
 40
50.0
  9
$CAMERAHEIGHT
 40
0.0
  9
$STEPSPERSEC
 40
2.0
  9
$STEPSIZE
 40
6.0
  9
$3DDWFPREC
 40
2.0
  9
$PSOLWIDTH
 40
0.25
  9
$PSOLHEIGHT
 40
4.0
  9
$LOFTANG1
 40
1.570796326794897
  9
$LOFTANG2
 40
1.570796326794897
  9
$LOFTMAG1
 40
0.0
  9
$LOFTMAG2
 40
0.0
  9
$LOFTPARAM
 70
     7
  9
$LOFTNORMALS
280
     1
  9
$LATITUDE
 40
37.795
  9
$LONGITUDE
 40
-122.394
  9
$NORTHDIRECTION
 40
0.0
  9
$TIMEZONE
 70
 -8000
  9
$LIGHTGLYPHDISPLAY
280
     1
  9
$TILEMODELIGHTSYNCH
280
     1
  9
$CMATERIAL
347
3C
  9
$SOLIDHIST
280
     1
  9
$SHOWHIST
280
     1
  9
$DWFFRAME
280
     2
  9
$DGNFRAME
280
     2
  9
$REALWORLDSCALE
290
     1
  9
$INTERFERECOLOR
 62
   256
  9
$CSHADOW
280
     0
  9
$SHADOWPLANELOCATION
 40
0.0
  0
ENDSEC
  0
SECTION
  2
CLASSES
  0
CLASS
  1
ACDBDICTIONARYWDFLT
  2
AcDbDictionaryWithDefault
  3
ObjectDBX Classes
 90
        0
 91
        4
280
     0
281
     0
  0
CLASS
  1
VISUALSTYLE
  2
AcDbVisualStyle
  3
ObjectDBX Classes
 90
     4095
 91
        4
280
     0
281
     0
  0
CLASS
  1
MATERIAL
  2
AcDbMaterial
  3
ObjectDBX Classes
 90
     1153
 91
        4
280
     0
281
     0
  0
CLASS
  1
SUN
  2
AcDbSun
  3
SCENEOE
 90
     1024
 91
        4
280
     0
281
     0
  0
ENDSEC
  0
SECTION
  2
TABLES
  0
TABLE
  2
VPORT
  5
8
330
0
100
AcDbSymbolTable
 70
     1
  0
VPORT
  5
29
330
8
100
AcDbSymbolTableRecord
100
AcDbViewportTableRecord
  2
*Active
 70
     0
 10
0.0
 20
0.0
 11
1.0
 21
1.0
 12
0.0
 22
0.0
 13
0.0
 23
0.0
 14
0.5
 24
0.5
 15
0.5
 25
0.5
 16
0.0
 26
0.0
 36
1.0
 17
300.0
 27
-300.0
 37
0.0
 40
600.0
 41
1.0
 42
50.0
 43
0.0
 44
0.0
 50
0.0
 51
0.0
 71
     0
 72
   100
 73
     1
 74
     3
 75
     0
 76
     0
 77
     0
 78
     0
281
     0
 65
     1
110
0.0
120
0.0
130
0.0
111
1.0
121
0.0
131
0.0
112
0.0
122
1.0
132
0.0
 79
     0
146
0.0
 60
     3
 61
     5
292
     1
282
     1
141
0.0
142
0.0
 63
   250
361
3F
  0
ENDTAB
  0
TABLE
  2
LTYPE
  5
5
330
0
100
AcDbSymbolTable
 70
     1
  0
LTYPE
  5
14
330
5
100
AcDbSymbolTableRecord
100
AcDbLinetypeTableRecord
  2
ByBlock
 70
     0
  3

 72
    65
 73
     0
 40
0.0
  0
LTYPE
  5
15
330
5
100
AcDbSymbolTableRecord
100
AcDbLinetypeTableRecord
  2
ByLayer
 70
     0
  3

 72
    65
 73
     0
 40
0.0
  0
LTYPE
  5
16
330
5
100
AcDbSymbolTableRecord
100
AcDbLinetypeTableRecord
  2
Continuous
 70
     0
  3
Solid line
 72
    65
 73
     0
 40
0.0
  0
ENDTAB
  0
TABLE
  2
LAYER
  5
2
330
0
100
AcDbSymbolTable
 70
     2
  0
LAYER
  5
10
330
2
100
AcDbSymbolTableRecord
100
AcDbLayerTableRecord
  2
0
 70
     0
 62
     7
  6
Continuous
370
    -3
390
F
347
3E
  0
LAYER
  5
40
330
2
100
AcDbSymbolTableRecord
100
AcDbLayerTableRecord
  2
Layer 1
 70
     0
 62
     7
  6
Continuous
370
    -3
390
F
347
3E
  0
ENDTAB
  0
TABLE
  2
STYLE
  5
3
330
0
100
AcDbSymbolTable
 70
     1
  0
STYLE
  5
11
330
3
100
AcDbSymbolTableRecord
100
AcDbTextStyleTableRecord
  2
Standard
 70
     0
 40
0.0
 41
1.0
 50
0.0
 71
     0
 42
0.2
  3
txt
  4

  0
ENDTAB
  0
TABLE
  2
VIEW
  5
6
330
0
100
AcDbSymbolTable
 70
     0
  0
ENDTAB
  0
TABLE
  2
UCS
  5
7
330
0
100
AcDbSymbolTable
 70
     0
  0
ENDTAB
  0
TABLE
  2
APPID
  5
9
330
0
100
AcDbSymbolTable
 70
     1
  0
APPID
  5
12
330
9
100
AcDbSymbolTableRecord
100
AcDbRegAppTableRecord
  2
ACAD
 70
     0
  0
ENDTAB
  0
TABLE
  2
DIMSTYLE
  5
A
330
0
100
AcDbSymbolTable
 70
     1
100
AcDbDimStyleTable
  0
DIMSTYLE
105
27
330
A
100
AcDbSymbolTableRecord
100
AcDbDimStyleTableRecord
  2
Standard
 70
     0
178
     0
340
11
  0
ENDTAB
  0
TABLE
  2
BLOCK_RECORD
  5
1
330
0
100
AcDbSymbolTable
 70
     2
  0
BLOCK_RECORD
  5
1F
330
1
100
AcDbSymbolTableRecord
100
AcDbBlockTableRecord
  2
*Model_Space
340
22
 70
     0
280
     1
281
     0
  0
BLOCK_RECORD
  5
1B
330
1
100
AcDbSymbolTableRecord
100
AcDbBlockTableRecord
  2
*Paper_Space
340
1E
 70
     0
280
     1
281
     0
  0
BLOCK_RECORD
  5
23
330
1
100
AcDbSymbolTableRecord
100
AcDbBlockTableRecord
  2
*Paper_Space0
340
26
 70
     0
280
     1
281
     0
  0
BLOCK_RECORD
  5
4F
330
1
100
AcDbSymbolTableRecord
100
AcDbBlockTableRecord
  2
block 2
340
0
102
{BLKREFS
331
50
102
}
 70
     0
280
     1
281
     0
  0
ENDTAB
  0
ENDSEC
  0
SECTION
  2
BLOCKS
  0
BLOCK
  5
20
330
1F
100
AcDbEntity
  8
0
100
AcDbBlockBegin
  2
*Model_Space
 70
     0
 10
0.0
 20
0.0
 30
0.0
  3
*Model_Space
  1

  0
ENDBLK
  5
21
330
1F
100
AcDbEntity
  8
0
100
AcDbBlockEnd
  0
BLOCK
  5
1C
330
1B
100
AcDbEntity
 67
     1
  8
0
100
AcDbBlockBegin
  2
*Paper_Space
 70
     0
 10
0.0
 20
0.0
 30
0.0
  3
*Paper_Space
  1

  0
ENDBLK
  5
1D
330
1B
100
AcDbEntity
 67
     1
  8
0
100
AcDbBlockEnd
  0
BLOCK
  5
24
330
23
100
AcDbEntity
  8
0
100
AcDbBlockBegin
  2
*Paper_Space0
 70
     0
 10
0.0
 20
0.0
 30
0.0
  3
*Paper_Space0
  1

  0
ENDBLK
  5
25
330
23
100
AcDbEntity
  8
0
100
AcDbBlockEnd
  0
BLOCK
  5
51
330
4F
100
AcDbEntity
  8
0
100
AcDbBlockBegin
  2
block 2
 70
     0
 10
0.0
 20
0.0
 30
0.0
  3
block 2
  1

  0
SPLINE
  5
53
330
4F
100
AcDbEntity
  8
Layer 1
370
     0
100
AcDbSpline
210
0.0
220
0.0
230
1.0
 70
    11
 71
     3
 72
    17
 73
    13
 74
     0
 42
0.0000000001
 43
0.0000000001
 12
1.0
 22
0.0
 32
0.0
 13
1.0
 23
0.0
 33
0.0
 40
0.0
 40
0.0
 40
0.0
 40
0.0
 40
1.0
 40
1.0
 40
1.0
 40
2.0
 40
2.0
 40
2.0
 40
3.0
 40
3.0
 40
3.0
 40
4.0
 40
4.0
 40
4.0
 40
4.0
 10
600.0000195312514
 20
-300.0
 30
0.0
 10
600.0000195312514
 20
-465.6854999999996
 30
0.0
 10
465.6856195312521
 20
-600.0
 30
0.0
 10
300.0000195312514
 20
-600.0
 30
0.0
 10
134.3145195312518
 20
-600.0
 30
0.0
 10
0.0000195312513824
 20
-465.6854999999996
 30
0.0
 10
0.0000195312513824
 20
-300.0
 30
0.0
 10
0.0000195312513824
 20
-134.3145000000004
 30
0.0
 10
134.3145195312518
 20
0.0
 30
0.0
 10
300.0000195312514
 20
0.0
 30
0.0
 10
465.6856195312521
 20
0.0
 30
0.0
 10
600.0000195312514
 20
-134.3145000000004
 30
0.0
 10
600.0000195312514
 20
-300.0
 30
0.0
  0
SPLINE
  5
54
330
4F
100
AcDbEntity
  8
Layer 1
370
     0
100
AcDbSpline
210
0.0
220
0.0
230
1.0
 70
    11
 71
     3
 72
    17
 73
    13
 74
     0
 42
0.0000000001
 43
0.0000000001
 12
1.0
 22
0.0
 32
0.0
 13
1.0
 23
0.0
 33
0.0
 40
0.0
 40
0.0
 40
0.0
 40
0.0
 40
1.0
 40
1.0
 40
1.0
 40
2.0
 40
2.0
 40
2.0
 40
3.0
 40
3.0
 40
3.0
 40
4.0
 40
4.0
 40
4.0
 40
4.0
 10
481.2500195312514
 20
-134.0
 30
0.0
 10
481.2500195312514
 20
-139.6606000000002
 30
0.0
 10
485.838919531252
 20
-144.25
 30
0.0
 10
491.5000195312514
 20
-144.25
 30
0.0
 10
497.1612195312518
 20
-144.25
 30
0.0
 10
501.7500195312514
 20
-139.6606000000002
 30
0.0
 10
501.7500195312514
 20
-134.0
 30
0.0
 10
501.7500195312514
 20
-128.3393999999998
 30
0.0
 10
497.1612195312518
 20
-123.75
 30
0.0
 10
491.5000195312514
 20
-123.75
 30
0.0
 10
485.838919531252
 20
-123.75
 30
0.0
 10
481.2500195312514
 20
-128.3393999999998
 30
0.0
 10
481.2500195312514
 20
-134.0
 30
0.0
  0
POLYLINE
  5
55
330
4F
100
AcDbEntity
  8
Layer 1
370
     0
100
AcDb2dPolyline
 66
     1
 10
0.0
 20
0.0
 30
0.0
  0
VERTEX
  5
56
330
55
100
AcDbEntity
  8
Layer 1
370
     0
100
AcDbVertex
100
AcDb2dVertex
 10
431.332119531251
 20
-66.34519999999975
 30
0.0
  0
VERTEX
  5
57
330
55
100
AcDbEntity
  8
Layer 1
370
     0
100
AcDbVertex
100
AcDb2dVertex
 10
439.6504195312518
 20
-71.67529999999988
 30
0.0
  0
VERTEX
  5
58
330
55
100
AcDbEntity
  8
Layer 1
370
     0
100
AcDbVertex
100
AcDb2dVertex
 10
414.0254195312518
 20
-111.6704
 30
0.0
  0
VERTEX
  5
59
330
55
100
AcDbEntity
  8
Layer 1
370
     0
100
AcDbVertex
100
AcDb2dVertex
 10
427.3438195312519
 20
-120.2035999999998
 30
0.0
  0
VERTEX
  5
5A
330
55
100
AcDbEntity
  8
Layer 1
370
     0
100
AcDbVertex
100
AcDb2dVertex
 10
452.9688195312519
 20
-80.20899999999983
 30
0.0
  0
VERTEX
  5
5B
330
55
100
AcDbEntity
  8
Layer 1
370
     0
100
AcDbVertex
100
AcDb2dVertex
 10
461.3282195312513
 20
-85.56450000000041
 30
0.0
  0
VERTEX
  5
5C
330
55
100
AcDbEntity
  8
Layer 1
370
     0
100
AcDbVertex
100
AcDb2dVertex
 10
469.8614195312512
 20
-72.2456000000002
 30
0.0
  0
VERTEX
  5
5D
330
55
100
AcDbEntity
  8
Layer 1
370
     0
100
AcDbVertex
100
AcDb2dVertex
 10
439.8653195312509
 20
-53.02689999999984
 30
0.0
  0
VERTEX
  5
5E
330
55
100
AcDbEntity
  8
Layer 1
370
     0
100
AcDbVertex
100
AcDb2dVertex
 10
431.332119531251
 20
-66.34519999999975
 30
0.0
  0
SEQEND
  5
5F
330
55
100
AcDbEntity
  8
Layer 1
370
     0
  0
POLYLINE
  5
60
330
4F
100
AcDbEntity
  8
Layer 1
370
     0
100
AcDb2dPolyline
 66
     1
 10
0.0
 20
0.0
 30
0.0
  0
VERTEX
  5
61
330
60
100
AcDbEntity
  8
Layer 1
370
     0
100
AcDbVertex
100
AcDb2dVertex
 10
401.1836195312517
 20
-35.58690000000024
 30
0.0
  0
VERTEX
  5
62
330
60
100
AcDbEntity
  8
Layer 1
370
     0
100
AcDbVertex
100
AcDb2dVertex
 10
365.304719531252
 20
-89.27440000000024
 30
0.0
  0
VERTEX
  5
63
330
60
100
AcDbEntity
  8
Layer 1
370
     0
100
AcDbVertex
100
AcDb2dVertex
 10
379.5401195312515
 20
-95.0
 30
0.0
  0
VERTEX
  5
64
330
60
100
AcDbEntity
  8
Layer 1
370
     0
100
AcDbVertex
100
AcDb2dVertex
 10
383.383819531251
 20
-88.0048999999999
 30
0.0
  0
VERTEX
  5
65
330
60
100
AcDbEntity
  8
Layer 1
370
     0
100
AcDbVertex
100
AcDb2dVertex
 10
394.753019531252
 20
-92.66550000000007
 30
0.0
  0
VERTEX
  5
66
330
60
100
AcDbEntity
  8
Layer 1
370
     0
100
AcDbVertex
100
AcDb2dVertex
 10
392.5401195312515
 20
-100.3334999999997
 30
0.0
  0
VERTEX
  5
67
330
60
100
AcDbEntity
  8
Layer 1
370
     0
100
AcDbVertex
100
AcDb2dVertex
 10
406.293019531251
 20
-106.2046
 30
0.0
  0
VERTEX
  5
68
330
60
100
AcDbEntity
  8
Layer 1
370
     0
100
AcDbVertex
100
AcDb2dVertex
 10
418.7618195312516
 20
-42.84810000000016
 30
0.0
  0
VERTEX
  5
69
330
60
100
AcDbEntity
  8
Layer 1
370
     0
100
AcDbVertex
100
AcDb2dVertex
 10
401.1836195312517
 20
-35.58690000000024
 30
0.0
  0
SEQEND
  5
6A
330
60
100
AcDbEntity
  8
Layer 1
370
     0
  0
POLYLINE
  5
6B
330
4F
100
AcDbEntity
  8
Layer 1
370
     0
100
AcDb2dPolyline
 66
     1
 10
0.0
 20
0.0
 30
0.0
  0
VERTEX
  5
6C
330
6B
100
AcDbEntity
  8
Layer 1
370
     0
100
AcDbVertex
100
AcDb2dVertex
 10
328.9375195312514
 20
-82.20799999999963
 30
0.0
  0
VERTEX
  5
6D
330
6B
100
AcDbEntity
  8
Layer 1
370
     0
100
AcDbVertex
100
AcDb2dVertex
 10
359.9844195312508
 20
-88.27689999999984
 30
0.0
  0
VERTEX
  5
6E
330
6B
100
AcDbEntity
  8
Layer 1
370
     0
100
AcDbVertex
100
AcDb2dVertex
 10
363.019619531251
 20
-72.7524000000003
 30
0.0
  0
VERTEX
  5
6F
330
6B
100
AcDbEntity
  8
Layer 1
370
     0
100
AcDbVertex
100
AcDb2dVertex
 10
347.4961195312517
 20
-69.71830000000045
 30
0.0
  0
VERTEX
  5
70
330
6B
100
AcDbEntity
  8
Layer 1
370
     0
100
AcDbVertex
100
AcDb2dVertex
 10
350.2061195312508
 20
-60.33349999999973
 30
0.0
  0
VERTEX
  5
71
330
6B
100
AcDbEntity
  8
Layer 1
370
     0
100
AcDbVertex
100
AcDb2dVertex
 10
365.5401195312515
 20
-62.33349999999973
 30
0.0
  0
VERTEX
  5
72
330
6B
100
AcDbEntity
  8
Layer 1
370
     0
100
AcDbVertex
100
AcDb2dVertex
 10
367.5762195312509
 20
-49.44380000000001
 30
0.0
  0
VERTEX
  5
73
330
6B
100
AcDbEntity
  8
Layer 1
370
     0
100
AcDbVertex
100
AcDb2dVertex
 10
352.0508195312505
 20
-46.40920000000006
 30
0.0
  0
VERTEX
  5
74
330
6B
100
AcDbEntity
  8
Layer 1
370
     0
100
AcDbVertex
100
AcDb2dVertex
 10
353.5743195312516
 20
-38.6244999999999
 30
0.0
  0
VERTEX
  5
75
330
6B
100
AcDbEntity
  8
Layer 1
370
     0
100
AcDbVertex
100
AcDb2dVertex
 10
369.0977195312516
 20
-41.65869999999995
 30
0.0
  0
VERTEX
  5
76
330
6B
100
AcDbEntity
  8
Layer 1
370
     0
100
AcDbVertex
100
AcDb2dVertex
 10
372.1329195312519
 20
-26.13479999999981
 30
0.0
  0
VERTEX
  5
77
330
6B
100
AcDbEntity
  8
Layer 1
370
     0
100
AcDbVertex
100
AcDb2dVertex
 10
341.0840195312521
 20
-20.0658999999996
 30
0.0
  0
VERTEX
  5
78
330
6B
100
AcDbEntity
  8
Layer 1
370
     0
100
AcDbVertex
100
AcDb2dVertex
 10
328.9375195312514
 20
-82.20799999999963
 30
0.0
  0
SEQEND
  5
79
330
6B
100
AcDbEntity
  8
Layer 1
370
     0
  0
SPLINE
  5
7A
330
4F
100
AcDbEntity
  8
Layer 1
370
     0
100
AcDbSpline
210
0.0
220
0.0
230
1.0
 70
    11
 71
     3
 72
    32
 73
    28
 74
     0
 42
0.0000000001
 43
0.0000000001
 12
1.0
 22
0.0
 32
0.0
 13
1.0
 23
0.0
 33
0.0
 40
0.0
 40
0.0
 40
0.0
 40
0.0
 40
1.0
 40
1.0
 40
1.0
 40
2.0
 40
2.0
 40
2.0
 40
3.0
 40
3.0
 40
3.0
 40
4.0
 40
4.0
 40
4.0
 40
5.0
 40
5.0
 40
5.0
 40
6.0
 40
6.0
 40
6.0
 40
7.0
 40
7.0
 40
7.0
 40
8.0
 40
8.0
 40
8.0
 40
9.0
 40
9.0
 40
9.0
 40
9.0
 10
286.1368195312516
 20
-80.74269999999979
 30
0.0
 10
286.1368195312516
 20
-80.74269999999979
 30
0.0
 10
301.9512195312509
 20
-80.9989999999998
 30
0.0
 10
301.9512195312509
 20
-80.9989999999998
 30
0.0
 10
306.8985195312507
 20
-81.07909999999993
 30
0.0
 10
311.3750195312514
 20
-79.72950000000037
 30
0.0
 10
315.3789195312511
 20
-76.94869999999992
 30
0.0
 10
319.7286195312518
 20
-73.83399999999983
 30
0.0
 10
321.9434195312515
 20
-69.84910000000036
 30
0.0
 10
322.0215195312521
 20
-64.99409999999989
 30
0.0
 10
322.144619531251
 20
-57.35739999999987
 30
0.0
 10
318.6563195312519
 20
-52.18159999999989
 30
0.0
 10
311.5567195312506
 20
-49.46879999999965
 30
0.0
 10
317.6973195312512
 20
-46.50630000000001
 30
0.0
 10
320.8243195312516
 20
-41.59280000000035
 30
0.0
 10
320.9356195312521
 20
-34.72850000000017
 30
0.0
 10
321.0118195312516
 20
-29.96730000000025
 30
0.0
 10
319.2227195312516
 20
-25.90189999999984
 30
0.0
 10
315.5645195312518
 20
-22.53269999999975
 30
0.0
 10
312.0586195312517
 20
-19.38379999999961
 30
0.0
 10
307.8633195312505
 20
-17.76860000000033
 30
0.0
 10
302.9786195312518
 20
-17.68950000000041
 30
0.0
 10
302.9786195312518
 20
-17.68950000000041
 30
0.0
 10
287.1621195312509
 20
-17.43310000000019
 30
0.0
 10
287.1621195312509
 20
-17.43310000000019
 30
0.0
 10
287.1621195312509
 20
-17.43310000000019
 30
0.0
 10
286.1368195312516
 20
-80.74269999999979
 30
0.0
 10
286.1368195312516
 20
-80.74269999999979
 30
0.0
  0
POLYLINE
  5
7B
330
4F
100
AcDbEntity
  8
Layer 1
370
     0
100
AcDb2dPolyline
 66
     1
 10
0.0
 20
0.0
 30
0.0
  0
VERTEX
  5
7C
330
7B
100
AcDbEntity
  8
Layer 1
370
     0
100
AcDbVertex
100
AcDb2dVertex
 10
200.1758195312505
 20
-35.63870000000043
 30
0.0
  0
VERTEX
  5
7D
330
7B
100
AcDbEntity
  8
Layer 1
370
     0
100
AcDbVertex
100
AcDb2dVertex
 10
219.3262195312509
 20
-95.99070000000029
 30
0.0
  0
VERTEX
  5
7E
330
7B
100
AcDbEntity
  8
Layer 1
370
     0
100
AcDbVertex
100
AcDb2dVertex
 10
249.480519531251
 20
-86.42289999999957
 30
0.0
  0
VERTEX
  5
7F
330
7B
100
AcDbEntity
  8
Layer 1
370
     0
100
AcDbVertex
100
AcDb2dVertex
 10
244.6954195312519
 20
-71.34569999999985
 30
0.0
  0
VERTEX
  5
80
330
7B
100
AcDbEntity
  8
Layer 1
370
     0
100
AcDbVertex
100
AcDb2dVertex
 10
229.6192195312506
 20
-76.1298999999999
 30
0.0
  0
VERTEX
  5
81
330
7B
100
AcDbEntity
  8
Layer 1
370
     0
100
AcDbVertex
100
AcDb2dVertex
 10
226.8858195312514
 20
-66.66650000000027
 30
0.0
  0
VERTEX
  5
82
330
7B
100
AcDbEntity
  8
Layer 1
370
     0
100
AcDbVertex
100
AcDb2dVertex
 10
240.8731195312521
 20
-62.33299999999963
 30
0.0
  0
VERTEX
  5
83
330
7B
100
AcDbEntity
  8
Layer 1
370
     0
100
AcDbVertex
100
AcDb2dVertex
 10
238.2061195312508
 20
-50.33299999999963
 30
0.0
  0
VERTEX
  5
84
330
7B
100
AcDbEntity
  8
Layer 1
370
     0
100
AcDbVertex
100
AcDb2dVertex
 10
223.1299195312513
 20
-55.11719999999968
 30
0.0
  0
VERTEX
  5
85
330
7B
100
AcDbEntity
  8
Layer 1
370
     0
100
AcDbVertex
100
AcDb2dVertex
 10
220.0371195312509
 20
-45.93159999999989
 30
0.0
  0
VERTEX
  5
86
330
7B
100
AcDbEntity
  8
Layer 1
370
     0
100
AcDbVertex
100
AcDb2dVertex
 10
235.1133195312505
 20
-41.14750000000004
 30
0.0
  0
VERTEX
  5
87
330
7B
100
AcDbEntity
  8
Layer 1
370
     0
100
AcDbVertex
100
AcDb2dVertex
 10
230.3301195312506
 20
-26.07030000000032
 30
0.0
  0
VERTEX
  5
88
330
7B
100
AcDbEntity
  8
Layer 1
370
     0
100
AcDbVertex
100
AcDb2dVertex
 10
200.1758195312505
 20
-35.63870000000043
 30
0.0
  0
SEQEND
  5
89
330
7B
100
AcDbEntity
  8
Layer 1
370
     0
  0
POLYLINE
  5
8A
330
4F
100
AcDbEntity
  8
Layer 1
370
     0
100
AcDb2dPolyline
 66
     1
 10
0.0
 20
0.0
 30
0.0
  0
VERTEX
  5
8B
330
8A
100
AcDbEntity
  8
Layer 1
370
     0
100
AcDbVertex
100
AcDb2dVertex
 10
130.1387195312509
 20
-72.70650000000023
 30
0.0
  0
VERTEX
  5
8C
330
8A
100
AcDbEntity
  8
Layer 1
370
     0
100
AcDbVertex
100
AcDb2dVertex
 10
172.7344195312508
 20
-121.0352000000003
 30
0.0
  0
VERTEX
  5
8D
330
8A
100
AcDbEntity
  8
Layer 1
370
     0
100
AcDbVertex
100
AcDb2dVertex
 10
182.5391195312513
 20
-115.25
 30
0.0
  0
VERTEX
  5
8E
330
8A
100
AcDbEntity
  8
Layer 1
370
     0
100
AcDbVertex
100
AcDb2dVertex
 10
175.5313195312519
 20
-91.72950000000037
 30
0.0
  0
VERTEX
  5
8F
330
8A
100
AcDbEntity
  8
Layer 1
370
     0
100
AcDbVertex
100
AcDb2dVertex
 10
192.7891195312513
 20
-109.5
 30
0.0
  0
VERTEX
  5
90
330
8A
100
AcDbEntity
  8
Layer 1
370
     0
100
AcDbVertex
100
AcDb2dVertex
 10
202.668019531251
 20
-103.2129000000004
 30
0.0
  0
VERTEX
  5
91
330
8A
100
AcDbEntity
  8
Layer 1
370
     0
100
AcDbVertex
100
AcDb2dVertex
 10
180.4766195312513
 20
-42.73340000000007
 30
0.0
  0
VERTEX
  5
92
330
8A
100
AcDbEntity
  8
Layer 1
370
     0
100
AcDbVertex
100
AcDb2dVertex
 10
169.8731195312521
 20
-49.0
 30
0.0
  0
VERTEX
  5
93
330
8A
100
AcDbEntity
  8
Layer 1
370
     0
100
AcDbVertex
100
AcDb2dVertex
 10
180.3282195312513
 20
-84.28369999999995
 30
0.0
  0
VERTEX
  5
94
330
8A
100
AcDbEntity
  8
Layer 1
370
     0
100
AcDbVertex
100
AcDb2dVertex
 10
163.5401195312515
 20
-64.66650000000027
 30
0.0
  0
VERTEX
  5
95
330
8A
100
AcDbEntity
  8
Layer 1
370
     0
100
AcDbVertex
100
AcDb2dVertex
 10
158.2061195312508
 20
-68.66650000000027
 30
0.0
  0
VERTEX
  5
96
330
8A
100
AcDbEntity
  8
Layer 1
370
     0
100
AcDbVertex
100
AcDb2dVertex
 10
166.7383195312505
 20
-92.3760000000002
 30
0.0
  0
VERTEX
  5
97
330
8A
100
AcDbEntity
  8
Layer 1
370
     0
100
AcDbVertex
100
AcDb2dVertex
 10
141.5401195312515
 20
-66.0
 30
0.0
  0
VERTEX
  5
98
330
8A
100
AcDbEntity
  8
Layer 1
370
     0
100
AcDbVertex
100
AcDb2dVertex
 10
130.1387195312509
 20
-72.70650000000023
 30
0.0
  0
SEQEND
  5
99
330
8A
100
AcDbEntity
  8
Layer 1
370
     0
  0
SPLINE
  5
9A
330
4F
100
AcDbEntity
  8
Layer 1
370
     0
100
AcDbSpline
210
0.0
220
0.0
230
1.0
 70
    11
 71
     3
 72
    17
 73
    13
 74
     0
 42
0.0000000001
 43
0.0000000001
 12
1.0
 22
0.0
 32
0.0
 13
1.0
 23
0.0
 33
0.0
 40
0.0
 40
0.0
 40
0.0
 40
0.0
 40
1.0
 40
1.0
 40
1.0
 40
2.0
 40
2.0
 40
2.0
 40
3.0
 40
3.0
 40
3.0
 40
4.0
 40
4.0
 40
4.0
 40
4.0
 10
98.25001953125138
 20
-134.0
 30
0.0
 10
98.25001953125138
 20
-139.6606000000002
 30
0.0
 10
102.838919531252
 20
-144.25
 30
0.0
 10
108.5000195312514
 20
-144.25
 30
0.0
 10
114.1612195312518
 20
-144.25
 30
0.0
 10
118.7500195312514
 20
-139.6606000000002
 30
0.0
 10
118.7500195312514
 20
-134.0
 30
0.0
 10
118.7500195312514
 20
-128.3393999999998
 30
0.0
 10
114.1612195312518
 20
-123.75
 30
0.0
 10
108.5000195312514
 20
-123.75
 30
0.0
 10
102.838919531252
 20
-123.75
 30
0.0
 10
98.25001953125138
 20
-128.3393999999998
 30
0.0
 10
98.25001953125138
 20
-134.0
 30
0.0
  0
SPLINE
  5
9B
330
4F
100
AcDbEntity
  8
Layer 1
370
     0
100
AcDbSpline
210
0.0
220
0.0
230
1.0
 70
    11
 71
     3
 72
    53
 73
    49
 74
     0
 42
0.0000000001
 43
0.0000000001
 12
1.0
 22
0.0
 32
0.0
 13
1.0
 23
0.0
 33
0.0
 40
0.0
 40
0.0
 40
0.0
 40
0.0
 40
1.0
 40
1.0
 40
1.0
 40
2.0
 40
2.0
 40
2.0
 40
3.0
 40
3.0
 40
3.0
 40
4.0
 40
4.0
 40
4.0
 40
5.0
 40
5.0
 40
5.0
 40
6.0
 40
6.0
 40
6.0
 40
7.0
 40
7.0
 40
7.0
 40
8.0
 40
8.0
 40
8.0
 40
9.0
 40
9.0
 40
9.0
 40
10.0
 40
10.0
 40
10.0
 40
11.0
 40
11.0
 40
11.0
 40
12.0
 40
12.0
 40
12.0
 40
13.0
 40
13.0
 40
13.0
 40
14.0
 40
14.0
 40
14.0
 40
15.0
 40
15.0
 40
15.0
 40
16.0
 40
16.0
 40
16.0
 40
16.0
 10
87.35161953125134
 20
-389.3456999999999
 30
0.0
 10
93.2657195312513
 20
-402.9696999999996
 30
0.0
 10
107.1875195312514
 20
-411.4004000000004
 30
0.0
 10
121.9971195312519
 20
-410.3231999999989
 30
0.0
 10
124.7705195312519
 20
-410.1216000000004
 30
0.0
 10
127.492219531252
 20
-409.5737000000008
 30
0.0
 10
130.1348195312512
 20
-408.7236000000012
 30
0.0
 10
132.8057195312522
 20
-412.8882000000012
 30
0.0
 10
135.6436195312508
 20
-416.9341000000004
 30
0.0
 10
138.6045195312508
 20
-420.8817999999992
 30
0.0
 10
138.6045195312508
 20
-420.8817999999992
 30
0.0
 10
420.8916195312522
 20
-138.5946999999996
 30
0.0
 10
420.8916195312522
 20
-138.5946999999996
 30
0.0
 10
387.2051195312506
 20
-113.3222999999998
 30
0.0
 10
345.3526195312515
 20
-98.34379999999965
 30
0.0
 10
300.0000195312514
 20
-98.34379999999965
 30
0.0
 10
281.492219531252
 20
-98.34379999999965
 30
0.0
 10
263.5723195312512
 20
-100.8505999999998
 30
0.0
 10
246.547919531251
 20
-105.5195000000003
 30
0.0
 10
241.0293195312515
 20
-102.7470999999996
 30
0.0
 10
234.7598195312512
 20
-101.4141
 30
0.0
 10
228.321319531251
 20
-101.8828000000003
 30
0.0
 10
224.394619531251
 20
-102.1688999999997
 30
0.0
 10
220.6065195312513
 20
-103.2191999999995
 30
0.0
 10
216.9239195312512
 20
-104.6908999999996
 30
0.0
 10
202.8116195312505
 20
-110.3320000000003
 30
0.0
 10
197.7227195312516
 20
-125.5331999999999
 30
0.0
 10
197.4707195312512
 20
-126.3339999999998
 30
0.0
 10
166.9356195312521
 20
-144.3999000000003
 30
0.0
 10
141.582119531251
 20
-170.2842000000001
 30
0.0
 10
124.1592195312514
 20
-201.2362999999996
 30
0.0
 10
115.3936195312508
 20
-204.0888999999997
 30
0.0
 10
106.1084195312505
 20
-209.9594999999999
 30
0.0
 10
102.4414195312511
 20
-226.1992
 30
0.0
 10
100.235419531251
 20
-235.9701999999997
 30
0.0
 10
101.4825195312515
 20
-244.6938
 30
0.0
 10
104.4473195312512
 20
-250.6063999999997
 30
0.0
 10
100.4668195312515
 20
-266.4135999999999
 30
0.0
 10
98.34381953125194
 20
-282.9579999999996
 30
0.0
 10
98.34381953125194
 20
-300.0
 30
0.0
 10
98.34381953125194
 20
-315.2554
 30
0.0
 10
100.047919531251
 20
-330.1108000000004
 30
0.0
 10
103.2579195312519
 20
-344.3970000000008
 30
0.0
 10
95.78711953125094
 20
-348.2861000000012
 30
0.0
 10
90.02641953125203
 20
-354.6519000000008
 30
0.0
 10
86.90341953125244
 20
-362.5630000000001
 30
0.0
 10
83.46981953125214
 20
-371.2587999999996
 30
0.0
 10
83.6309195312515
 20
-380.7700000000004
 30
0.0
 10
87.35161953125134
 20
-389.3456999999999
 30
0.0
  0
SPLINE
  5
9C
330
4F
100
AcDbEntity
  8
Layer 1
370
     0
100
AcDbSpline
210
0.0
220
0.0
230
1.0
 70
    11
 71
     3
 72
    17
 73
    13
 74
     0
 42
0.0000000001
 43
0.0000000001
 12
1.0
 22
0.0
 32
0.0
 13
1.0
 23
0.0
 33
0.0
 40
0.0
 40
0.0
 40
0.0
 40
0.0
 40
1.0
 40
1.0
 40
1.0
 40
2.0
 40
2.0
 40
2.0
 40
3.0
 40
3.0
 40
3.0
 40
4.0
 40
4.0
 40
4.0
 40
4.0
 10
105.8301195312506
 20
-456.7528999999995
 30
0.0
 10
105.8301195312506
 20
-450.8833000000013
 30
0.0
 10
101.0723195312512
 20
-446.1255000000001
 30
0.0
 10
95.2032195312513
 20
-446.1255000000001
 30
0.0
 10
89.33401953125212
 20
-446.1255000000001
 30
0.0
 10
84.5762195312509
 20
-450.8833000000013
 30
0.0
 10
84.5762195312509
 20
-456.7528999999995
 30
0.0
 10
84.5762195312509
 20
-462.6225999999988
 30
0.0
 10
89.33401953125212
 20
-467.3804
 30
0.0
 10
95.2032195312513
 20
-467.3804
 30
0.0
 10
101.0723195312512
 20
-467.3804
 30
0.0
 10
105.8301195312506
 20
-462.6225999999988
 30
0.0
 10
105.8301195312506
 20
-456.7528999999995
 30
0.0
  0
SPLINE
  5
9D
330
4F
100
AcDbEntity
  8
Layer 1
370
     0
100
AcDbSpline
210
0.0
220
0.0
230
1.0
 70
    11
 71
     3
 72
    53
 73
    49
 74
     0
 42
0.0000000001
 43
0.0000000001
 12
1.0
 22
0.0
 32
0.0
 13
1.0
 23
0.0
 33
0.0
 40
0.0
 40
0.0
 40
0.0
 40
0.0
 40
1.0
 40
1.0
 40
1.0
 40
2.0
 40
2.0
 40
2.0
 40
3.0
 40
3.0
 40
3.0
 40
4.0
 40
4.0
 40
4.0
 40
5.0
 40
5.0
 40
5.0
 40
6.0
 40
6.0
 40
6.0
 40
7.0
 40
7.0
 40
7.0
 40
8.0
 40
8.0
 40
8.0
 40
9.0
 40
9.0
 40
9.0
 40
10.0
 40
10.0
 40
10.0
 40
11.0
 40
11.0
 40
11.0
 40
12.0
 40
12.0
 40
12.0
 40
13.0
 40
13.0
 40
13.0
 40
14.0
 40
14.0
 40
14.0
 40
15.0
 40
15.0
 40
15.0
 40
16.0
 40
16.0
 40
16.0
 40
16.0
 10
161.5489195312512
 20
-507.1347999999998
 30
0.0
 10
161.5489195312512
 20
-507.1347999999998
 30
0.0
 10
175.9746195312509
 20
-507.3104999999996
 30
0.0
 10
175.9746195312509
 20
-507.3104999999996
 30
0.0
 10
176.4727195312516
 20
-501.5097999999998
 30
0.0
 10
175.0870195312509
 20
-495.8847999999998
 30
0.0
 10
171.8184195312515
 20
-490.4375
 30
0.0
 10
167.7471195312519
 20
-483.6566999999995
 30
0.0
 10
161.8291195312522
 20
-479.3770000000004
 30
0.0
 10
154.0625195312514
 20
-477.5990999999995
 30
0.0
 10
146.3438195312519
 20
-475.7920000000013
 30
0.0
 10
139.0704195312519
 20
-476.9380000000001
 30
0.0
 10
132.242219531252
 20
-481.0370999999996
 30
0.0
 10
125.3907195312513
 20
-485.1494000000002
 30
0.0
 10
120.9473195312512
 20
-491.0365999999995
 30
0.0
 10
118.9121195312509
 20
-498.6981999999989
 30
0.0
 10
116.901419531252
 20
-506.3451999999997
 30
0.0
 10
117.929719531252
 20
-513.5600999999988
 30
0.0
 10
122.0000195312514
 20
-520.3394000000008
 30
0.0
 10
125.2569195312517
 20
-525.7641999999996
 30
0.0
 10
129.5303195312517
 20
-529.6225999999988
 30
0.0
 10
134.8223195312512
 20
-531.9154999999992
 30
0.0
 10
140.1133195312505
 20
-534.2079999999987
 30
0.0
 10
145.8926195312524
 20
-534.670900000001
 30
0.0
 10
152.1602195312516
 20
-533.3042000000005
 30
0.0
 10
152.1602195312516
 20
-533.3042000000005
 30
0.0
 10
151.0723195312512
 20
-518.9575000000004
 30
0.0
 10
151.0723195312512
 20
-518.9575000000004
 30
0.0
 10
147.8418195312515
 20
-520.1519000000008
 30
0.0
 10
144.6485195312507
 20
-520.2236000000012
 30
0.0
 10
141.4942195312506
 20
-519.1728999999996
 30
0.0
 10
138.3243195312516
 20
-518.0977000000003
 30
0.0
 10
135.8467195312514
 20
-516.0737000000008
 30
0.0
 10
134.0616195312505
 20
-513.0995999999996
 30
0.0
 10
131.9912195312518
 20
-509.6499000000003
 30
0.0
 10
131.5215195312521
 20
-505.983400000001
 30
0.0
 10
132.6543195312515
 20
-502.1010999999999
 30
0.0
 10
133.7989195312512
 20
-498.2407000000003
 30
0.0
 10
136.0977195312516
 20
-495.2763999999988
 30
0.0
 10
139.5469195312508
 20
-493.2060999999994
 30
0.0
 10
142.9727195312516
 20
-491.1489000000001
 30
0.0
 10
146.6573195312521
 20
-490.5220000000008
 30
0.0
 10
150.6036195312518
 20
-491.3257000000012
 30
0.0
 10
154.5625195312514
 20
-492.1527999999998
 30
0.0
 10
157.5772195312511
 20
-494.2920000000013
 30
0.0
 10
159.6485195312507
 20
-497.7407000000003
 30
0.0
 10
161.4336195312517
 20
-500.7147999999997
 30
0.0
 10
162.0664195312511
 20
-503.8456999999999
 30
0.0
 10
161.5489195312512
 20
-507.1347999999998
 30
0.0
  0
SPLINE
  5
9E
330
4F
100
AcDbEntity
  8
Layer 1
370
     0
100
AcDbSpline
210
0.0
220
0.0
230
1.0
 70
    11
 71
     3
 72
    29
 73
    25
 74
     0
 42
0.0000000001
 43
0.0000000001
 12
1.0
 22
0.0
 32
0.0
 13
1.0
 23
0.0
 33
0.0
 40
0.0
 40
0.0
 40
0.0
 40
0.0
 40
1.0
 40
1.0
 40
1.0
 40
2.0
 40
2.0
 40
2.0
 40
3.0
 40
3.0
 40
3.0
 40
4.0
 40
4.0
 40
4.0
 40
5.0
 40
5.0
 40
5.0
 40
6.0
 40
6.0
 40
6.0
 40
7.0
 40
7.0
 40
7.0
 40
8.0
 40
8.0
 40
8.0
 40
8.0
 10
224.3819195312517
 20
-524.8388999999988
 30
0.0
 10
221.5371195312509
 20
-517.4170000000013
 30
0.0
 10
216.4698195312521
 20
-512.1762999999992
 30
0.0
 10
209.1778195312509
 20
-509.1162000000004
 30
0.0
 10
201.8848195312512
 20
-506.0571
 30
0.0
 10
194.582119531251
 20
-506.1068999999989
 30
0.0
 10
187.2686195312508
 20
-509.2671000000009
 30
0.0
 10
179.9756195312511
 20
-512.3760000000002
 30
0.0
 10
174.7891195312513
 20
-517.6021000000001
 30
0.0
 10
171.7080195312519
 20
-524.9452999999994
 30
0.0
 10
168.6162195312518
 20
-532.3140000000003
 30
0.0
 10
168.5157195312513
 20
-539.6895000000004
 30
0.0
 10
171.4063195312519
 20
-547.0712999999996
 30
0.0
 10
174.3077195312508
 20
-554.4268000000011
 30
0.0
 10
179.4053195312517
 20
-559.6347999999998
 30
0.0
 10
186.696319531251
 20
-562.6942999999992
 30
0.0
 10
193.9883195312505
 20
-565.7538999999997
 30
0.0
 10
201.2627195312507
 20
-565.7367999999988
 30
0.0
 10
208.519619531251
 20
-562.6425999999992
 30
0.0
 10
215.8106195312521
 20
-559.5342
 30
0.0
 10
221.0039195312511
 20
-554.2953999999991
 30
0.0
 10
224.0967195312514
 20
-546.9262999999992
 30
0.0
 10
227.1778195312509
 20
-539.5835000000006
 30
0.0
 10
227.2715195312521
 20
-532.2206999999999
 30
0.0
 10
224.3819195312517
 20
-524.8388999999988
 30
0.0
  0
POLYLINE
  5
9F
330
4F
100
AcDbEntity
  8
Layer 1
370
     0
100
AcDb2dPolyline
 66
     1
 10
0.0
 20
0.0
 30
0.0
  0
VERTEX
  5
A0
330
9F
100
AcDbEntity
  8
Layer 1
370
     0
100
AcDbVertex
100
AcDb2dVertex
 10
276.6143195312507
 20
-528.4418999999998
 30
0.0
  0
VERTEX
  5
A1
330
9F
100
AcDbEntity
  8
Layer 1
370
     0
100
AcDbVertex
100
AcDb2dVertex
 10
264.9873195312521
 20
-526.7528999999995
 30
0.0
  0
VERTEX
  5
A2
330
9F
100
AcDbEntity
  8
Layer 1
370
     0
100
AcDbVertex
100
AcDb2dVertex
 10
250.043019531251
 20
-567.1587
 30
0.0
  0
VERTEX
  5
A3
330
9F
100
AcDbEntity
  8
Layer 1
370
     0
100
AcDbVertex
100
AcDb2dVertex
 10
249.4893195312507
 20
-523.9853999999996
 30
0.0
  0
VERTEX
  5
A4
330
9F
100
AcDbEntity
  8
Layer 1
370
     0
100
AcDbVertex
100
AcDb2dVertex
 10
237.3731195312521
 20
-521.8613000000005
 30
0.0
  0
VERTEX
  5
A5
330
9F
100
AcDbEntity
  8
Layer 1
370
     0
100
AcDbVertex
100
AcDb2dVertex
 10
239.1827195312508
 20
-579.7705000000005
 30
0.0
  0
VERTEX
  5
A6
330
9F
100
AcDbEntity
  8
Layer 1
370
     0
100
AcDbVertex
100
AcDb2dVertex
 10
256.0118195312516
 20
-582.5933000000005
 30
0.0
  0
VERTEX
  5
A7
330
9F
100
AcDbEntity
  8
Layer 1
370
     0
100
AcDbVertex
100
AcDb2dVertex
 10
276.6143195312507
 20
-528.4418999999998
 30
0.0
  0
SEQEND
  5
A8
330
9F
100
AcDbEntity
  8
Layer 1
370
     0
  0
POLYLINE
  5
A9
330
4F
100
AcDbEntity
  8
Layer 1
370
     0
100
AcDb2dPolyline
 66
     1
 10
0.0
 20
0.0
 30
0.0
  0
VERTEX
  5
AA
330
A9
100
AcDbEntity
  8
Layer 1
370
     0
100
AcDbVertex
100
AcDb2dVertex
 10
299.5791195312522
 20
-528.4395000000004
 30
0.0
  0
VERTEX
  5
AB
330
A9
100
AcDbEntity
  8
Layer 1
370
     0
100
AcDbVertex
100
AcDb2dVertex
 10
287.3252195312507
 20
-528.2260999999999
 30
0.0
  0
VERTEX
  5
AC
330
A9
100
AcDbEntity
  8
Layer 1
370
     0
100
AcDbVertex
100
AcDb2dVertex
 10
286.128019531252
 20
-585.0254000000004
 30
0.0
  0
VERTEX
  5
AD
330
A9
100
AcDbEntity
  8
Layer 1
370
     0
100
AcDbVertex
100
AcDb2dVertex
 10
298.3829195312519
 20
-585.2397000000001
 30
0.0
  0
VERTEX
  5
AE
330
A9
100
AcDbEntity
  8
Layer 1
370
     0
100
AcDbVertex
100
AcDb2dVertex
 10
299.5791195312522
 20
-528.4395000000004
 30
0.0
  0
SEQEND
  5
AF
330
A9
100
AcDbEntity
  8
Layer 1
370
     0
  0
SPLINE
  5
B0
330
4F
100
AcDbEntity
  8
Layer 1
370
     0
100
AcDbSpline
210
0.0
220
0.0
230
1.0
 70
    11
 71
     3
 72
    26
 73
    22
 74
     0
 42
0.0000000001
 43
0.0000000001
 12
1.0
 22
0.0
 32
0.0
 13
1.0
 23
0.0
 33
0.0
 40
0.0
 40
0.0
 40
0.0
 40
0.0
 40
1.0
 40
1.0
 40
1.0
 40
2.0
 40
2.0
 40
2.0
 40
3.0
 40
3.0
 40
3.0
 40
4.0
 40
4.0
 40
4.0
 40
5.0
 40
5.0
 40
5.0
 40
6.0
 40
6.0
 40
6.0
 40
7.0
 40
7.0
 40
7.0
 40
7.0
 10
355.5469195312508
 20
-549.9595000000008
 30
0.0
 10
354.5313195312519
 20
-542.2295000000013
 30
0.0
 10
350.8965195312521
 20
-535.9766
 30
0.0
 10
344.6436195312508
 20
-531.2011999999995
 30
0.0
 10
338.4151195312515
 20
-526.3945000000003
 30
0.0
 10
331.4209195312505
 20
-524.5005000000001
 30
0.0
 10
323.6631195312511
 20
-525.5204999999987
 30
0.0
 10
323.6631195312511
 20
-525.5204999999987
 30
0.0
 10
309.5918195312515
 20
-527.3696
 30
0.0
 10
309.5918195312515
 20
-527.3696
 30
0.0
 10
309.5918195312515
 20
-527.3696
 30
0.0
 10
316.9942195312506
 20
-583.6981999999989
 30
0.0
 10
316.9942195312506
 20
-583.6981999999989
 30
0.0
 10
316.9942195312506
 20
-583.6981999999989
 30
0.0
 10
331.0664195312511
 20
-581.8486000000012
 30
0.0
 10
331.0664195312511
 20
-581.8486000000012
 30
0.0
 10
338.8243195312516
 20
-580.829099999999
 30
0.0
 10
345.0928195312517
 20
-577.2075000000004
 30
0.0
 10
349.8721195312519
 20
-570.9814000000006
 30
0.0
 10
354.6748195312521
 20
-564.7245999999996
 30
0.0
 10
356.5664195312511
 20
-557.7178000000004
 30
0.0
 10
355.5469195312508
 20
-549.9595000000008
 30
0.0
  0
POLYLINE
  5
B1
330
4F
100
AcDbEntity
  8
Layer 1
370
     0
100
AcDb2dPolyline
 66
     1
 10
0.0
 20
0.0
 30
0.0
  0
VERTEX
  5
B2
330
B1
100
AcDbEntity
  8
Layer 1
370
     0
100
AcDbVertex
100
AcDb2dVertex
 10
401.4287195312518
 20
-542.2646000000004
 30
0.0
  0
VERTEX
  5
B3
330
B1
100
AcDbEntity
  8
Layer 1
370
     0
100
AcDbVertex
100
AcDb2dVertex
 10
397.8457195312512
 20
-532.2295000000013
 30
0.0
  0
VERTEX
  5
B4
330
B1
100
AcDbEntity
  8
Layer 1
370
     0
100
AcDbVertex
100
AcDb2dVertex
 10
367.7432195312522
 20
-542.9771000000001
 30
0.0
  0
VERTEX
  5
B5
330
B1
100
AcDbEntity
  8
Layer 1
370
     0
100
AcDbVertex
100
AcDb2dVertex
 10
371.3252195312507
 20
-553.0116999999991
 30
0.0
  0
VERTEX
  5
B6
330
B1
100
AcDbEntity
  8
Layer 1
370
     0
100
AcDbVertex
100
AcDb2dVertex
 10
401.4287195312518
 20
-542.2646000000004
 30
0.0
  0
SEQEND
  5
B7
330
B1
100
AcDbEntity
  8
Layer 1
370
     0
  0
POLYLINE
  5
B8
330
4F
100
AcDbEntity
  8
Layer 1
370
     0
100
AcDb2dPolyline
 66
     1
 10
0.0
 20
0.0
 30
0.0
  0
VERTEX
  5
B9
330
B8
100
AcDbEntity
  8
Layer 1
370
     0
100
AcDbVertex
100
AcDb2dVertex
 10
455.0245195312509
 20
-539.483400000001
 30
0.0
  0
VERTEX
  5
BA
330
B8
100
AcDbEntity
  8
Layer 1
370
     0
100
AcDbVertex
100
AcDb2dVertex
 10
447.8545195312508
 20
-527.2358000000004
 30
0.0
  0
VERTEX
  5
BB
330
B8
100
AcDbEntity
  8
Layer 1
370
     0
100
AcDbVertex
100
AcDb2dVertex
 10
441.0664195312511
 20
-531.0956999999999
 30
0.0
  0
VERTEX
  5
BC
330
B8
100
AcDbEntity
  8
Layer 1
370
     0
100
AcDbVertex
100
AcDb2dVertex
 10
419.5323195312521
 20
-494.3158999999996
 30
0.0
  0
VERTEX
  5
BD
330
B8
100
AcDbEntity
  8
Layer 1
370
     0
100
AcDbVertex
100
AcDb2dVertex
 10
402.2569195312517
 20
-504.4282000000003
 30
0.0
  0
VERTEX
  5
BE
330
B8
100
AcDbEntity
  8
Layer 1
370
     0
100
AcDbVertex
100
AcDb2dVertex
 10
409.4278195312509
 20
-516.6762999999992
 30
0.0
  0
VERTEX
  5
BF
330
B8
100
AcDbEntity
  8
Layer 1
370
     0
100
AcDbVertex
100
AcDb2dVertex
 10
414.4561195312508
 20
-513.7348999999995
 30
0.0
  0
VERTEX
  5
C0
330
B8
100
AcDbEntity
  8
Layer 1
370
     0
100
AcDbVertex
100
AcDb2dVertex
 10
428.8184195312515
 20
-538.266599999999
 30
0.0
  0
VERTEX
  5
C1
330
B8
100
AcDbEntity
  8
Layer 1
370
     0
100
AcDbVertex
100
AcDb2dVertex
 10
421.838919531252
 20
-542.1807000000008
 30
0.0
  0
VERTEX
  5
C2
330
B8
100
AcDbEntity
  8
Layer 1
370
     0
100
AcDbVertex
100
AcDb2dVertex
 10
429.0098195312512
 20
-554.4282000000003
 30
0.0
  0
VERTEX
  5
C3
330
B8
100
AcDbEntity
  8
Layer 1
370
     0
100
AcDbVertex
100
AcDb2dVertex
 10
455.0245195312509
 20
-539.483400000001
 30
0.0
  0
SEQEND
  5
C4
330
B8
100
AcDbEntity
  8
Layer 1
370
     0
  0
SPLINE
  5
C5
330
4F
100
AcDbEntity
  8
Layer 1
370
     0
100
AcDbSpline
210
0.0
220
0.0
230
1.0
 70
    11
 71
     3
 72
    35
 73
    31
 74
     0
 42
0.0000000001
 43
0.0000000001
 12
1.0
 22
0.0
 32
0.0
 13
1.0
 23
0.0
 33
0.0
 40
0.0
 40
0.0
 40
0.0
 40
0.0
 40
1.0
 40
1.0
 40
1.0
 40
2.0
 40
2.0
 40
2.0
 40
3.0
 40
3.0
 40
3.0
 40
4.0
 40
4.0
 40
4.0
 40
5.0
 40
5.0
 40
5.0
 40
6.0
 40
6.0
 40
6.0
 40
7.0
 40
7.0
 40
7.0
 40
8.0
 40
8.0
 40
8.0
 40
9.0
 40
9.0
 40
9.0
 40
10.0
 40
10.0
 40
10.0
 40
10.0
 10
487.4756195312511
 20
-513.7353999999996
 30
0.0
 10
487.4756195312511
 20
-513.7353999999996
 30
0.0
 10
472.0928195312517
 20
-481.5414999999994
 30
0.0
 10
472.0928195312517
 20
-481.5414999999994
 30
0.0
 10
471.3633195312505
 20
-480.0488000000005
 30
0.0
 10
470.429719531252
 20
-478.637200000001
 30
0.0
 10
469.2940195312513
 20
-477.3096000000005
 30
0.0
 10
466.1006195312511
 20
-473.5776000000005
 30
0.0
 10
462.0323195312521
 20
-471.4897000000001
 30
0.0
 10
457.0879195312518
 20
-471.0449000000008
 30
0.0
 10
452.1426195312524
 20
-470.6016
 30
0.0
 10
447.815519531252
 20
-471.9668000000001
 30
0.0
 10
444.1045195312508
 20
-475.1411000000007
 30
0.0
 10
440.3301195312506
 20
-478.3706000000002
 30
0.0
 10
438.3096195312519
 20
-482.4736000000012
 30
0.0
 10
438.0391195312513
 20
-487.4507000000012
 30
0.0
 10
437.7159195312524
 20
-492.3652000000002
 30
0.0
 10
439.1778195312509
 20
-496.7196999999996
 30
0.0
 10
442.4239195312512
 20
-500.5151000000005
 30
0.0
 10
445.526419531252
 20
-504.1421000000009
 30
0.0
 10
449.3975195312523
 20
-506.2344000000012
 30
0.0
 10
454.0391195312513
 20
-506.7920000000013
 30
0.0
 10
458.6602195312516
 20
-507.3296000000009
 30
0.0
 10
462.9219195312508
 20
-506.1854999999996
 30
0.0
 10
466.8223195312512
 20
-503.3598999999995
 30
0.0
 10
466.8223195312512
 20
-503.3598999999995
 30
0.0
 10
476.3741195312505
 20
-523.2318999999989
 30
0.0
 10
476.3741195312505
 20
-523.2318999999989
 30
0.0
 10
476.3741195312505
 20
-523.2318999999989
 30
0.0
 10
487.4756195312511
 20
-513.7353999999996
 30
0.0
 10
487.4756195312511
 20
-513.7353999999996
 30
0.0
  0
SPLINE
  5
C6
330
4F
100
AcDbEntity
  8
Layer 1
370
     0
100
AcDbSpline
210
0.0
220
0.0
230
1.0
 70
    11
 71
     3
 72
    17
 73
    13
 74
     0
 42
0.0000000001
 43
0.0000000001
 12
1.0
 22
0.0
 32
0.0
 13
1.0
 23
0.0
 33
0.0
 40
0.0
 40
0.0
 40
0.0
 40
0.0
 40
1.0
 40
1.0
 40
1.0
 40
2.0
 40
2.0
 40
2.0
 40
3.0
 40
3.0
 40
3.0
 40
4.0
 40
4.0
 40
4.0
 40
4.0
 10
515.4239195312512
 20
-456.7528999999995
 30
0.0
 10
515.4239195312512
 20
-450.8833000000013
 30
0.0
 10
510.6661195312518
 20
-446.1255000000001
 30
0.0
 10
504.7969195312508
 20
-446.1255000000001
 30
0.0
 10
498.9278195312509
 20
-446.1255000000001
 30
0.0
 10
494.1700195312515
 20
-450.8833000000013
 30
0.0
 10
494.1700195312515
 20
-456.7528999999995
 30
0.0
 10
494.1700195312515
 20
-462.6225999999988
 30
0.0
 10
498.9278195312509
 20
-467.3804
 30
0.0
 10
504.7969195312508
 20
-467.3804
 30
0.0
 10
510.6661195312518
 20
-467.3804
 30
0.0
 10
515.4239195312512
 20
-462.6225999999988
 30
0.0
 10
515.4239195312512
 20
-456.7528999999995
 30
0.0
  0
SPLINE
  5
C7
330
4F
100
AcDbEntity
  8
Layer 1
370
     0
100
AcDbSpline
210
0.0
220
0.0
230
1.0
 70
    11
 71
     3
 72
    50
 73
    46
 74
     0
 42
0.0000000001
 43
0.0000000001
 12
1.0
 22
0.0
 32
0.0
 13
1.0
 23
0.0
 33
0.0
 40
0.0
 40
0.0
 40
0.0
 40
0.0
 40
1.0
 40
1.0
 40
1.0
 40
2.0
 40
2.0
 40
2.0
 40
3.0
 40
3.0
 40
3.0
 40
4.0
 40
4.0
 40
4.0
 40
5.0
 40
5.0
 40
5.0
 40
6.0
 40
6.0
 40
6.0
 40
7.0
 40
7.0
 40
7.0
 40
8.0
 40
8.0
 40
8.0
 40
9.0
 40
9.0
 40
9.0
 40
10.0
 40
10.0
 40
10.0
 40
11.0
 40
11.0
 40
11.0
 40
12.0
 40
12.0
 40
12.0
 40
13.0
 40
13.0
 40
13.0
 40
14.0
 40
14.0
 40
14.0
 40
15.0
 40
15.0
 40
15.0
 40
15.0
 10
518.1983195312514
 20
-384.6309000000001
 30
0.0
 10
521.6319195312517
 20
-375.9346000000005
 30
0.0
 10
521.4717195312514
 20
-366.4233000000004
 30
0.0
 10
517.7491195312505
 20
-357.8467000000001
 30
0.0
 10
514.0274195312522
 20
-349.2724999999991
 30
0.0
 10
507.1895195312518
 20
-342.6602000000003
 30
0.0
 10
498.492219531252
 20
-339.2279999999992
 30
0.0
 10
498.2871195312509
 20
-339.1470000000008
 30
0.0
 10
498.0791195312522
 20
-339.0800999999992
 30
0.0
 10
497.8741195312505
 20
-339.0033999999996
 30
0.0
 10
500.3477195312516
 20
-326.3827999999994
 30
0.0
 10
501.6563195312519
 20
-313.3451999999997
 30
0.0
 10
501.6563195312519
 20
-300.0
 30
0.0
 10
501.6563195312519
 20
-273.1440000000002
 30
0.0
 10
496.3926195312524
 20
-247.5200000000004
 30
0.0
 10
486.8633195312505
 20
-224.0874000000003
 30
0.0
 10
480.9473195312512
 20
-209.5415000000003
 30
0.0
 10
473.3379195312518
 20
-195.7236000000003
 30
0.0
 10
464.2120195312509
 20
-182.9434000000001
 30
0.0
 10
464.2120195312509
 20
-182.9434000000001
 30
0.0
 10
182.9541195312522
 20
-464.2026000000005
 30
0.0
 10
182.9541195312522
 20
-464.2026000000005
 30
0.0
 10
215.9590195312521
 20
-487.7710000000006
 30
0.0
 10
256.3536195312518
 20
-501.6562999999987
 30
0.0
 10
300.0000195312514
 20
-501.6562999999987
 30
0.0
 10
318.082119531251
 20
-501.6562999999987
 30
0.0
 10
335.6016195312513
 20
-499.2626999999993
 30
0.0
 10
352.276419531252
 20
-494.7988000000005
 30
0.0
 10
360.2002195312507
 20
-500.7407000000003
 30
0.0
 10
371.1534195312524
 20
-504.1807000000008
 30
0.0
 10
385.2832195312512
 20
-498.1548000000003
 30
0.0
 10
401.117219531252
 20
-491.4022999999997
 30
0.0
 10
407.0567195312506
 20
-480.4038
 30
0.0
 10
408.6250195312514
 20
-469.9272000000001
 30
0.0
 10
434.6612195312518
 20
-453.2494999999999
 30
0.0
 10
456.6084195312505
 20
-430.7505000000001
 30
0.0
 10
472.6377195312507
 20
-404.2685999999994
 30
0.0
 10
472.690519531252
 20
-404.2904999999992
 30
0.0
 10
472.7412195312518
 20
-404.3158999999996
 30
0.0
 10
472.7950195312515
 20
-404.3369000000002
 30
0.0
 10
477.7325195312515
 20
-406.2837
 30
0.0
 10
482.9043195312515
 20
-407.0771000000004
 30
0.0
 10
488.1670195312508
 20
-406.6952999999994
 30
0.0
 10
501.5039195312511
 20
-405.7245999999996
 30
0.0
 10
513.2920195312508
 20
-397.0630000000001
 30
0.0
 10
518.1983195312514
 20
-384.6309000000001
 30
0.0
  0
ENDBLK
  5
52
330
4F
100
AcDbEntity
  8
0
100
AcDbBlockEnd
  0
ENDSEC
  0
SECTION
  2
ENTITIES
  0
SPLINE
  5
41
330
1F
100
AcDbEntity
  8
Layer 1
370
     0
100
AcDbSpline
210
0.0
220
0.0
230
1.0
 70
    11
 71
     3
 72
    20
 73
    16
 74
     0
 42
0.0000000001
 43
0.0000000001
 12
1.0
 22
0.0
 32
0.0
 13
1.0
 23
0.0
 33
0.0
 40
0.0
 40
0.0
 40
0.0
 40
0.0
 40
1.0
 40
1.0
 40
1.0
 40
2.0
 40
2.0
 40
2.0
 40
3.0
 40
3.0
 40
3.0
 40
4.0
 40
4.0
 40
4.0
 40
5.0
 40
5.0
 40
5.0
 40
5.0
 10
474.690519531252
 20
-222.3510999999999
 30
0.0
 10
479.9532195312513
 20
-234.4731000000002
 30
0.0
 10
474.3897195312511
 20
-248.5649000000003
 30
0.0
 10
462.2676195312524
 20
-253.8271000000004
 30
0.0
 10
453.3789195312511
 20
-257.6850999999997
 30
0.0
 10
443.4395195312518
 20
-255.7173000000003
 30
0.0
 10
436.6875195312514
 20
-249.6206000000002
 30
0.0
 10
436.6875195312514
 20
-249.6206000000002
 30
0.0
 10
409.4522195312511
 20
-259.4092000000001
 30
0.0
 10
409.4522195312511
 20
-259.4092000000001
 30
0.0
 10
409.4522195312511
 20
-259.4092000000001
 30
0.0
 10
457.6553195312517
 20
-208.4647999999997
 30
0.0
 10
457.6553195312517
 20
-208.4647999999997
 30
0.0
 10
464.9834195312505
 20
-210.0097999999998
 30
0.0
 10
471.480519531251
 20
-214.9565000000002
 30
0.0
 10
474.690519531252
 20
-222.3510999999999
 30
0.0
  0
SPLINE
  5
42
330
1F
100
AcDbEntity
  8
Layer 1
370
     0
100
AcDbSpline
210
0.0
220
0.0
230
1.0
 70
    11
 71
     3
 72
   182
 73
   178
 74
     0
 42
0.0000000001
 43
0.0000000001
 12
1.0
 22
0.0
 32
0.0
 13
1.0
 23
0.0
 33
0.0
 40
0.0
 40
0.0
 40
0.0
 40
0.0
 40
1.0
 40
1.0
 40
1.0
 40
2.0
 40
2.0
 40
2.0
 40
3.0
 40
3.0
 40
3.0
 40
4.0
 40
4.0
 40
4.0
 40
5.0
 40
5.0
 40
5.0
 40
6.0
 40
6.0
 40
6.0
 40
7.0
 40
7.0
 40
7.0
 40
8.0
 40
8.0
 40
8.0
 40
9.0
 40
9.0
 40
9.0
 40
10.0
 40
10.0
 40
10.0
 40
11.0
 40
11.0
 40
11.0
 40
12.0
 40
12.0
 40
12.0
 40
13.0
 40
13.0
 40
13.0
 40
14.0
 40
14.0
 40
14.0
 40
15.0
 40
15.0
 40
15.0
 40
16.0
 40
16.0
 40
16.0
 40
17.0
 40
17.0
 40
17.0
 40
18.0
 40
18.0
 40
18.0
 40
19.0
 40
19.0
 40
19.0
 40
20.0
 40
20.0
 40
20.0
 40
21.0
 40
21.0
 40
21.0
 40
22.0
 40
22.0
 40
22.0
 40
23.0
 40
23.0
 40
23.0
 40
24.0
 40
24.0
 40
24.0
 40
25.0
 40
25.0
 40
25.0
 40
26.0
 40
26.0
 40
26.0
 40
27.0
 40
27.0
 40
27.0
 40
28.0
 40
28.0
 40
28.0
 40
29.0
 40
29.0
 40
29.0
 40
30.0
 40
30.0
 40
30.0
 40
31.0
 40
31.0
 40
31.0
 40
32.0
 40
32.0
 40
32.0
 40
33.0
 40
33.0
 40
33.0
 40
34.0
 40
34.0
 40
34.0
 40
35.0
 40
35.0
 40
35.0
 40
36.0
 40
36.0
 40
36.0
 40
37.0
 40
37.0
 40
37.0
 40
38.0
 40
38.0
 40
38.0
 40
39.0
 40
39.0
 40
39.0
 40
40.0
 40
40.0
 40
40.0
 40
41.0
 40
41.0
 40
41.0
 40
42.0
 40
42.0
 40
42.0
 40
43.0
 40
43.0
 40
43.0
 40
44.0
 40
44.0
 40
44.0
 40
45.0
 40
45.0
 40
45.0
 40
46.0
 40
46.0
 40
46.0
 40
47.0
 40
47.0
 40
47.0
 40
48.0
 40
48.0
 40
48.0
 40
49.0
 40
49.0
 40
49.0
 40
50.0
 40
50.0
 40
50.0
 40
51.0
 40
51.0
 40
51.0
 40
52.0
 40
52.0
 40
52.0
 40
53.0
 40
53.0
 40
53.0
 40
54.0
 40
54.0
 40
54.0
 40
55.0
 40
55.0
 40
55.0
 40
56.0
 40
56.0
 40
56.0
 40
57.0
 40
57.0
 40
57.0
 40
58.0
 40
58.0
 40
58.0
 40
59.0
 40
59.0
 40
59.0
 40
59.0
 10
143.3819195312517
 20
-375.8022000000001
 30
0.0
 10
143.3819195312517
 20
-375.8022000000001
 30
0.0
 10
175.2120195312509
 20
-362.5005000000001
 30
0.0
 10
175.2120195312509
 20
-362.5005000000001
 30
0.0
 10
175.2120195312509
 20
-362.5005000000001
 30
0.0
 10
235.8164195312511
 20
-302.2289999999994
 30
0.0
 10
235.8164195312511
 20
-302.2289999999994
 30
0.0
 10
233.2539195312511
 20
-300.2739000000001
 30
0.0
 10
231.5948195312521
 20
-297.1977999999999
 30
0.0
 10
231.5948195312521
 20
-293.7271000000001
 30
0.0
 10
231.5948195312521
 20
-287.8168999999998
 30
0.0
 10
236.3848195312512
 20
-283.0254000000004
 30
0.0
 10
242.2950195312515
 20
-283.0254000000004
 30
0.0
 10
245.7881195312511
 20
-283.0254000000004
 30
0.0
 10
248.8799195312513
 20
-284.7061000000003
 30
0.0
 10
250.8330195312519
 20
-287.2943999999998
 30
0.0
 10
250.8330195312519
 20
-287.2943999999998
 30
0.0
 10
271.3643195312507
 20
-266.875
 30
0.0
 10
271.3643195312507
 20
-266.875
 30
0.0
 10
265.3360195312507
 20
-264.2709999999997
 30
0.0
 10
261.1143195312507
 20
-258.2758999999996
 30
0.0
 10
261.1143195312507
 20
-251.2910000000002
 30
0.0
 10
261.1143195312507
 20
-241.9165000000003
 30
0.0
 10
268.7129195312518
 20
-234.3163999999997
 30
0.0
 10
278.0879195312518
 20
-234.3163999999997
 30
0.0
 10
285.1065195312513
 20
-234.3163999999997
 30
0.0
 10
291.128019531252
 20
-238.5762000000004
 30
0.0
 10
293.7129195312518
 20
-244.6499000000003
 30
0.0
 10
293.7129195312518
 20
-244.6499000000003
 30
0.0
 10
357.6934195312515
 20
-181.0195000000003
 30
0.0
 10
357.6934195312515
 20
-181.0195000000003
 30
0.0
 10
357.6934195312515
 20
-181.0195000000003
 30
0.0
 10
362.9219195312508
 20
-167.7709999999997
 30
0.0
 10
362.9219195312508
 20
-167.7709999999997
 30
0.0
 10
367.3037195312518
 20
-167.5487999999996
 30
0.0
 10
371.5254195312518
 20
-166.1112999999996
 30
0.0
 10
375.128019531252
 20
-163.6821
 30
0.0
 10
375.128019531252
 20
-163.6821
 30
0.0
 10
381.5205195312519
 20
-157.3227999999999
 30
0.0
 10
381.5205195312519
 20
-157.3227999999999
 30
0.0
 10
382.492219531252
 20
-155.8915999999999
 30
0.0
 10
383.3223195312512
 20
-154.3334999999997
 30
0.0
 10
383.9834195312505
 20
-152.6571999999996
 30
0.0
 10
388.838919531252
 20
-140.3643000000002
 30
0.0
 10
382.804719531252
 20
-126.4668000000001
 30
0.0
 10
370.5108195312514
 20
-121.6171999999997
 30
0.0
 10
358.2198195312521
 20
-116.7646000000004
 30
0.0
 10
344.321319531251
 20
-122.7983000000004
 30
0.0
 10
339.4717195312514
 20
-135.0897999999997
 30
0.0
 10
335.9141195312513
 20
-144.1035000000002
 30
0.0
 10
338.2129195312518
 20
-153.9727000000003
 30
0.0
 10
344.5352195312516
 20
-160.5137000000004
 30
0.0
 10
344.5352195312516
 20
-160.5137000000004
 30
0.0
 10
328.5518195312507
 20
-201.0141999999996
 30
0.0
 10
328.5518195312507
 20
-201.0141999999996
 30
0.0
 10
322.1651195312515
 20
-199.1913999999997
 30
0.0
 10
315.5879195312518
 20
-197.9984999999997
 30
0.0
 10
308.9200195312515
 20
-197.4657999999999
 30
0.0
 10
308.9200195312515
 20
-197.4657999999999
 30
0.0
 10
308.503019531252
 20
-176.2929999999997
 30
0.0
 10
308.503019531252
 20
-176.2929999999997
 30
0.0
 10
313.980519531251
 20
-172.8329999999996
 30
0.0
 10
317.571319531251
 20
-166.6733000000004
 30
0.0
 10
317.4366195312505
 20
-159.7191999999995
 30
0.0
 10
317.2256195312511
 20
-149.1499000000003
 30
0.0
 10
308.4883195312505
 20
-140.7494999999999
 30
0.0
 10
297.9209195312505
 20
-140.9575000000004
 30
0.0
 10
287.3506195312511
 20
-141.1655000000001
 30
0.0
 10
278.9512195312509
 20
-149.9008999999996
 30
0.0
 10
279.1582195312512
 20
-160.4722000000002
 30
0.0
 10
279.2950195312515
 20
-167.4263000000001
 30
0.0
 10
283.1250195312514
 20
-173.4395000000004
 30
0.0
 10
288.7383195312505
 20
-176.6815999999999
 30
0.0
 10
288.7383195312505
 20
-176.6815999999999
 30
0.0
 10
289.1563195312519
 20
-197.8500999999997
 30
0.0
 10
289.1563195312519
 20
-197.8500999999997
 30
0.0
 10
282.8145195312518
 20
-198.6035000000002
 30
0.0
 10
276.4786195312518
 20
-199.9722000000002
 30
0.0
 10
270.2188195312519
 20
-201.9916999999996
 30
0.0
 10
270.2188195312519
 20
-201.9916999999996
 30
0.0
 10
248.6016195312513
 20
-152.8472000000002
 30
0.0
 10
248.6016195312513
 20
-152.8472000000002
 30
0.0
 10
254.7032195312513
 20
-146.0995999999996
 30
0.0
 10
256.6670195312508
 20
-136.1558000000005
 30
0.0
 10
252.8086195312517
 20
-127.2681000000002
 30
0.0
 10
247.5469195312508
 20
-115.1454999999996
 30
0.0
 10
233.4551195312506
 20
-109.585
 30
0.0
 10
221.3350195312523
 20
-114.8456999999999
 30
0.0
 10
209.2120195312509
 20
-120.1073999999999
 30
0.0
 10
203.6504195312518
 20
-134.1992
 30
0.0
 10
208.9112195312518
 20
-146.3217999999997
 30
0.0
 10
212.7676195312524
 20
-155.2089999999998
 30
0.0
 10
221.3731195312521
 20
-160.5640000000003
 30
0.0
 10
230.4698195312521
 20
-160.7178000000004
 30
0.0
 10
230.4698195312521
 20
-160.7178000000004
 30
0.0
 10
252.0879195312518
 20
-209.8617999999997
 30
0.0
 10
252.0879195312518
 20
-209.8617999999997
 30
0.0
 10
246.1661195312518
 20
-213.1489000000001
 30
0.0
 10
240.6895195312518
 20
-216.9687999999996
 30
0.0
 10
235.690519531252
 20
-221.2339000000002
 30
0.0
 10
235.690519531252
 20
-221.2339000000002
 30
0.0
 10
220.4317195312506
 20
-206.5635000000002
 30
0.0
 10
220.4317195312506
 20
-206.5635000000002
 30
0.0
 10
221.8584195312505
 20
-200.2397000000001
 30
0.0
 10
220.0411195312518
 20
-193.3456999999999
 30
0.0
 10
215.0274195312522
 20
-188.5263999999997
 30
0.0
 10
207.4082195312512
 20
-181.1997000000001
 30
0.0
 10
195.2901195312515
 20
-181.4375
 30
0.0
 10
187.9629195312518
 20
-189.0586000000003
 30
0.0
 10
180.6348195312512
 20
-196.6791999999996
 30
0.0
 10
180.8741195312505
 20
-208.7969000000003
 30
0.0
 10
188.4942195312506
 20
-216.1239999999998
 30
0.0
 10
193.5079195312519
 20
-220.9438
 30
0.0
 10
200.4698195312521
 20
-222.4888000000001
 30
0.0
 10
206.7315195312513
 20
-220.8135000000002
 30
0.0
 10
206.7315195312513
 20
-220.8135000000002
 30
0.0
 10
221.992219531252
 20
-235.4883
 30
0.0
 10
221.992219531252
 20
-235.4883
 30
0.0
 10
217.9786195312518
 20
-240.5962
 30
0.0
 10
214.4795195312508
 20
-246.0640000000003
 30
0.0
 10
211.5352195312516
 20
-251.8037000000004
 30
0.0
 10
211.5352195312516
 20
-251.8037000000004
 30
0.0
 10
163.6973195312512
 20
-232.8418000000001
 30
0.0
 10
163.6973195312512
 20
-232.8418000000001
 30
0.0
 10
163.235419531251
 20
-223.7583000000004
 30
0.0
 10
157.5948195312521
 20
-215.3359
 30
0.0
 10
148.5830195312519
 20
-211.7793000000001
 30
0.0
 10
136.2920195312508
 20
-206.9282000000003
 30
0.0
 10
122.3916195312522
 20
-212.9614000000001
 30
0.0
 10
117.5420195312508
 20
-225.2529000000004
 30
0.0
 10
112.690519531252
 20
-237.5464000000002
 30
0.0
 10
118.7246195312509
 20
-251.4429
 30
0.0
 10
131.0147195312511
 20
-256.2938999999997
 30
0.0
 10
140.026419531252
 20
-259.8505999999998
 30
0.0
 10
149.8985195312507
 20
-257.5518000000002
 30
0.0
 10
156.4385195312516
 20
-251.2299999999996
 30
0.0
 10
156.4385195312516
 20
-251.2299999999996
 30
0.0
 10
204.2803195312517
 20
-270.1913999999997
 30
0.0
 10
204.2803195312517
 20
-270.1913999999997
 30
0.0
 10
202.4580195312519
 20
-276.5775999999996
 30
0.0
 10
201.2657195312513
 20
-283.1543000000001
 30
0.0
 10
200.7315195312513
 20
-289.8252000000002
 30
0.0
 10
200.7315195312513
 20
-289.8252000000002
 30
0.0
 10
179.5577195312508
 20
-290.2412000000004
 30
0.0
 10
179.5577195312508
 20
-290.2412000000004
 30
0.0
 10
176.1006195312511
 20
-284.7602999999999
 30
0.0
 10
169.9385195312516
 20
-281.1693999999998
 30
0.0
 10
162.985419531251
 20
-281.3065999999999
 30
0.0
 10
152.4161195312518
 20
-281.5146000000004
 30
0.0
 10
144.0137195312509
 20
-290.2520000000004
 30
0.0
 10
144.2227195312516
 20
-300.8231999999989
 30
0.0
 10
144.4307195312522
 20
-311.3925999999992
 30
0.0
 10
153.1690195312513
 20
-319.7920000000013
 30
0.0
 10
163.7383195312505
 20
-319.5839999999989
 30
0.0
 10
170.6934195312515
 20
-319.4472999999998
 30
0.0
 10
176.707119531251
 20
-315.6186999999991
 30
0.0
 10
179.946319531251
 20
-310.0054
 30
0.0
 10
179.946319531251
 20
-310.0054
 30
0.0
 10
201.1143195312507
 20
-309.5894000000008
 30
0.0
 10
201.1143195312507
 20
-309.5894000000008
 30
0.0
 10
201.8692195312506
 20
-315.9272000000001
 30
0.0
 10
200.0537195312518
 20
-317.3594000000012
 30
0.0
 10
202.0723195312512
 20
-323.6162000000004
 30
0.0
 10
202.0723195312512
 20
-323.6162000000004
 30
0.0
 10
135.5108195312514
 20
-357.6689000000006
 30
0.0
 10
135.5108195312514
 20
-357.6689000000006
 30
0.0
 10
128.7618195312516
 20
-351.5692999999992
 30
0.0
 10
118.8184195312515
 20
-349.6039999999994
 30
0.0
 10
109.9307195312522
 20
-353.4619000000002
 30
0.0
 10
97.80861953125168
 20
-358.7240999999995
 30
0.0
 10
92.24611953125168
 20
-372.8149000000012
 30
0.0
 10
97.5079195312519
 20
-384.9390000000003
 30
0.0
 10
102.7686195312508
 20
-397.0600999999988
 30
0.0
 10
116.8623195312521
 20
-402.6216000000004
 30
0.0
 10
128.985419531251
 20
-397.3603999999996
 30
0.0
 10
137.8731195312521
 20
-393.5024000000012
 30
0.0
 10
143.2256195312511
 20
-384.8960000000006
 30
0.0
 10
143.3819195312517
 20
-375.8022000000001
 30
0.0
  0
SPLINE
  5
43
330
1F
100
AcDbEntity
  8
Layer 1
370
     0
100
AcDbSpline
210
0.0
220
0.0
230
1.0
 70
    11
 71
     3
 72
    20
 73
    16
 74
     0
 42
0.0000000001
 43
0.0000000001
 12
1.0
 22
0.0
 32
0.0
 13
1.0
 23
0.0
 33
0.0
 40
0.0
 40
0.0
 40
0.0
 40
0.0
 40
1.0
 40
1.0
 40
1.0
 40
2.0
 40
2.0
 40
2.0
 40
3.0
 40
3.0
 40
3.0
 40
4.0
 40
4.0
 40
4.0
 40
5.0
 40
5.0
 40
5.0
 40
5.0
 10
266.2793195312515
 20
-404.7969000000012
 30
0.0
 10
266.2793195312515
 20
-404.7969000000012
 30
0.0
 10
216.440519531252
 20
-453.6435999999994
 30
0.0
 10
216.440519531252
 20
-453.6435999999994
 30
0.0
 10
217.1973195312512
 20
-462.4022999999997
 30
0.0
 10
222.7647195312511
 20
-470.4154999999992
 30
0.0
 10
231.4971195312519
 20
-473.8608000000004
 30
0.0
 10
243.7891195312513
 20
-478.7103999999999
 30
0.0
 10
257.6875195312514
 20
-472.6792000000005
 30
0.0
 10
262.5391195312513
 20
-460.387200000001
 30
0.0
 10
266.0948195312521
 20
-451.3744999999999
 30
0.0
 10
263.7950195312515
 20
-441.5028999999995
 30
0.0
 10
257.4727195312516
 20
-434.9638999999988
 30
0.0
 10
257.4727195312516
 20
-434.9638999999988
 30
0.0
 10
266.2793195312515
 20
-404.7969000000012
 30
0.0
 10
266.2793195312515
 20
-404.7969000000012
 30
0.0
  0
SPLINE
  5
44
330
1F
100
AcDbEntity
  8
Layer 1
370
     0
100
AcDbSpline
210
0.0
220
0.0
230
1.0
 70
    11
 71
     3
 72
   128
 73
   124
 74
     0
 42
0.0000000001
 43
0.0000000001
 12
1.0
 22
0.0
 32
0.0
 13
1.0
 23
0.0
 33
0.0
 40
0.0
 40
0.0
 40
0.0
 40
0.0
 40
1.0
 40
1.0
 40
1.0
 40
2.0
 40
2.0
 40
2.0
 40
3.0
 40
3.0
 40
3.0
 40
4.0
 40
4.0
 40
4.0
 40
5.0
 40
5.0
 40
5.0
 40
6.0
 40
6.0
 40
6.0
 40
7.0
 40
7.0
 40
7.0
 40
8.0
 40
8.0
 40
8.0
 40
9.0
 40
9.0
 40
9.0
 40
10.0
 40
10.0
 40
10.0
 40
11.0
 40
11.0
 40
11.0
 40
12.0
 40
12.0
 40
12.0
 40
13.0
 40
13.0
 40
13.0
 40
14.0
 40
14.0
 40
14.0
 40
15.0
 40
15.0
 40
15.0
 40
16.0
 40
16.0
 40
16.0
 40
17.0
 40
17.0
 40
17.0
 40
18.0
 40
18.0
 40
18.0
 40
19.0
 40
19.0
 40
19.0
 40
20.0
 40
20.0
 40
20.0
 40
21.0
 40
21.0
 40
21.0
 40
22.0
 40
22.0
 40
22.0
 40
23.0
 40
23.0
 40
23.0
 40
24.0
 40
24.0
 40
24.0
 40
25.0
 40
25.0
 40
25.0
 40
26.0
 40
26.0
 40
26.0
 40
27.0
 40
27.0
 40
27.0
 40
28.0
 40
28.0
 40
28.0
 40
29.0
 40
29.0
 40
29.0
 40
30.0
 40
30.0
 40
30.0
 40
31.0
 40
31.0
 40
31.0
 40
32.0
 40
32.0
 40
32.0
 40
33.0
 40
33.0
 40
33.0
 40
34.0
 40
34.0
 40
34.0
 40
35.0
 40
35.0
 40
35.0
 40
36.0
 40
36.0
 40
36.0
 40
37.0
 40
37.0
 40
37.0
 40
38.0
 40
38.0
 40
38.0
 40
39.0
 40
39.0
 40
39.0
 40
40.0
 40
40.0
 40
40.0
 40
41.0
 40
41.0
 40
41.0
 40
41.0
 10
494.4287195312518
 20
-349.5249000000003
 30
0.0
 10
485.4170195312508
 20
-345.9687999999987
 30
0.0
 10
475.5450195312515
 20
-348.2675999999992
 30
0.0
 10
469.003019531252
 20
-354.5897999999997
 30
0.0
 10
469.003019531252
 20
-354.5897999999997
 30
0.0
 10
397.7295195312508
 20
-325.2861000000012
 30
0.0
 10
397.7295195312508
 20
-325.2861000000012
 30
0.0
 10
399.5528195312509
 20
-318.9004000000004
 30
0.0
 10
400.7452195312508
 20
-312.3241999999991
 30
0.0
 10
401.2774195312522
 20
-305.6527999999998
 30
0.0
 10
401.2774195312522
 20
-305.6527999999998
 30
0.0
 10
422.4512195312509
 20
-305.2348999999995
 30
0.0
 10
422.4512195312509
 20
-305.2348999999995
 30
0.0
 10
425.9121195312509
 20
-310.7168000000001
 30
0.0
 10
432.0723195312512
 20
-314.3061999999991
 30
0.0
 10
439.0254195312518
 20
-314.1693999999989
 30
0.0
 10
449.5928195312517
 20
-313.9609
 30
0.0
 10
457.9971195312519
 20
-305.2245999999996
 30
0.0
 10
457.7862195312518
 20
-294.6543000000001
 30
0.0
 10
457.5782195312513
 20
-284.0839999999998
 30
0.0
 10
448.8418195312515
 20
-275.6845999999996
 30
0.0
 10
438.2705195312519
 20
-275.8915999999999
 30
0.0
 10
431.3194195312517
 20
-276.0288
 30
0.0
 10
425.3057195312522
 20
-279.8579
 30
0.0
 10
422.0625195312514
 20
-285.4717000000001
 30
0.0
 10
422.0625195312514
 20
-285.4717000000001
 30
0.0
 10
400.8936195312508
 20
-285.8872000000001
 30
0.0
 10
400.8936195312508
 20
-285.8872000000001
 30
0.0
 10
400.2442195312506
 20
-280.4331000000002
 30
0.0
 10
399.110419531251
 20
-274.9823999999999
 30
0.0
 10
397.5284195312524
 20
-269.5801000000001
 30
0.0
 10
397.5284195312524
 20
-269.5801000000001
 30
0.0
 10
346.7246195312509
 20
-321.2183000000005
 30
0.0
 10
346.7246195312509
 20
-321.2183000000005
 30
0.0
 10
351.8252195312507
 20
-324.4966000000004
 30
0.0
 10
355.1924195312513
 20
-330.2260999999999
 30
0.0
 10
355.1377195312507
 20
-336.7373000000007
 30
0.0
 10
355.0498195312521
 20
-346.8251999999993
 30
0.0
 10
346.8008195312505
 20
-354.9321
 30
0.0
 10
336.7149195312522
 20
-354.8441999999995
 30
0.0
 10
330.4248195312521
 20
-354.7900000000009
 30
0.0
 10
324.9053195312517
 20
-351.5609999999997
 30
0.0
 10
321.6621195312509
 20
-346.6923999999999
 30
0.0
 10
321.6621195312509
 20
-346.6923999999999
 30
0.0
 10
274.4190195312513
 20
-394.7129000000004
 30
0.0
 10
274.4190195312513
 20
-394.7129000000004
 30
0.0
 10
280.5039195312511
 20
-396.3856999999989
 30
0.0
 10
286.753019531252
 20
-397.5059000000001
 30
0.0
 10
293.0899195312522
 20
-398.0116999999991
 30
0.0
 10
293.0899195312522
 20
-398.0116999999991
 30
0.0
 10
293.5079195312519
 20
-419.1859999999997
 30
0.0
 10
293.5079195312519
 20
-419.1859999999997
 30
0.0
 10
288.026419531252
 20
-422.6445000000003
 30
0.0
 10
284.4356195312521
 20
-428.8047000000006
 30
0.0
 10
284.5743195312516
 20
-435.7597999999998
 30
0.0
 10
284.7832195312512
 20
-446.3280999999988
 30
0.0
 10
293.5186195312508
 20
-454.7285000000011
 30
0.0
 10
304.0899195312522
 20
-454.5200000000004
 30
0.0
 10
314.6592195312514
 20
-454.3135000000002
 30
0.0
 10
323.0596195312519
 20
-445.5751999999993
 30
0.0
 10
322.8506195312511
 20
-435.0067999999992
 30
0.0
 10
322.7149195312522
 20
-428.0527000000002
 30
0.0
 10
318.8848195312512
 20
-422.0385999999999
 30
0.0
 10
313.2705195312519
 20
-418.795900000001
 30
0.0
 10
313.2705195312519
 20
-418.795900000001
 30
0.0
 10
312.8545195312508
 20
-397.6283999999996
 30
0.0
 10
312.8545195312508
 20
-397.6283999999996
 30
0.0
 10
319.1954195312519
 20
-396.8734999999997
 30
0.0
 10
325.5303195312517
 20
-395.5063000000009
 30
0.0
 10
331.7891195312513
 20
-393.4863000000005
 30
0.0
 10
331.7891195312513
 20
-393.4863000000005
 30
0.0
 10
355.5557195312522
 20
-449.0087999999996
 30
0.0
 10
355.5557195312522
 20
-449.0087999999996
 30
0.0
 10
349.4580195312519
 20
-455.7583000000013
 30
0.0
 10
347.4893195312507
 20
-465.7011999999995
 30
0.0
 10
351.3477195312516
 20
-474.5884000000005
 30
0.0
 10
356.6094195312508
 20
-486.7114000000001
 30
0.0
 10
370.7022195312511
 20
-492.2724999999991
 30
0.0
 10
382.8223195312512
 20
-487.0112000000008
 30
0.0
 10
394.9454195312519
 20
-481.7505000000001
 30
0.0
 10
400.5079195312519
 20
-467.6571999999996
 30
0.0
 10
395.2461195312517
 20
-455.5352000000003
 30
0.0
 10
391.3877195312507
 20
-446.6470000000008
 30
0.0
 10
382.7823195312521
 20
-441.2924999999996
 30
0.0
 10
373.6885195312516
 20
-441.1386999999995
 30
0.0
 10
373.6885195312516
 20
-441.1386999999995
 30
0.0
 10
349.9239195312512
 20
-385.6157000000003
 30
0.0
 10
349.9239195312512
 20
-385.6157000000003
 30
0.0
 10
355.8428195312517
 20
-382.329099999999
 30
0.0
 10
361.3204195312519
 20
-378.5087999999996
 30
0.0
 10
366.3164195312511
 20
-374.2440999999999
 30
0.0
 10
366.3164195312511
 20
-374.2440999999999
 30
0.0
 10
381.5791195312522
 20
-388.9154999999992
 30
0.0
 10
381.5791195312522
 20
-388.9154999999992
 30
0.0
 10
380.1504195312518
 20
-395.2383000000009
 30
0.0
 10
381.9678195312517
 20
-402.1317999999992
 30
0.0
 10
386.9815195312513
 20
-406.9521000000004
 30
0.0
 10
394.6006195312511
 20
-414.2782999999999
 30
0.0
 10
406.7198195312521
 20
-414.0410000000011
 30
0.0
 10
414.047919531251
 20
-406.4199000000008
 30
0.0
 10
421.3741195312505
 20
-398.7983000000004
 30
0.0
 10
421.1358195312514
 20
-386.6807000000008
 30
0.0
 10
413.5137195312509
 20
-379.3539999999994
 30
0.0
 10
408.5010195312516
 20
-374.5331999999999
 30
0.0
 10
401.5401195312515
 20
-372.9883000000009
 30
0.0
 10
395.2784195312524
 20
-374.6650000000009
 30
0.0
 10
395.2784195312524
 20
-374.6650000000009
 30
0.0
 10
380.0166195312522
 20
-359.9897000000001
 30
0.0
 10
380.0166195312522
 20
-359.9897000000001
 30
0.0
 10
384.0332195312512
 20
-354.8817999999992
 30
0.0
 10
387.5303195312517
 20
-349.4141
 30
0.0
 10
390.4737195312518
 20
-343.6738000000005
 30
0.0
 10
390.4737195312518
 20
-343.6738000000005
 30
0.0
 10
461.7481195312521
 20
-372.9766
 30
0.0
 10
461.7481195312521
 20
-372.9766
 30
0.0
 10
462.2100195312523
 20
-382.0625
 30
0.0
 10
467.8496195312509
 20
-390.4828999999991
 30
0.0
 10
476.8614195312512
 20
-394.0391
 30
0.0
 10
489.1543195312515
 20
-398.8911000000007
 30
0.0
 10
503.0518195312507
 20
-392.858400000001
 30
0.0
 10
507.9024195312522
 20
-380.5663999999997
 30
0.0
 10
512.7549195312513
 20
-368.2739000000001
 30
0.0
 10
506.7237195312518
 20
-354.3760000000002
 30
0.0
 10
494.4287195312518
 20
-349.5249000000003
 30
0.0
  0
HATCH
  5
45
330
1F
100
AcDbEntity
  8
Layer 1
 62
   123
420
  6407089
100
AcDbHatch
 10
0.0
 20
0.0
 30
0.0
210
0.0
220
0.0
230
1.0
  2
SOLID
 70
     1
 71
     0
 91
        4
 92
        1
 93
        1
 72
     4
 94
        3
 73
     0
 74
     1
 95
       20
 96
       16
 40
0.0
 40
0.0
 40
0.0
 40
0.0
 40
1.0
 40
1.0
 40
1.0
 40
2.0
 40
2.0
 40
2.0
 40
3.0
 40
3.0
 40
3.0
 40
4.0
 40
4.0
 40
4.0
 40
5.0
 40
5.0
 40
5.0
 40
5.0
 10
474.690519531252
 20
-222.3510999999999
 10
479.9532195312513
 20
-234.4731000000002
 10
474.3897195312511
 20
-248.5649000000003
 10
462.2676195312524
 20
-253.8271000000004
 10
453.3789195312511
 20
-257.6850999999997
 10
443.4395195312518
 20
-255.7173000000003
 10
436.6875195312514
 20
-249.6206000000002
 10
436.6875195312514
 20
-249.6206000000002
 10
409.4522195312511
 20
-259.4092000000001
 10
409.4522195312511
 20
-259.4092000000001
 10
409.4522195312511
 20
-259.4092000000001
 10
457.6553195312517
 20
-208.4647999999997
 10
457.6553195312517
 20
-208.4647999999997
 10
464.9834195312505
 20
-210.0097999999998
 10
471.480519531251
 20
-214.9565000000002
 10
474.690519531252
 20
-222.3510999999999
 97
        0
 97
        0
 92
        1
 93
        1
 72
     4
 94
        3
 73
     0
 74
     1
 95
      182
 96
      178
 40
0.0
 40
0.0
 40
0.0
 40
0.0
 40
1.0
 40
1.0
 40
1.0
 40
2.0
 40
2.0
 40
2.0
 40
3.0
 40
3.0
 40
3.0
 40
4.0
 40
4.0
 40
4.0
 40
5.0
 40
5.0
 40
5.0
 40
6.0
 40
6.0
 40
6.0
 40
7.0
 40
7.0
 40
7.0
 40
8.0
 40
8.0
 40
8.0
 40
9.0
 40
9.0
 40
9.0
 40
10.0
 40
10.0
 40
10.0
 40
11.0
 40
11.0
 40
11.0
 40
12.0
 40
12.0
 40
12.0
 40
13.0
 40
13.0
 40
13.0
 40
14.0
 40
14.0
 40
14.0
 40
15.0
 40
15.0
 40
15.0
 40
16.0
 40
16.0
 40
16.0
 40
17.0
 40
17.0
 40
17.0
 40
18.0
 40
18.0
 40
18.0
 40
19.0
 40
19.0
 40
19.0
 40
20.0
 40
20.0
 40
20.0
 40
21.0
 40
21.0
 40
21.0
 40
22.0
 40
22.0
 40
22.0
 40
23.0
 40
23.0
 40
23.0
 40
24.0
 40
24.0
 40
24.0
 40
25.0
 40
25.0
 40
25.0
 40
26.0
 40
26.0
 40
26.0
 40
27.0
 40
27.0
 40
27.0
 40
28.0
 40
28.0
 40
28.0
 40
29.0
 40
29.0
 40
29.0
 40
30.0
 40
30.0
 40
30.0
 40
31.0
 40
31.0
 40
31.0
 40
32.0
 40
32.0
 40
32.0
 40
33.0
 40
33.0
 40
33.0
 40
34.0
 40
34.0
 40
34.0
 40
35.0
 40
35.0
 40
35.0
 40
36.0
 40
36.0
 40
36.0
 40
37.0
 40
37.0
 40
37.0
 40
38.0
 40
38.0
 40
38.0
 40
39.0
 40
39.0
 40
39.0
 40
40.0
 40
40.0
 40
40.0
 40
41.0
 40
41.0
 40
41.0
 40
42.0
 40
42.0
 40
42.0
 40
43.0
 40
43.0
 40
43.0
 40
44.0
 40
44.0
 40
44.0
 40
45.0
 40
45.0
 40
45.0
 40
46.0
 40
46.0
 40
46.0
 40
47.0
 40
47.0
 40
47.0
 40
48.0
 40
48.0
 40
48.0
 40
49.0
 40
49.0
 40
49.0
 40
50.0
 40
50.0
 40
50.0
 40
51.0
 40
51.0
 40
51.0
 40
52.0
 40
52.0
 40
52.0
 40
53.0
 40
53.0
 40
53.0
 40
54.0
 40
54.0
 40
54.0
 40
55.0
 40
55.0
 40
55.0
 40
56.0
 40
56.0
 40
56.0
 40
57.0
 40
57.0
 40
57.0
 40
58.0
 40
58.0
 40
58.0
 40
59.0
 40
59.0
 40
59.0
 40
59.0
 10
143.3819195312517
 20
-375.8022000000001
 10
143.3819195312517
 20
-375.8022000000001
 10
175.2120195312509
 20
-362.5005000000001
 10
175.2120195312509
 20
-362.5005000000001
 10
175.2120195312509
 20
-362.5005000000001
 10
235.8164195312511
 20
-302.2289999999994
 10
235.8164195312511
 20
-302.2289999999994
 10
233.2539195312511
 20
-300.2739000000001
 10
231.5948195312521
 20
-297.1977999999999
 10
231.5948195312521
 20
-293.7271000000001
 10
231.5948195312521
 20
-287.8168999999998
 10
236.3848195312512
 20
-283.0254000000004
 10
242.2950195312515
 20
-283.0254000000004
 10
245.7881195312511
 20
-283.0254000000004
 10
248.8799195312513
 20
-284.7061000000003
 10
250.8330195312519
 20
-287.2943999999998
 10
250.8330195312519
 20
-287.2943999999998
 10
271.3643195312507
 20
-266.875
 10
271.3643195312507
 20
-266.875
 10
265.3360195312507
 20
-264.2709999999997
 10
261.1143195312507
 20
-258.2758999999996
 10
261.1143195312507
 20
-251.2910000000002
 10
261.1143195312507
 20
-241.9165000000003
 10
268.7129195312518
 20
-234.3163999999997
 10
278.0879195312518
 20
-234.3163999999997
 10
285.1065195312513
 20
-234.3163999999997
 10
291.128019531252
 20
-238.5762000000004
 10
293.7129195312518
 20
-244.6499000000003
 10
293.7129195312518
 20
-244.6499000000003
 10
357.6934195312515
 20
-181.0195000000003
 10
357.6934195312515
 20
-181.0195000000003
 10
357.6934195312515
 20
-181.0195000000003
 10
362.9219195312508
 20
-167.7709999999997
 10
362.9219195312508
 20
-167.7709999999997
 10
367.3037195312518
 20
-167.5487999999996
 10
371.5254195312518
 20
-166.1112999999996
 10
375.128019531252
 20
-163.6821
 10
375.128019531252
 20
-163.6821
 10
381.5205195312519
 20
-157.3227999999999
 10
381.5205195312519
 20
-157.3227999999999
 10
382.492219531252
 20
-155.8915999999999
 10
383.3223195312512
 20
-154.3334999999997
 10
383.9834195312505
 20
-152.6571999999996
 10
388.838919531252
 20
-140.3643000000002
 10
382.804719531252
 20
-126.4668000000001
 10
370.5108195312514
 20
-121.6171999999997
 10
358.2198195312521
 20
-116.7646000000004
 10
344.321319531251
 20
-122.7983000000004
 10
339.4717195312514
 20
-135.0897999999997
 10
335.9141195312513
 20
-144.1035000000002
 10
338.2129195312518
 20
-153.9727000000003
 10
344.5352195312516
 20
-160.5137000000004
 10
344.5352195312516
 20
-160.5137000000004
 10
328.5518195312507
 20
-201.0141999999996
 10
328.5518195312507
 20
-201.0141999999996
 10
322.1651195312515
 20
-199.1913999999997
 10
315.5879195312518
 20
-197.9984999999997
 10
308.9200195312515
 20
-197.4657999999999
 10
308.9200195312515
 20
-197.4657999999999
 10
308.503019531252
 20
-176.2929999999997
 10
308.503019531252
 20
-176.2929999999997
 10
313.980519531251
 20
-172.8329999999996
 10
317.571319531251
 20
-166.6733000000004
 10
317.4366195312505
 20
-159.7191999999995
 10
317.2256195312511
 20
-149.1499000000003
 10
308.4883195312505
 20
-140.7494999999999
 10
297.9209195312505
 20
-140.9575000000004
 10
287.3506195312511
 20
-141.1655000000001
 10
278.9512195312509
 20
-149.9008999999996
 10
279.1582195312512
 20
-160.4722000000002
 10
279.2950195312515
 20
-167.4263000000001
 10
283.1250195312514
 20
-173.4395000000004
 10
288.7383195312505
 20
-176.6815999999999
 10
288.7383195312505
 20
-176.6815999999999
 10
289.1563195312519
 20
-197.8500999999997
 10
289.1563195312519
 20
-197.8500999999997
 10
282.8145195312518
 20
-198.6035000000002
 10
276.4786195312518
 20
-199.9722000000002
 10
270.2188195312519
 20
-201.9916999999996
 10
270.2188195312519
 20
-201.9916999999996
 10
248.6016195312513
 20
-152.8472000000002
 10
248.6016195312513
 20
-152.8472000000002
 10
254.7032195312513
 20
-146.0995999999996
 10
256.6670195312508
 20
-136.1558000000005
 10
252.8086195312517
 20
-127.2681000000002
 10
247.5469195312508
 20
-115.1454999999996
 10
233.4551195312506
 20
-109.585
 10
221.3350195312523
 20
-114.8456999999999
 10
209.2120195312509
 20
-120.1073999999999
 10
203.6504195312518
 20
-134.1992
 10
208.9112195312518
 20
-146.3217999999997
 10
212.7676195312524
 20
-155.2089999999998
 10
221.3731195312521
 20
-160.5640000000003
 10
230.4698195312521
 20
-160.7178000000004
 10
230.4698195312521
 20
-160.7178000000004
 10
252.0879195312518
 20
-209.8617999999997
 10
252.0879195312518
 20
-209.8617999999997
 10
246.1661195312518
 20
-213.1489000000001
 10
240.6895195312518
 20
-216.9687999999996
 10
235.690519531252
 20
-221.2339000000002
 10
235.690519531252
 20
-221.2339000000002
 10
220.4317195312506
 20
-206.5635000000002
 10
220.4317195312506
 20
-206.5635000000002
 10
221.8584195312505
 20
-200.2397000000001
 10
220.0411195312518
 20
-193.3456999999999
 10
215.0274195312522
 20
-188.5263999999997
 10
207.4082195312512
 20
-181.1997000000001
 10
195.2901195312515
 20
-181.4375
 10
187.9629195312518
 20
-189.0586000000003
 10
180.6348195312512
 20
-196.6791999999996
 10
180.8741195312505
 20
-208.7969000000003
 10
188.4942195312506
 20
-216.1239999999998
 10
193.5079195312519
 20
-220.9438
 10
200.4698195312521
 20
-222.4888000000001
 10
206.7315195312513
 20
-220.8135000000002
 10
206.7315195312513
 20
-220.8135000000002
 10
221.992219531252
 20
-235.4883
 10
221.992219531252
 20
-235.4883
 10
217.9786195312518
 20
-240.5962
 10
214.4795195312508
 20
-246.0640000000003
 10
211.5352195312516
 20
-251.8037000000004
 10
211.5352195312516
 20
-251.8037000000004
 10
163.6973195312512
 20
-232.8418000000001
 10
163.6973195312512
 20
-232.8418000000001
 10
163.235419531251
 20
-223.7583000000004
 10
157.5948195312521
 20
-215.3359
 10
148.5830195312519
 20
-211.7793000000001
 10
136.2920195312508
 20
-206.9282000000003
 10
122.3916195312522
 20
-212.9614000000001
 10
117.5420195312508
 20
-225.2529000000004
 10
112.690519531252
 20
-237.5464000000002
 10
118.7246195312509
 20
-251.4429
 10
131.0147195312511
 20
-256.2938999999997
 10
140.026419531252
 20
-259.8505999999998
 10
149.8985195312507
 20
-257.5518000000002
 10
156.4385195312516
 20
-251.2299999999996
 10
156.4385195312516
 20
-251.2299999999996
 10
204.2803195312517
 20
-270.1913999999997
 10
204.2803195312517
 20
-270.1913999999997
 10
202.4580195312519
 20
-276.5775999999996
 10
201.2657195312513
 20
-283.1543000000001
 10
200.7315195312513
 20
-289.8252000000002
 10
200.7315195312513
 20
-289.8252000000002
 10
179.5577195312508
 20
-290.2412000000004
 10
179.5577195312508
 20
-290.2412000000004
 10
176.1006195312511
 20
-284.7602999999999
 10
169.9385195312516
 20
-281.1693999999998
 10
162.985419531251
 20
-281.3065999999999
 10
152.4161195312518
 20
-281.5146000000004
 10
144.0137195312509
 20
-290.2520000000004
 10
144.2227195312516
 20
-300.8231999999989
 10
144.4307195312522
 20
-311.3925999999992
 10
153.1690195312513
 20
-319.7920000000013
 10
163.7383195312505
 20
-319.5839999999989
 10
170.6934195312515
 20
-319.4472999999998
 10
176.707119531251
 20
-315.6186999999991
 10
179.946319531251
 20
-310.0054
 10
179.946319531251
 20
-310.0054
 10
201.1143195312507
 20
-309.5894000000008
 10
201.1143195312507
 20
-309.5894000000008
 10
201.8692195312506
 20
-315.9272000000001
 10
200.0537195312518
 20
-317.3594000000012
 10
202.0723195312512
 20
-323.6162000000004
 10
202.0723195312512
 20
-323.6162000000004
 10
135.5108195312514
 20
-357.6689000000006
 10
135.5108195312514
 20
-357.6689000000006
 10
128.7618195312516
 20
-351.5692999999992
 10
118.8184195312515
 20
-349.6039999999994
 10
109.9307195312522
 20
-353.4619000000002
 10
97.80861953125168
 20
-358.7240999999995
 10
92.24611953125168
 20
-372.8149000000012
 10
97.5079195312519
 20
-384.9390000000003
 10
102.7686195312508
 20
-397.0600999999988
 10
116.8623195312521
 20
-402.6216000000004
 10
128.985419531251
 20
-397.3603999999996
 10
137.8731195312521
 20
-393.5024000000012
 10
143.2256195312511
 20
-384.8960000000006
 10
143.3819195312517
 20
-375.8022000000001
 97
        0
 97
        0
 92
        1
 93
        1
 72
     4
 94
        3
 73
     0
 74
     1
 95
       20
 96
       16
 40
0.0
 40
0.0
 40
0.0
 40
0.0
 40
1.0
 40
1.0
 40
1.0
 40
2.0
 40
2.0
 40
2.0
 40
3.0
 40
3.0
 40
3.0
 40
4.0
 40
4.0
 40
4.0
 40
5.0
 40
5.0
 40
5.0
 40
5.0
 10
266.2793195312515
 20
-404.7969000000012
 10
266.2793195312515
 20
-404.7969000000012
 10
216.440519531252
 20
-453.6435999999994
 10
216.440519531252
 20
-453.6435999999994
 10
217.1973195312512
 20
-462.4022999999997
 10
222.7647195312511
 20
-470.4154999999992
 10
231.4971195312519
 20
-473.8608000000004
 10
243.7891195312513
 20
-478.7103999999999
 10
257.6875195312514
 20
-472.6792000000005
 10
262.5391195312513
 20
-460.387200000001
 10
266.0948195312521
 20
-451.3744999999999
 10
263.7950195312515
 20
-441.5028999999995
 10
257.4727195312516
 20
-434.9638999999988
 10
257.4727195312516
 20
-434.9638999999988
 10
266.2793195312515
 20
-404.7969000000012
 10
266.2793195312515
 20
-404.7969000000012
 97
        0
 97
        0
 92
        1
 93
        1
 72
     4
 94
        3
 73
     0
 74
     1
 95
      128
 96
      124
 40
0.0
 40
0.0
 40
0.0
 40
0.0
 40
1.0
 40
1.0
 40
1.0
 40
2.0
 40
2.0
 40
2.0
 40
3.0
 40
3.0
 40
3.0
 40
4.0
 40
4.0
 40
4.0
 40
5.0
 40
5.0
 40
5.0
 40
6.0
 40
6.0
 40
6.0
 40
7.0
 40
7.0
 40
7.0
 40
8.0
 40
8.0
 40
8.0
 40
9.0
 40
9.0
 40
9.0
 40
10.0
 40
10.0
 40
10.0
 40
11.0
 40
11.0
 40
11.0
 40
12.0
 40
12.0
 40
12.0
 40
13.0
 40
13.0
 40
13.0
 40
14.0
 40
14.0
 40
14.0
 40
15.0
 40
15.0
 40
15.0
 40
16.0
 40
16.0
 40
16.0
 40
17.0
 40
17.0
 40
17.0
 40
18.0
 40
18.0
 40
18.0
 40
19.0
 40
19.0
 40
19.0
 40
20.0
 40
20.0
 40
20.0
 40
21.0
 40
21.0
 40
21.0
 40
22.0
 40
22.0
 40
22.0
 40
23.0
 40
23.0
 40
23.0
 40
24.0
 40
24.0
 40
24.0
 40
25.0
 40
25.0
 40
25.0
 40
26.0
 40
26.0
 40
26.0
 40
27.0
 40
27.0
 40
27.0
 40
28.0
 40
28.0
 40
28.0
 40
29.0
 40
29.0
 40
29.0
 40
30.0
 40
30.0
 40
30.0
 40
31.0
 40
31.0
 40
31.0
 40
32.0
 40
32.0
 40
32.0
 40
33.0
 40
33.0
 40
33.0
 40
34.0
 40
34.0
 40
34.0
 40
35.0
 40
35.0
 40
35.0
 40
36.0
 40
36.0
 40
36.0
 40
37.0
 40
37.0
 40
37.0
 40
38.0
 40
38.0
 40
38.0
 40
39.0
 40
39.0
 40
39.0
 40
40.0
 40
40.0
 40
40.0
 40
41.0
 40
41.0
 40
41.0
 40
41.0
 10
494.4287195312518
 20
-349.5249000000003
 10
485.4170195312508
 20
-345.9687999999987
 10
475.5450195312515
 20
-348.2675999999992
 10
469.003019531252
 20
-354.5897999999997
 10
469.003019531252
 20
-354.5897999999997
 10
397.7295195312508
 20
-325.2861000000012
 10
397.7295195312508
 20
-325.2861000000012
 10
399.5528195312509
 20
-318.9004000000004
 10
400.7452195312508
 20
-312.3241999999991
 10
401.2774195312522
 20
-305.6527999999998
 10
401.2774195312522
 20
-305.6527999999998
 10
422.4512195312509
 20
-305.2348999999995
 10
422.4512195312509
 20
-305.2348999999995
 10
425.9121195312509
 20
-310.7168000000001
 10
432.0723195312512
 20
-314.3061999999991
 10
439.0254195312518
 20
-314.1693999999989
 10
449.5928195312517
 20
-313.9609
 10
457.9971195312519
 20
-305.2245999999996
 10
457.7862195312518
 20
-294.6543000000001
 10
457.5782195312513
 20
-284.0839999999998
 10
448.8418195312515
 20
-275.6845999999996
 10
438.2705195312519
 20
-275.8915999999999
 10
431.3194195312517
 20
-276.0288
 10
425.3057195312522
 20
-279.8579
 10
422.0625195312514
 20
-285.4717000000001
 10
422.0625195312514
 20
-285.4717000000001
 10
400.8936195312508
 20
-285.8872000000001
 10
400.8936195312508
 20
-285.8872000000001
 10
400.2442195312506
 20
-280.4331000000002
 10
399.110419531251
 20
-274.9823999999999
 10
397.5284195312524
 20
-269.5801000000001
 10
397.5284195312524
 20
-269.5801000000001
 10
346.7246195312509
 20
-321.2183000000005
 10
346.7246195312509
 20
-321.2183000000005
 10
351.8252195312507
 20
-324.4966000000004
 10
355.1924195312513
 20
-330.2260999999999
 10
355.1377195312507
 20
-336.7373000000007
 10
355.0498195312521
 20
-346.8251999999993
 10
346.8008195312505
 20
-354.9321
 10
336.7149195312522
 20
-354.8441999999995
 10
330.4248195312521
 20
-354.7900000000009
 10
324.9053195312517
 20
-351.5609999999997
 10
321.6621195312509
 20
-346.6923999999999
 10
321.6621195312509
 20
-346.6923999999999
 10
274.4190195312513
 20
-394.7129000000004
 10
274.4190195312513
 20
-394.7129000000004
 10
280.5039195312511
 20
-396.3856999999989
 10
286.753019531252
 20
-397.5059000000001
 10
293.0899195312522
 20
-398.0116999999991
 10
293.0899195312522
 20
-398.0116999999991
 10
293.5079195312519
 20
-419.1859999999997
 10
293.5079195312519
 20
-419.1859999999997
 10
288.026419531252
 20
-422.6445000000003
 10
284.4356195312521
 20
-428.8047000000006
 10
284.5743195312516
 20
-435.7597999999998
 10
284.7832195312512
 20
-446.3280999999988
 10
293.5186195312508
 20
-454.7285000000011
 10
304.0899195312522
 20
-454.5200000000004
 10
314.6592195312514
 20
-454.3135000000002
 10
323.0596195312519
 20
-445.5751999999993
 10
322.8506195312511
 20
-435.0067999999992
 10
322.7149195312522
 20
-428.0527000000002
 10
318.8848195312512
 20
-422.0385999999999
 10
313.2705195312519
 20
-418.795900000001
 10
313.2705195312519
 20
-418.795900000001
 10
312.8545195312508
 20
-397.6283999999996
 10
312.8545195312508
 20
-397.6283999999996
 10
319.1954195312519
 20
-396.8734999999997
 10
325.5303195312517
 20
-395.5063000000009
 10
331.7891195312513
 20
-393.4863000000005
 10
331.7891195312513
 20
-393.4863000000005
 10
355.5557195312522
 20
-449.0087999999996
 10
355.5557195312522
 20
-449.0087999999996
 10
349.4580195312519
 20
-455.7583000000013
 10
347.4893195312507
 20
-465.7011999999995
 10
351.3477195312516
 20
-474.5884000000005
 10
356.6094195312508
 20
-486.7114000000001
 10
370.7022195312511
 20
-492.2724999999991
 10
382.8223195312512
 20
-487.0112000000008
 10
394.9454195312519
 20
-481.7505000000001
 10
400.5079195312519
 20
-467.6571999999996
 10
395.2461195312517
 20
-455.5352000000003
 10
391.3877195312507
 20
-446.6470000000008
 10
382.7823195312521
 20
-441.2924999999996
 10
373.6885195312516
 20
-441.1386999999995
 10
373.6885195312516
 20
-441.1386999999995
 10
349.9239195312512
 20
-385.6157000000003
 10
349.9239195312512
 20
-385.6157000000003
 10
355.8428195312517
 20
-382.329099999999
 10
361.3204195312519
 20
-378.5087999999996
 10
366.3164195312511
 20
-374.2440999999999
 10
366.3164195312511
 20
-374.2440999999999
 10
381.5791195312522
 20
-388.9154999999992
 10
381.5791195312522
 20
-388.9154999999992
 10
380.1504195312518
 20
-395.2383000000009
 10
381.9678195312517
 20
-402.1317999999992
 10
386.9815195312513
 20
-406.9521000000004
 10
394.6006195312511
 20
-414.2782999999999
 10
406.7198195312521
 20
-414.0410000000011
 10
414.047919531251
 20
-406.4199000000008
 10
421.3741195312505
 20
-398.7983000000004
 10
421.1358195312514
 20
-386.6807000000008
 10
413.5137195312509
 20
-379.3539999999994
 10
408.5010195312516
 20
-374.5331999999999
 10
401.5401195312515
 20
-372.9883000000009
 10
395.2784195312524
 20
-374.6650000000009
 10
395.2784195312524
 20
-374.6650000000009
 10
380.0166195312522
 20
-359.9897000000001
 10
380.0166195312522
 20
-359.9897000000001
 10
384.0332195312512
 20
-354.8817999999992
 10
387.5303195312517
 20
-349.4141
 10
390.4737195312518
 20
-343.6738000000005
 10
390.4737195312518
 20
-343.6738000000005
 10
461.7481195312521
 20
-372.9766
 10
461.7481195312521
 20
-372.9766
 10
462.2100195312523
 20
-382.0625
 10
467.8496195312509
 20
-390.4828999999991
 10
476.8614195312512
 20
-394.0391
 10
489.1543195312515
 20
-398.8911000000007
 10
503.0518195312507
 20
-392.858400000001
 10
507.9024195312522
 20
-380.5663999999997
 10
512.7549195312513
 20
-368.2739000000001
 10
506.7237195312518
 20
-354.3760000000002
 10
494.4287195312518
 20
-349.5249000000003
 97
        0
 97
        0
 75
     2
 76
     1
 98
        0
  0
SPLINE
  5
46
330
1F
100
AcDbEntity
  8
Layer 1
370
     0
100
AcDbSpline
210
0.0
220
0.0
230
1.0
 70
    11
 71
     3
 72
    32
 73
    28
 74
     0
 42
0.0000000001
 43
0.0000000001
 12
1.0
 22
0.0
 32
0.0
 13
1.0
 23
0.0
 33
0.0
 40
0.0
 40
0.0
 40
0.0
 40
0.0
 40
1.0
 40
1.0
 40
1.0
 40
2.0
 40
2.0
 40
2.0
 40
3.0
 40
3.0
 40
3.0
 40
4.0
 40
4.0
 40
4.0
 40
5.0
 40
5.0
 40
5.0
 40
6.0
 40
6.0
 40
6.0
 40
7.0
 40
7.0
 40
7.0
 40
8.0
 40
8.0
 40
8.0
 40
9.0
 40
9.0
 40
9.0
 40
9.0
 10
303.4004195312518
 20
-68.26559999999972
 30
0.0
 10
302.6045195312508
 20
-68.60990000000038
 30
0.0
 10
301.7735195312507
 20
-68.77490000000034
 30
0.0
 10
300.9063195312519
 20
-68.76029999999992
 30
0.0
 10
300.9063195312519
 20
-68.76029999999992
 30
0.0
 10
301.1192195312506
 20
-55.67479999999978
 30
0.0
 10
301.1192195312506
 20
-55.67479999999978
 30
0.0
 10
301.9864195312512
 20
-55.6885000000002
 30
0.0
 10
302.8116195312505
 20
-55.88090000000011
 30
0.0
 10
303.5977195312516
 20
-56.2510000000002
 30
0.0
 10
304.3809195312515
 20
-56.62060000000019
 30
0.0
 10
305.0606195312521
 20
-57.10400000000027
 30
0.0
 10
305.6407195312513
 20
-57.69970000000012
 30
0.0
 10
306.2178195312517
 20
-58.29640000000018
 30
0.0
 10
306.6787195312518
 20
-58.99219999999968
 30
0.0
 10
307.0235195312507
 20
-59.78960000000006
 30
0.0
 10
307.3653195312509
 20
-60.58590000000004
 30
0.0
 10
307.5323195312521
 20
-61.41749999999956
 30
0.0
 10
307.5166195312522
 20
-62.28420000000006
 30
0.0
 10
307.503019531252
 20
-63.15279999999984
 30
0.0
 10
307.3096195312519
 20
-63.97900000000027
 30
0.0
 10
306.9424195312513
 20
-64.76370000000043
 30
0.0
 10
306.5723195312512
 20
-65.54879999999957
 30
0.0
 10
306.088919531252
 20
-66.24169999999958
 30
0.0
 10
305.492219531252
 20
-66.84419999999955
 30
0.0
 10
304.8926195312524
 20
-67.44819999999982
 30
0.0
 10
304.1973195312512
 20
-67.92190000000028
 30
0.0
 10
303.4004195312518
 20
-68.26559999999972
 30
0.0
  0
SPLINE
  5
47
330
1F
100
AcDbEntity
  8
Layer 1
370
     0
100
AcDbSpline
210
0.0
220
0.0
230
1.0
 70
    11
 71
     3
 72
    32
 73
    28
 74
     0
 42
0.0000000001
 43
0.0000000001
 12
1.0
 22
0.0
 32
0.0
 13
1.0
 23
0.0
 33
0.0
 40
0.0
 40
0.0
 40
0.0
 40
0.0
 40
1.0
 40
1.0
 40
1.0
 40
2.0
 40
2.0
 40
2.0
 40
3.0
 40
3.0
 40
3.0
 40
4.0
 40
4.0
 40
4.0
 40
5.0
 40
5.0
 40
5.0
 40
6.0
 40
6.0
 40
6.0
 40
7.0
 40
7.0
 40
7.0
 40
8.0
 40
8.0
 40
8.0
 40
9.0
 40
9.0
 40
9.0
 40
9.0
 10
305.8770195312518
 20
-41.09860000000026
 30
0.0
 10
306.4737195312518
 20
-40.49560000000019
 30
0.0
 10
306.957119531251
 20
-39.80180000000018
 30
0.0
 10
307.3272195312511
 20
-39.01659999999993
 30
0.0
 10
307.6944195312517
 20
-38.23139999999967
 30
0.0
 10
307.8877195312507
 20
-37.40580000000045
 30
0.0
 10
307.901419531252
 20
-36.53809999999976
 30
0.0
 10
307.9170195312508
 20
-35.67140000000018
 30
0.0
 10
307.7500195312514
 20
-34.83979999999974
 30
0.0
 10
307.4082195312512
 20
-34.04200000000037
 30
0.0
 10
307.0635195312516
 20
-33.2461000000003
 30
0.0
 10
306.6026195312515
 20
-32.54929999999968
 30
0.0
 10
306.0254195312518
 20
-31.95309999999972
 30
0.0
 10
305.4483195312514
 20
-31.35739999999987
 30
0.0
 10
304.7657195312513
 20
-30.8739999999998
 30
0.0
 10
303.9825195312515
 20
-30.5033999999996
 30
0.0
 10
303.196319531251
 20
-30.13479999999981
 30
0.0
 10
302.3711195312517
 20
-29.9413999999997
 30
0.0
 10
301.5039195312511
 20
-29.92770000000019
 30
0.0
 10
301.5039195312511
 20
-29.92770000000019
 30
0.0
 10
301.2911195312518
 20
-43.01370000000043
 30
0.0
 10
301.2911195312518
 20
-43.01370000000043
 30
0.0
 10
302.1582195312512
 20
-43.02779999999984
 30
0.0
 10
302.9893195312507
 20
-42.86329999999998
 30
0.0
 10
303.7852195312516
 20
-42.51860000000033
 30
0.0
 10
304.582119531251
 20
-42.17529999999988
 30
0.0
 10
305.2813195312519
 20
-41.70120000000043
 30
0.0
 10
305.8770195312518
 20
-41.09860000000026
 30
0.0
  0
POLYLINE
  5
48
330
1F
100
AcDbEntity
  8
Layer 1
370
     0
100
AcDb2dPolyline
 66
     1
 10
0.0
 20
0.0
 30
0.0
  0
VERTEX
  5
49
330
48
100
AcDbEntity
  8
Layer 1
370
     0
100
AcDbVertex
100
AcDb2dVertex
 10
402.4278195312509
 20
-57.48139999999967
 30
0.0
  0
VERTEX
  5
4A
330
48
100
AcDbEntity
  8
Layer 1
370
     0
100
AcDbVertex
100
AcDb2dVertex
 10
388.8731195312521
 20
-77.66700000000037
 30
0.0
  0
VERTEX
  5
4B
330
48
100
AcDbEntity
  8
Layer 1
370
     0
100
AcDbVertex
100
AcDb2dVertex
 10
397.8731195312521
 20
-81.66700000000037
 30
0.0
  0
VERTEX
  5
4C
330
48
100
AcDbEntity
  8
Layer 1
370
     0
100
AcDbVertex
100
AcDb2dVertex
 10
402.4278195312509
 20
-57.48139999999967
 30
0.0
  0
SEQEND
  5
4D
330
48
100
AcDbEntity
  8
Layer 1
370
     0
  0
SPLINE
  5
4E
330
1F
100
AcDbEntity
  8
Layer 1
370
     0
100
AcDbSpline
210
0.0
220
0.0
230
1.0
 70
    11
 71
     3
 72
    53
 73
    49
 74
     0
 42
0.0000000001
 43
0.0000000001
 12
1.0
 22
0.0
 32
0.0
 13
1.0
 23
0.0
 33
0.0
 40
0.0
 40
0.0
 40
0.0
 40
0.0
 40
1.0
 40
1.0
 40
1.0
 40
2.0
 40
2.0
 40
2.0
 40
3.0
 40
3.0
 40
3.0
 40
4.0
 40
4.0
 40
4.0
 40
5.0
 40
5.0
 40
5.0
 40
6.0
 40
6.0
 40
6.0
 40
7.0
 40
7.0
 40
7.0
 40
8.0
 40
8.0
 40
8.0
 40
9.0
 40
9.0
 40
9.0
 40
10.0
 40
10.0
 40
10.0
 40
11.0
 40
11.0
 40
11.0
 40
12.0
 40
12.0
 40
12.0
 40
13.0
 40
13.0
 40
13.0
 40
14.0
 40
14.0
 40
14.0
 40
15.0
 40
15.0
 40
15.0
 40
16.0
 40
16.0
 40
16.0
 40
16.0
 10
460.4981195312521
 20
-485.3798999999999
 30
0.0
 10
459.9971195312519
 20
-484.7949000000008
 30
0.0
 10
459.3985195312507
 20
-484.3394000000008
 30
0.0
 10
458.7002195312507
 20
-484.0112000000008
 30
0.0
 10
458.0039195312511
 20
-483.6836000000003
 30
0.0
 10
457.2862195312518
 20
-483.4922000000006
 30
0.0
 10
456.5528195312509
 20
-483.4341000000004
 30
0.0
 10
455.8184195312515
 20
-483.3774000000012
 30
0.0
 10
455.0801195312506
 20
-483.4556000000011
 30
0.0
 10
454.3409195312524
 20
-483.6713999999993
 30
0.0
 10
453.6006195312511
 20
-483.8876999999993
 30
0.0
 10
452.9375195312514
 20
-484.2451000000001
 30
0.0
 10
452.3526195312515
 20
-484.7456000000002
 30
0.0
 10
451.7666195312522
 20
-485.2471000000005
 30
0.0
 10
451.3116195312505
 20
-485.8456999999999
 30
0.0
 10
450.9825195312515
 20
-486.5439000000006
 30
0.0
 10
450.6563195312519
 20
-487.2417000000005
 30
0.0
 10
450.4551195312506
 20
-487.9647999999997
 30
0.0
 10
450.3809195312515
 20
-488.7138999999988
 30
0.0
 10
450.3067195312506
 20
-489.4634000000005
 30
0.0
 10
450.3750195312514
 20
-490.2085000000006
 30
0.0
 10
450.5928195312517
 20
-490.9472999999998
 30
0.0
 10
450.8086195312517
 20
-491.6885000000002
 30
0.0
 10
451.1661195312518
 20
-492.3505999999998
 30
0.0
 10
451.6661195312518
 20
-492.9350999999988
 30
0.0
 10
452.168019531251
 20
-493.5210000000006
 30
0.0
 10
452.7657195312513
 20
-493.9771000000001
 30
0.0
 10
453.4649195312522
 20
-494.3047000000006
 30
0.0
 10
454.1621195312509
 20
-494.6333000000013
 30
0.0
 10
454.883819531251
 20
-494.8335000000006
 30
0.0
 10
455.6348195312512
 20
-494.9071999999996
 30
0.0
 10
456.3829195312519
 20
-494.9818999999989
 30
0.0
 10
457.1211195312517
 20
-494.9193999999989
 30
0.0
 10
457.8428195312517
 20
-494.7183000000005
 30
0.0
 10
458.565519531252
 20
-494.5175999999992
 30
0.0
 10
459.2178195312517
 20
-494.1664999999994
 30
0.0
 10
459.8037195312518
 20
-493.6660000000011
 30
0.0
 10
460.3545195312508
 20
-493.1942999999992
 30
0.0
 10
460.8028195312509
 20
-492.6029999999992
 30
0.0
 10
461.1485195312507
 20
-491.8901000000005
 30
0.0
 10
461.492219531252
 20
-491.1782000000003
 30
0.0
 10
461.6954195312519
 20
-490.4380000000001
 30
0.0
 10
461.7559195312515
 20
-489.6719000000012
 30
0.0
 10
461.815519531252
 20
-488.9048000000003
 30
0.0
 10
461.7461195312517
 20
-488.1450000000004
 30
0.0
 10
461.5469195312508
 20
-487.3901000000005
 30
0.0
 10
461.3487195312518
 20
-486.6352999999999
 30
0.0
 10
460.9991195312505
 20
-485.9663
 30
0.0
 10
460.4981195312521
 20
-485.3798999999999
 30
0.0
  0
INSERT
  5
50
330
1F
100
AcDbEntity
  8
Layer 1
100
AcDbBlockReference
  2
block 2
 10
0.0
 20
0.0
 30
0.0
  0
SPLINE
  5
C8
330
1F
100
AcDbEntity
  8
Layer 1
370
     0
100
AcDbSpline
210
0.0
220
0.0
230
1.0
 70
    11
 71
     3
 72
    20
 73
    16
 74
     0
 42
0.0000000001
 43
0.0000000001
 12
1.0
 22
0.0
 32
0.0
 13
1.0
 23
0.0
 33
0.0
 40
0.0
 40
0.0
 40
0.0
 40
0.0
 40
1.0
 40
1.0
 40
1.0
 40
2.0
 40
2.0
 40
2.0
 40
3.0
 40
3.0
 40
3.0
 40
4.0
 40
4.0
 40
4.0
 40
5.0
 40
5.0
 40
5.0
 40
5.0
 10
336.6485195312507
 20
-539.5410000000011
 30
0.0
 10
332.7246195312509
 20
-536.5283
 30
0.0
 10
328.3145195312518
 20
-535.3257000000012
 30
0.0
 10
323.4200195312515
 20
-535.9341000000004
 30
0.0
 10
323.4200195312515
 20
-535.9341000000004
 30
0.0
 10
328.088919531252
 20
-571.4668000000001
 30
0.0
 10
328.088919531252
 20
-571.4668000000001
 30
0.0
 10
332.9756195312511
 20
-570.7900000000009
 30
0.0
 10
336.9239195312512
 20
-568.4897000000001
 30
0.0
 10
339.9375195312514
 20
-564.5649000000012
 30
0.0
 10
342.9541195312522
 20
-560.675299999999
 30
0.0
 10
344.1397195312511
 20
-556.2681000000011
 30
0.0
 10
343.492219531252
 20
-551.3428000000004
 30
0.0
 10
342.8487195312518
 20
-546.4521000000004
 30
0.0
 10
340.5674195312513
 20
-542.5181000000011
 30
0.0
 10
336.6485195312507
 20
-539.5410000000011
 30
0.0
  0
SPLINE
  5
C9
330
1F
100
AcDbEntity
  8
Layer 1
370
     0
100
AcDbSpline
210
0.0
220
0.0
230
1.0
 70
    11
 71
     3
 72
    29
 73
    25
 74
     0
 42
0.0000000001
 43
0.0000000001
 12
1.0
 22
0.0
 32
0.0
 13
1.0
 23
0.0
 33
0.0
 40
0.0
 40
0.0
 40
0.0
 40
0.0
 40
1.0
 40
1.0
 40
1.0
 40
2.0
 40
2.0
 40
2.0
 40
3.0
 40
3.0
 40
3.0
 40
4.0
 40
4.0
 40
4.0
 40
5.0
 40
5.0
 40
5.0
 40
6.0
 40
6.0
 40
6.0
 40
7.0
 40
7.0
 40
7.0
 40
8.0
 40
8.0
 40
8.0
 40
8.0
 10
203.6856195312521
 20
-522.2036000000007
 30
0.0
 10
200.0010195312516
 20
-520.6576999999997
 30
0.0
 10
196.3184195312515
 20
-520.7227000000003
 30
0.0
 10
192.6368195312516
 20
-522.3974999999991
 30
0.0
 10
188.9551195312506
 20
-524.0731999999989
 30
0.0
 10
186.3409195312524
 20
-526.7520000000004
 30
0.0
 10
184.7950195312515
 20
-530.4364999999998
 30
0.0
 10
183.2276195312515
 20
-534.1723999999995
 30
0.0
 10
183.1416195312522
 20
-537.9277000000002
 30
0.0
 10
184.5371195312509
 20
-541.7026000000005
 30
0.0
 10
185.9209195312505
 20
-545.5033999999996
 30
0.0
 10
188.4561195312508
 20
-548.1762999999992
 30
0.0
 10
192.1397195312511
 20
-549.7222000000002
 30
0.0
 10
195.797919531251
 20
-551.2573000000011
 30
0.0
 10
199.4688195312519
 20
-551.1875
 30
0.0
 10
203.1504195312518
 20
-549.5126999999993
 30
0.0
 10
206.8223195312512
 20
-547.8633000000009
 30
0.0
 10
209.4414195312511
 20
-545.170900000001
 30
0.0
 10
211.008819531251
 20
-541.4350999999988
 30
0.0
 10
212.554719531252
 20
-537.7505000000001
 30
0.0
 10
212.6348195312512
 20
-534.0083000000013
 30
0.0
 10
211.2510195312516
 20
-530.2075000000004
 30
0.0
 10
209.8662195312518
 20
-526.4071999999996
 30
0.0
 10
207.3448195312521
 20
-523.7387999999992
 30
0.0
 10
203.6856195312521
 20
-522.2036000000007
 30
0.0
  0
HATCH
  5
CA
330
1F
100
AcDbEntity
  8
Layer 1
 62
   242
420
 13968678
100
AcDbHatch
 10
0.0
 20
0.0
 30
0.0
210
0.0
220
0.0
230
1.0
  2
SOLID
 70
     1
 71
     0
 91
       27
 92
        1
 93
        1
 72
     4
 94
        3
 73
     0
 74
     1
 95
       32
 96
       28
 40
0.0
 40
0.0
 40
0.0
 40
0.0
 40
1.0
 40
1.0
 40
1.0
 40
2.0
 40
2.0
 40
2.0
 40
3.0
 40
3.0
 40
3.0
 40
4.0
 40
4.0
 40
4.0
 40
5.0
 40
5.0
 40
5.0
 40
6.0
 40
6.0
 40
6.0
 40
7.0
 40
7.0
 40
7.0
 40
8.0
 40
8.0
 40
8.0
 40
9.0
 40
9.0
 40
9.0
 40
9.0
 10
303.4004195312518
 20
-68.26559999999972
 10
302.6045195312508
 20
-68.60990000000038
 10
301.7735195312507
 20
-68.77490000000034
 10
300.9063195312519
 20
-68.76029999999992
 10
300.9063195312519
 20
-68.76029999999992
 10
301.1192195312506
 20
-55.67479999999978
 10
301.1192195312506
 20
-55.67479999999978
 10
301.9864195312512
 20
-55.6885000000002
 10
302.8116195312505
 20
-55.88090000000011
 10
303.5977195312516
 20
-56.2510000000002
 10
304.3809195312515
 20
-56.62060000000019
 10
305.0606195312521
 20
-57.10400000000027
 10
305.6407195312513
 20
-57.69970000000012
 10
306.2178195312517
 20
-58.29640000000018
 10
306.6787195312518
 20
-58.99219999999968
 10
307.0235195312507
 20
-59.78960000000006
 10
307.3653195312509
 20
-60.58590000000004
 10
307.5323195312521
 20
-61.41749999999956
 10
307.5166195312522
 20
-62.28420000000006
 10
307.503019531252
 20
-63.15279999999984
 10
307.3096195312519
 20
-63.97900000000027
 10
306.9424195312513
 20
-64.76370000000043
 10
306.5723195312512
 20
-65.54879999999957
 10
306.088919531252
 20
-66.24169999999958
 10
305.492219531252
 20
-66.84419999999955
 10
304.8926195312524
 20
-67.44819999999982
 10
304.1973195312512
 20
-67.92190000000028
 10
303.4004195312518
 20
-68.26559999999972
 97
        0
 97
        0
 92
        1
 93
        1
 72
     4
 94
        3
 73
     0
 74
     1
 95
       32
 96
       28
 40
0.0
 40
0.0
 40
0.0
 40
0.0
 40
1.0
 40
1.0
 40
1.0
 40
2.0
 40
2.0
 40
2.0
 40
3.0
 40
3.0
 40
3.0
 40
4.0
 40
4.0
 40
4.0
 40
5.0
 40
5.0
 40
5.0
 40
6.0
 40
6.0
 40
6.0
 40
7.0
 40
7.0
 40
7.0
 40
8.0
 40
8.0
 40
8.0
 40
9.0
 40
9.0
 40
9.0
 40
9.0
 10
305.8770195312518
 20
-41.09860000000026
 10
306.4737195312518
 20
-40.49560000000019
 10
306.957119531251
 20
-39.80180000000018
 10
307.3272195312511
 20
-39.01659999999993
 10
307.6944195312517
 20
-38.23139999999967
 10
307.8877195312507
 20
-37.40580000000045
 10
307.901419531252
 20
-36.53809999999976
 10
307.9170195312508
 20
-35.67140000000018
 10
307.7500195312514
 20
-34.83979999999974
 10
307.4082195312512
 20
-34.04200000000037
 10
307.0635195312516
 20
-33.2461000000003
 10
306.6026195312515
 20
-32.54929999999968
 10
306.0254195312518
 20
-31.95309999999972
 10
305.4483195312514
 20
-31.35739999999987
 10
304.7657195312513
 20
-30.8739999999998
 10
303.9825195312515
 20
-30.5033999999996
 10
303.196319531251
 20
-30.13479999999981
 10
302.3711195312517
 20
-29.9413999999997
 10
301.5039195312511
 20
-29.92770000000019
 10
301.5039195312511
 20
-29.92770000000019
 10
301.2911195312518
 20
-43.01370000000043
 10
301.2911195312518
 20
-43.01370000000043
 10
302.1582195312512
 20
-43.02779999999984
 10
302.9893195312507
 20
-42.86329999999998
 10
303.7852195312516
 20
-42.51860000000033
 10
304.582119531251
 20
-42.17529999999988
 10
305.2813195312519
 20
-41.70120000000043
 10
305.8770195312518
 20
-41.09860000000026
 97
        0
 97
        0
 92
        1
 93
        3
 72
     1
 10
402.4278195312509
 20
-57.48139999999967
 11
388.8731195312521
 21
-77.66700000000037
 72
     1
 10
388.8731195312521
 20
-77.66700000000037
 11
397.8731195312521
 21
-81.66700000000037
 72
     1
 10
397.8731195312521
 20
-81.66700000000037
 11
402.4278195312509
 21
-57.48139999999967
 97
        0
 92
        1
 93
        1
 72
     4
 94
        3
 73
     0
 74
     1
 95
       53
 96
       49
 40
0.0
 40
0.0
 40
0.0
 40
0.0
 40
1.0
 40
1.0
 40
1.0
 40
2.0
 40
2.0
 40
2.0
 40
3.0
 40
3.0
 40
3.0
 40
4.0
 40
4.0
 40
4.0
 40
5.0
 40
5.0
 40
5.0
 40
6.0
 40
6.0
 40
6.0
 40
7.0
 40
7.0
 40
7.0
 40
8.0
 40
8.0
 40
8.0
 40
9.0
 40
9.0
 40
9.0
 40
10.0
 40
10.0
 40
10.0
 40
11.0
 40
11.0
 40
11.0
 40
12.0
 40
12.0
 40
12.0
 40
13.0
 40
13.0
 40
13.0
 40
14.0
 40
14.0
 40
14.0
 40
15.0
 40
15.0
 40
15.0
 40
16.0
 40
16.0
 40
16.0
 40
16.0
 10
460.4981195312521
 20
-485.3798999999999
 10
459.9971195312519
 20
-484.7949000000008
 10
459.3985195312507
 20
-484.3394000000008
 10
458.7002195312507
 20
-484.0112000000008
 10
458.0039195312511
 20
-483.6836000000003
 10
457.2862195312518
 20
-483.4922000000006
 10
456.5528195312509
 20
-483.4341000000004
 10
455.8184195312515
 20
-483.3774000000012
 10
455.0801195312506
 20
-483.4556000000011
 10
454.3409195312524
 20
-483.6713999999993
 10
453.6006195312511
 20
-483.8876999999993
 10
452.9375195312514
 20
-484.2451000000001
 10
452.3526195312515
 20
-484.7456000000002
 10
451.7666195312522
 20
-485.2471000000005
 10
451.3116195312505
 20
-485.8456999999999
 10
450.9825195312515
 20
-486.5439000000006
 10
450.6563195312519
 20
-487.2417000000005
 10
450.4551195312506
 20
-487.9647999999997
 10
450.3809195312515
 20
-488.7138999999988
 10
450.3067195312506
 20
-489.4634000000005
 10
450.3750195312514
 20
-490.2085000000006
 10
450.5928195312517
 20
-490.9472999999998
 10
450.8086195312517
 20
-491.6885000000002
 10
451.1661195312518
 20
-492.3505999999998
 10
451.6661195312518
 20
-492.9350999999988
 10
452.168019531251
 20
-493.5210000000006
 10
452.7657195312513
 20
-493.9771000000001
 10
453.4649195312522
 20
-494.3047000000006
 10
454.1621195312509
 20
-494.6333000000013
 10
454.883819531251
 20
-494.8335000000006
 10
455.6348195312512
 20
-494.9071999999996
 10
456.3829195312519
 20
-494.9818999999989
 10
457.1211195312517
 20
-494.9193999999989
 10
457.8428195312517
 20
-494.7183000000005
 10
458.565519531252
 20
-494.5175999999992
 10
459.2178195312517
 20
-494.1664999999994
 10
459.8037195312518
 20
-493.6660000000011
 10
460.3545195312508
 20
-493.1942999999992
 10
460.8028195312509
 20
-492.6029999999992
 10
461.1485195312507
 20
-491.8901000000005
 10
461.492219531252
 20
-491.1782000000003
 10
461.6954195312519
 20
-490.4380000000001
 10
461.7559195312515
 20
-489.6719000000012
 10
461.815519531252
 20
-488.9048000000003
 10
461.7461195312517
 20
-488.1450000000004
 10
461.5469195312508
 20
-487.3901000000005
 10
461.3487195312518
 20
-486.6352999999999
 10
460.9991195312505
 20
-485.9663
 10
460.4981195312521
 20
-485.3798999999999
 97
        0
 97
        0
 92
        1
 93
        1
 72
     4
 94
        3
 73
     0
 74
     1
 95
       17
 96
       13
 40
0.0
 40
0.0
 40
0.0
 40
0.0
 40
1.0
 40
1.0
 40
1.0
 40
2.0
 40
2.0
 40
2.0
 40
3.0
 40
3.0
 40
3.0
 40
4.0
 40
4.0
 40
4.0
 40
4.0
 10
600.0000195312514
 20
-300.0
 10
600.0000195312514
 20
-465.6854999999996
 10
465.6856195312521
 20
-600.0
 10
300.0000195312514
 20
-600.0
 10
134.3145195312518
 20
-600.0
 10
0.0000195312513824
 20
-465.6854999999996
 10
0.0000195312513824
 20
-300.0
 10
0.0000195312513824
 20
-134.3145000000004
 10
134.3145195312518
 20
0.0
 10
300.0000195312514
 20
0.0
 10
465.6856195312521
 20
0.0
 10
600.0000195312514
 20
-134.3145000000004
 10
600.0000195312514
 20
-300.0
 97
        0
 97
        0
 92
        1
 93
        1
 72
     4
 94
        3
 73
     0
 74
     1
 95
       17
 96
       13
 40
0.0
 40
0.0
 40
0.0
 40
0.0
 40
1.0
 40
1.0
 40
1.0
 40
2.0
 40
2.0
 40
2.0
 40
3.0
 40
3.0
 40
3.0
 40
4.0
 40
4.0
 40
4.0
 40
4.0
 10
481.2500195312514
 20
-134.0
 10
481.2500195312514
 20
-139.6606000000002
 10
485.838919531252
 20
-144.25
 10
491.5000195312514
 20
-144.25
 10
497.1612195312518
 20
-144.25
 10
501.7500195312514
 20
-139.6606000000002
 10
501.7500195312514
 20
-134.0
 10
501.7500195312514
 20
-128.3393999999998
 10
497.1612195312518
 20
-123.75
 10
491.5000195312514
 20
-123.75
 10
485.838919531252
 20
-123.75
 10
481.2500195312514
 20
-128.3393999999998
 10
481.2500195312514
 20
-134.0
 97
        0
 97
        0
 92
        1
 93
        8
 72
     1
 10
431.332119531251
 20
-66.34519999999975
 11
439.6504195312518
 21
-71.67529999999988
 72
     1
 10
439.6504195312518
 20
-71.67529999999988
 11
414.0254195312518
 21
-111.6704
 72
     1
 10
414.0254195312518
 20
-111.6704
 11
427.3438195312519
 21
-120.2035999999998
 72
     1
 10
427.3438195312519
 20
-120.2035999999998
 11
452.9688195312519
 21
-80.20899999999983
 72
     1
 10
452.9688195312519
 20
-80.20899999999983
 11
461.3282195312513
 21
-85.56450000000041
 72
     1
 10
461.3282195312513
 20
-85.56450000000041
 11
469.8614195312512
 21
-72.2456000000002
 72
     1
 10
469.8614195312512
 20
-72.2456000000002
 11
439.8653195312509
 21
-53.02689999999984
 72
     1
 10
439.8653195312509
 20
-53.02689999999984
 11
431.332119531251
 21
-66.34519999999975
 97
        0
 92
        1
 93
        8
 72
     1
 10
401.1836195312517
 20
-35.58690000000024
 11
365.304719531252
 21
-89.27440000000024
 72
     1
 10
365.304719531252
 20
-89.27440000000024
 11
379.5401195312515
 21
-95.0
 72
     1
 10
379.5401195312515
 20
-95.0
 11
383.383819531251
 21
-88.0048999999999
 72
     1
 10
383.383819531251
 20
-88.0048999999999
 11
394.753019531252
 21
-92.66550000000007
 72
     1
 10
394.753019531252
 20
-92.66550000000007
 11
392.5401195312515
 21
-100.3334999999997
 72
     1
 10
392.5401195312515
 20
-100.3334999999997
 11
406.293019531251
 21
-106.2046
 72
     1
 10
406.293019531251
 20
-106.2046
 11
418.7618195312516
 21
-42.84810000000016
 72
     1
 10
418.7618195312516
 20
-42.84810000000016
 11
401.1836195312517
 21
-35.58690000000024
 97
        0
 92
        1
 93
       12
 72
     1
 10
328.9375195312514
 20
-82.20799999999963
 11
359.9844195312508
 21
-88.27689999999984
 72
     1
 10
359.9844195312508
 20
-88.27689999999984
 11
363.019619531251
 21
-72.7524000000003
 72
     1
 10
363.019619531251
 20
-72.7524000000003
 11
347.4961195312517
 21
-69.71830000000045
 72
     1
 10
347.4961195312517
 20
-69.71830000000045
 11
350.2061195312508
 21
-60.33349999999973
 72
     1
 10
350.2061195312508
 20
-60.33349999999973
 11
365.5401195312515
 21
-62.33349999999973
 72
     1
 10
365.5401195312515
 20
-62.33349999999973
 11
367.5762195312509
 21
-49.44380000000001
 72
     1
 10
367.5762195312509
 20
-49.44380000000001
 11
352.0508195312505
 21
-46.40920000000006
 72
     1
 10
352.0508195312505
 20
-46.40920000000006
 11
353.5743195312516
 21
-38.6244999999999
 72
     1
 10
353.5743195312516
 20
-38.6244999999999
 11
369.0977195312516
 21
-41.65869999999995
 72
     1
 10
369.0977195312516
 20
-41.65869999999995
 11
372.1329195312519
 21
-26.13479999999981
 72
     1
 10
372.1329195312519
 20
-26.13479999999981
 11
341.0840195312521
 21
-20.0658999999996
 72
     1
 10
341.0840195312521
 20
-20.0658999999996
 11
328.9375195312514
 21
-82.20799999999963
 97
        0
 92
        1
 93
        1
 72
     4
 94
        3
 73
     0
 74
     1
 95
       32
 96
       28
 40
0.0
 40
0.0
 40
0.0
 40
0.0
 40
1.0
 40
1.0
 40
1.0
 40
2.0
 40
2.0
 40
2.0
 40
3.0
 40
3.0
 40
3.0
 40
4.0
 40
4.0
 40
4.0
 40
5.0
 40
5.0
 40
5.0
 40
6.0
 40
6.0
 40
6.0
 40
7.0
 40
7.0
 40
7.0
 40
8.0
 40
8.0
 40
8.0
 40
9.0
 40
9.0
 40
9.0
 40
9.0
 10
286.1368195312516
 20
-80.74269999999979
 10
286.1368195312516
 20
-80.74269999999979
 10
301.9512195312509
 20
-80.9989999999998
 10
301.9512195312509
 20
-80.9989999999998
 10
306.8985195312507
 20
-81.07909999999993
 10
311.3750195312514
 20
-79.72950000000037
 10
315.3789195312511
 20
-76.94869999999992
 10
319.7286195312518
 20
-73.83399999999983
 10
321.9434195312515
 20
-69.84910000000036
 10
322.0215195312521
 20
-64.99409999999989
 10
322.144619531251
 20
-57.35739999999987
 10
318.6563195312519
 20
-52.18159999999989
 10
311.5567195312506
 20
-49.46879999999965
 10
317.6973195312512
 20
-46.50630000000001
 10
320.8243195312516
 20
-41.59280000000035
 10
320.9356195312521
 20
-34.72850000000017
 10
321.0118195312516
 20
-29.96730000000025
 10
319.2227195312516
 20
-25.90189999999984
 10
315.5645195312518
 20
-22.53269999999975
 10
312.0586195312517
 20
-19.38379999999961
 10
307.8633195312505
 20
-17.76860000000033
 10
302.9786195312518
 20
-17.68950000000041
 10
302.9786195312518
 20
-17.68950000000041
 10
287.1621195312509
 20
-17.43310000000019
 10
287.1621195312509
 20
-17.43310000000019
 10
287.1621195312509
 20
-17.43310000000019
 10
286.1368195312516
 20
-80.74269999999979
 10
286.1368195312516
 20
-80.74269999999979
 97
        0
 97
        0
 92
        1
 93
       12
 72
     1
 10
200.1758195312505
 20
-35.63870000000043
 11
219.3262195312509
 21
-95.99070000000029
 72
     1
 10
219.3262195312509
 20
-95.99070000000029
 11
249.480519531251
 21
-86.42289999999957
 72
     1
 10
249.480519531251
 20
-86.42289999999957
 11
244.6954195312519
 21
-71.34569999999985
 72
     1
 10
244.6954195312519
 20
-71.34569999999985
 11
229.6192195312506
 21
-76.1298999999999
 72
     1
 10
229.6192195312506
 20
-76.1298999999999
 11
226.8858195312514
 21
-66.66650000000027
 72
     1
 10
226.8858195312514
 20
-66.66650000000027
 11
240.8731195312521
 21
-62.33299999999963
 72
     1
 10
240.8731195312521
 20
-62.33299999999963
 11
238.2061195312508
 21
-50.33299999999963
 72
     1
 10
238.2061195312508
 20
-50.33299999999963
 11
223.1299195312513
 21
-55.11719999999968
 72
     1
 10
223.1299195312513
 20
-55.11719999999968
 11
220.0371195312509
 21
-45.93159999999989
 72
     1
 10
220.0371195312509
 20
-45.93159999999989
 11
235.1133195312505
 21
-41.14750000000004
 72
     1
 10
235.1133195312505
 20
-41.14750000000004
 11
230.3301195312506
 21
-26.07030000000032
 72
     1
 10
230.3301195312506
 20
-26.07030000000032
 11
200.1758195312505
 21
-35.63870000000043
 97
        0
 92
        1
 93
       13
 72
     1
 10
130.1387195312509
 20
-72.70650000000023
 11
172.7344195312508
 21
-121.0352000000003
 72
     1
 10
172.7344195312508
 20
-121.0352000000003
 11
182.5391195312513
 21
-115.25
 72
     1
 10
182.5391195312513
 20
-115.25
 11
175.5313195312519
 21
-91.72950000000037
 72
     1
 10
175.5313195312519
 20
-91.72950000000037
 11
192.7891195312513
 21
-109.5
 72
     1
 10
192.7891195312513
 20
-109.5
 11
202.668019531251
 21
-103.2129000000004
 72
     1
 10
202.668019531251
 20
-103.2129000000004
 11
180.4766195312513
 21
-42.73340000000007
 72
     1
 10
180.4766195312513
 20
-42.73340000000007
 11
169.8731195312521
 21
-49.0
 72
     1
 10
169.8731195312521
 20
-49.0
 11
180.3282195312513
 21
-84.28369999999995
 72
     1
 10
180.3282195312513
 20
-84.28369999999995
 11
163.5401195312515
 21
-64.66650000000027
 72
     1
 10
163.5401195312515
 20
-64.66650000000027
 11
158.2061195312508
 21
-68.66650000000027
 72
     1
 10
158.2061195312508
 20
-68.66650000000027
 11
166.7383195312505
 21
-92.3760000000002
 72
     1
 10
166.7383195312505
 20
-92.3760000000002
 11
141.5401195312515
 21
-66.0
 72
     1
 10
141.5401195312515
 20
-66.0
 11
130.1387195312509
 21
-72.70650000000023
 97
        0
 92
        1
 93
        1
 72
     4
 94
        3
 73
     0
 74
     1
 95
       17
 96
       13
 40
0.0
 40
0.0
 40
0.0
 40
0.0
 40
1.0
 40
1.0
 40
1.0
 40
2.0
 40
2.0
 40
2.0
 40
3.0
 40
3.0
 40
3.0
 40
4.0
 40
4.0
 40
4.0
 40
4.0
 10
98.25001953125138
 20
-134.0
 10
98.25001953125138
 20
-139.6606000000002
 10
102.838919531252
 20
-144.25
 10
108.5000195312514
 20
-144.25
 10
114.1612195312518
 20
-144.25
 10
118.7500195312514
 20
-139.6606000000002
 10
118.7500195312514
 20
-134.0
 10
118.7500195312514
 20
-128.3393999999998
 10
114.1612195312518
 20
-123.75
 10
108.5000195312514
 20
-123.75
 10
102.838919531252
 20
-123.75
 10
98.25001953125138
 20
-128.3393999999998
 10
98.25001953125138
 20
-134.0
 97
        0
 97
        0
 92
        1
 93
        1
 72
     4
 94
        3
 73
     0
 74
     1
 95
       53
 96
       49
 40
0.0
 40
0.0
 40
0.0
 40
0.0
 40
1.0
 40
1.0
 40
1.0
 40
2.0
 40
2.0
 40
2.0
 40
3.0
 40
3.0
 40
3.0
 40
4.0
 40
4.0
 40
4.0
 40
5.0
 40
5.0
 40
5.0
 40
6.0
 40
6.0
 40
6.0
 40
7.0
 40
7.0
 40
7.0
 40
8.0
 40
8.0
 40
8.0
 40
9.0
 40
9.0
 40
9.0
 40
10.0
 40
10.0
 40
10.0
 40
11.0
 40
11.0
 40
11.0
 40
12.0
 40
12.0
 40
12.0
 40
13.0
 40
13.0
 40
13.0
 40
14.0
 40
14.0
 40
14.0
 40
15.0
 40
15.0
 40
15.0
 40
16.0
 40
16.0
 40
16.0
 40
16.0
 10
87.35161953125134
 20
-389.3456999999999
 10
93.2657195312513
 20
-402.9696999999996
 10
107.1875195312514
 20
-411.4004000000004
 10
121.9971195312519
 20
-410.3231999999989
 10
124.7705195312519
 20
-410.1216000000004
 10
127.492219531252
 20
-409.5737000000008
 10
130.1348195312512
 20
-408.7236000000012
 10
132.8057195312522
 20
-412.8882000000012
 10
135.6436195312508
 20
-416.9341000000004
 10
138.6045195312508
 20
-420.8817999999992
 10
138.6045195312508
 20
-420.8817999999992
 10
420.8916195312522
 20
-138.5946999999996
 10
420.8916195312522
 20
-138.5946999999996
 10
387.2051195312506
 20
-113.3222999999998
 10
345.3526195312515
 20
-98.34379999999965
 10
300.0000195312514
 20
-98.34379999999965
 10
281.492219531252
 20
-98.34379999999965
 10
263.5723195312512
 20
-100.8505999999998
 10
246.547919531251
 20
-105.5195000000003
 10
241.0293195312515
 20
-102.7470999999996
 10
234.7598195312512
 20
-101.4141
 10
228.321319531251
 20
-101.8828000000003
 10
224.394619531251
 20
-102.1688999999997
 10
220.6065195312513
 20
-103.2191999999995
 10
216.9239195312512
 20
-104.6908999999996
 10
202.8116195312505
 20
-110.3320000000003
 10
197.7227195312516
 20
-125.5331999999999
 10
197.4707195312512
 20
-126.3339999999998
 10
166.9356195312521
 20
-144.3999000000003
 10
141.582119531251
 20
-170.2842000000001
 10
124.1592195312514
 20
-201.2362999999996
 10
115.3936195312508
 20
-204.0888999999997
 10
106.1084195312505
 20
-209.9594999999999
 10
102.4414195312511
 20
-226.1992
 10
100.235419531251
 20
-235.9701999999997
 10
101.4825195312515
 20
-244.6938
 10
104.4473195312512
 20
-250.6063999999997
 10
100.4668195312515
 20
-266.4135999999999
 10
98.34381953125194
 20
-282.9579999999996
 10
98.34381953125194
 20
-300.0
 10
98.34381953125194
 20
-315.2554
 10
100.047919531251
 20
-330.1108000000004
 10
103.2579195312519
 20
-344.3970000000008
 10
95.78711953125094
 20
-348.2861000000012
 10
90.02641953125203
 20
-354.6519000000008
 10
86.90341953125244
 20
-362.5630000000001
 10
83.46981953125214
 20
-371.2587999999996
 10
83.6309195312515
 20
-380.7700000000004
 10
87.35161953125134
 20
-389.3456999999999
 97
        0
 97
        0
 92
        1
 93
        1
 72
     4
 94
        3
 73
     0
 74
     1
 95
       17
 96
       13
 40
0.0
 40
0.0
 40
0.0
 40
0.0
 40
1.0
 40
1.0
 40
1.0
 40
2.0
 40
2.0
 40
2.0
 40
3.0
 40
3.0
 40
3.0
 40
4.0
 40
4.0
 40
4.0
 40
4.0
 10
105.8301195312506
 20
-456.7528999999995
 10
105.8301195312506
 20
-450.8833000000013
 10
101.0723195312512
 20
-446.1255000000001
 10
95.2032195312513
 20
-446.1255000000001
 10
89.33401953125212
 20
-446.1255000000001
 10
84.5762195312509
 20
-450.8833000000013
 10
84.5762195312509
 20
-456.7528999999995
 10
84.5762195312509
 20
-462.6225999999988
 10
89.33401953125212
 20
-467.3804
 10
95.2032195312513
 20
-467.3804
 10
101.0723195312512
 20
-467.3804
 10
105.8301195312506
 20
-462.6225999999988
 10
105.8301195312506
 20
-456.7528999999995
 97
        0
 97
        0
 92
        1
 93
        1
 72
     4
 94
        3
 73
     0
 74
     1
 95
       53
 96
       49
 40
0.0
 40
0.0
 40
0.0
 40
0.0
 40
1.0
 40
1.0
 40
1.0
 40
2.0
 40
2.0
 40
2.0
 40
3.0
 40
3.0
 40
3.0
 40
4.0
 40
4.0
 40
4.0
 40
5.0
 40
5.0
 40
5.0
 40
6.0
 40
6.0
 40
6.0
 40
7.0
 40
7.0
 40
7.0
 40
8.0
 40
8.0
 40
8.0
 40
9.0
 40
9.0
 40
9.0
 40
10.0
 40
10.0
 40
10.0
 40
11.0
 40
11.0
 40
11.0
 40
12.0
 40
12.0
 40
12.0
 40
13.0
 40
13.0
 40
13.0
 40
14.0
 40
14.0
 40
14.0
 40
15.0
 40
15.0
 40
15.0
 40
16.0
 40
16.0
 40
16.0
 40
16.0
 10
161.5489195312512
 20
-507.1347999999998
 10
161.5489195312512
 20
-507.1347999999998
 10
175.9746195312509
 20
-507.3104999999996
 10
175.9746195312509
 20
-507.3104999999996
 10
176.4727195312516
 20
-501.5097999999998
 10
175.0870195312509
 20
-495.8847999999998
 10
171.8184195312515
 20
-490.4375
 10
167.7471195312519
 20
-483.6566999999995
 10
161.8291195312522
 20
-479.3770000000004
 10
154.0625195312514
 20
-477.5990999999995
 10
146.3438195312519
 20
-475.7920000000013
 10
139.0704195312519
 20
-476.9380000000001
 10
132.242219531252
 20
-481.0370999999996
 10
125.3907195312513
 20
-485.1494000000002
 10
120.9473195312512
 20
-491.0365999999995
 10
118.9121195312509
 20
-498.6981999999989
 10
116.901419531252
 20
-506.3451999999997
 10
117.929719531252
 20
-513.5600999999988
 10
122.0000195312514
 20
-520.3394000000008
 10
125.2569195312517
 20
-525.7641999999996
 10
129.5303195312517
 20
-529.6225999999988
 10
134.8223195312512
 20
-531.9154999999992
 10
140.1133195312505
 20
-534.2079999999987
 10
145.8926195312524
 20
-534.670900000001
 10
152.1602195312516
 20
-533.3042000000005
 10
152.1602195312516
 20
-533.3042000000005
 10
151.0723195312512
 20
-518.9575000000004
 10
151.0723195312512
 20
-518.9575000000004
 10
147.8418195312515
 20
-520.1519000000008
 10
144.6485195312507
 20
-520.2236000000012
 10
141.4942195312506
 20
-519.1728999999996
 10
138.3243195312516
 20
-518.0977000000003
 10
135.8467195312514
 20
-516.0737000000008
 10
134.0616195312505
 20
-513.0995999999996
 10
131.9912195312518
 20
-509.6499000000003
 10
131.5215195312521
 20
-505.983400000001
 10
132.6543195312515
 20
-502.1010999999999
 10
133.7989195312512
 20
-498.2407000000003
 10
136.0977195312516
 20
-495.2763999999988
 10
139.5469195312508
 20
-493.2060999999994
 10
142.9727195312516
 20
-491.1489000000001
 10
146.6573195312521
 20
-490.5220000000008
 10
150.6036195312518
 20
-491.3257000000012
 10
154.5625195312514
 20
-492.1527999999998
 10
157.5772195312511
 20
-494.2920000000013
 10
159.6485195312507
 20
-497.7407000000003
 10
161.4336195312517
 20
-500.7147999999997
 10
162.0664195312511
 20
-503.8456999999999
 10
161.5489195312512
 20
-507.1347999999998
 97
        0
 97
        0
 92
        1
 93
        1
 72
     4
 94
        3
 73
     0
 74
     1
 95
       29
 96
       25
 40
0.0
 40
0.0
 40
0.0
 40
0.0
 40
1.0
 40
1.0
 40
1.0
 40
2.0
 40
2.0
 40
2.0
 40
3.0
 40
3.0
 40
3.0
 40
4.0
 40
4.0
 40
4.0
 40
5.0
 40
5.0
 40
5.0
 40
6.0
 40
6.0
 40
6.0
 40
7.0
 40
7.0
 40
7.0
 40
8.0
 40
8.0
 40
8.0
 40
8.0
 10
224.3819195312517
 20
-524.8388999999988
 10
221.5371195312509
 20
-517.4170000000013
 10
216.4698195312521
 20
-512.1762999999992
 10
209.1778195312509
 20
-509.1162000000004
 10
201.8848195312512
 20
-506.0571
 10
194.582119531251
 20
-506.1068999999989
 10
187.2686195312508
 20
-509.2671000000009
 10
179.9756195312511
 20
-512.3760000000002
 10
174.7891195312513
 20
-517.6021000000001
 10
171.7080195312519
 20
-524.9452999999994
 10
168.6162195312518
 20
-532.3140000000003
 10
168.5157195312513
 20
-539.6895000000004
 10
171.4063195312519
 20
-547.0712999999996
 10
174.3077195312508
 20
-554.4268000000011
 10
179.4053195312517
 20
-559.6347999999998
 10
186.696319531251
 20
-562.6942999999992
 10
193.9883195312505
 20
-565.7538999999997
 10
201.2627195312507
 20
-565.7367999999988
 10
208.519619531251
 20
-562.6425999999992
 10
215.8106195312521
 20
-559.5342
 10
221.0039195312511
 20
-554.2953999999991
 10
224.0967195312514
 20
-546.9262999999992
 10
227.1778195312509
 20
-539.5835000000006
 10
227.2715195312521
 20
-532.2206999999999
 10
224.3819195312517
 20
-524.8388999999988
 97
        0
 97
        0
 92
        1
 93
        7
 72
     1
 10
276.6143195312507
 20
-528.4418999999998
 11
264.9873195312521
 21
-526.7528999999995
 72
     1
 10
264.9873195312521
 20
-526.7528999999995
 11
250.043019531251
 21
-567.1587
 72
     1
 10
250.043019531251
 20
-567.1587
 11
249.4893195312507
 21
-523.9853999999996
 72
     1
 10
249.4893195312507
 20
-523.9853999999996
 11
237.3731195312521
 21
-521.8613000000005
 72
     1
 10
237.3731195312521
 20
-521.8613000000005
 11
239.1827195312508
 21
-579.7705000000005
 72
     1
 10
239.1827195312508
 20
-579.7705000000005
 11
256.0118195312516
 21
-582.5933000000005
 72
     1
 10
256.0118195312516
 20
-582.5933000000005
 11
276.6143195312507
 21
-528.4418999999998
 97
        0
 92
        1
 93
        4
 72
     1
 10
299.5791195312522
 20
-528.4395000000004
 11
287.3252195312507
 21
-528.2260999999999
 72
     1
 10
287.3252195312507
 20
-528.2260999999999
 11
286.128019531252
 21
-585.0254000000004
 72
     1
 10
286.128019531252
 20
-585.0254000000004
 11
298.3829195312519
 21
-585.2397000000001
 72
     1
 10
298.3829195312519
 20
-585.2397000000001
 11
299.5791195312522
 21
-528.4395000000004
 97
        0
 92
        1
 93
        1
 72
     4
 94
        3
 73
     0
 74
     1
 95
       26
 96
       22
 40
0.0
 40
0.0
 40
0.0
 40
0.0
 40
1.0
 40
1.0
 40
1.0
 40
2.0
 40
2.0
 40
2.0
 40
3.0
 40
3.0
 40
3.0
 40
4.0
 40
4.0
 40
4.0
 40
5.0
 40
5.0
 40
5.0
 40
6.0
 40
6.0
 40
6.0
 40
7.0
 40
7.0
 40
7.0
 40
7.0
 10
355.5469195312508
 20
-549.9595000000008
 10
354.5313195312519
 20
-542.2295000000013
 10
350.8965195312521
 20
-535.9766
 10
344.6436195312508
 20
-531.2011999999995
 10
338.4151195312515
 20
-526.3945000000003
 10
331.4209195312505
 20
-524.5005000000001
 10
323.6631195312511
 20
-525.5204999999987
 10
323.6631195312511
 20
-525.5204999999987
 10
309.5918195312515
 20
-527.3696
 10
309.5918195312515
 20
-527.3696
 10
309.5918195312515
 20
-527.3696
 10
316.9942195312506
 20
-583.6981999999989
 10
316.9942195312506
 20
-583.6981999999989
 10
316.9942195312506
 20
-583.6981999999989
 10
331.0664195312511
 20
-581.8486000000012
 10
331.0664195312511
 20
-581.8486000000012
 10
338.8243195312516
 20
-580.829099999999
 10
345.0928195312517
 20
-577.2075000000004
 10
349.8721195312519
 20
-570.9814000000006
 10
354.6748195312521
 20
-564.7245999999996
 10
356.5664195312511
 20
-557.7178000000004
 10
355.5469195312508
 20
-549.9595000000008
 97
        0
 97
        0
 92
        1
 93
        4
 72
     1
 10
401.4287195312518
 20
-542.2646000000004
 11
397.8457195312512
 21
-532.2295000000013
 72
     1
 10
397.8457195312512
 20
-532.2295000000013
 11
367.7432195312522
 21
-542.9771000000001
 72
     1
 10
367.7432195312522
 20
-542.9771000000001
 11
371.3252195312507
 21
-553.0116999999991
 72
     1
 10
371.3252195312507
 20
-553.0116999999991
 11
401.4287195312518
 21
-542.2646000000004
 97
        0
 92
        1
 93
       10
 72
     1
 10
455.0245195312509
 20
-539.483400000001
 11
447.8545195312508
 21
-527.2358000000004
 72
     1
 10
447.8545195312508
 20
-527.2358000000004
 11
441.0664195312511
 21
-531.0956999999999
 72
     1
 10
441.0664195312511
 20
-531.0956999999999
 11
419.5323195312521
 21
-494.3158999999996
 72
     1
 10
419.5323195312521
 20
-494.3158999999996
 11
402.2569195312517
 21
-504.4282000000003
 72
     1
 10
402.2569195312517
 20
-504.4282000000003
 11
409.4278195312509
 21
-516.6762999999992
 72
     1
 10
409.4278195312509
 20
-516.6762999999992
 11
414.4561195312508
 21
-513.7348999999995
 72
     1
 10
414.4561195312508
 20
-513.7348999999995
 11
428.8184195312515
 21
-538.266599999999
 72
     1
 10
428.8184195312515
 20
-538.266599999999
 11
421.838919531252
 21
-542.1807000000008
 72
     1
 10
421.838919531252
 20
-542.1807000000008
 11
429.0098195312512
 21
-554.4282000000003
 72
     1
 10
429.0098195312512
 20
-554.4282000000003
 11
455.0245195312509
 21
-539.483400000001
 97
        0
 92
        1
 93
        1
 72
     4
 94
        3
 73
     0
 74
     1
 95
       35
 96
       31
 40
0.0
 40
0.0
 40
0.0
 40
0.0
 40
1.0
 40
1.0
 40
1.0
 40
2.0
 40
2.0
 40
2.0
 40
3.0
 40
3.0
 40
3.0
 40
4.0
 40
4.0
 40
4.0
 40
5.0
 40
5.0
 40
5.0
 40
6.0
 40
6.0
 40
6.0
 40
7.0
 40
7.0
 40
7.0
 40
8.0
 40
8.0
 40
8.0
 40
9.0
 40
9.0
 40
9.0
 40
10.0
 40
10.0
 40
10.0
 40
10.0
 10
487.4756195312511
 20
-513.7353999999996
 10
487.4756195312511
 20
-513.7353999999996
 10
472.0928195312517
 20
-481.5414999999994
 10
472.0928195312517
 20
-481.5414999999994
 10
471.3633195312505
 20
-480.0488000000005
 10
470.429719531252
 20
-478.637200000001
 10
469.2940195312513
 20
-477.3096000000005
 10
466.1006195312511
 20
-473.5776000000005
 10
462.0323195312521
 20
-471.4897000000001
 10
457.0879195312518
 20
-471.0449000000008
 10
452.1426195312524
 20
-470.6016
 10
447.815519531252
 20
-471.9668000000001
 10
444.1045195312508
 20
-475.1411000000007
 10
440.3301195312506
 20
-478.3706000000002
 10
438.3096195312519
 20
-482.4736000000012
 10
438.0391195312513
 20
-487.4507000000012
 10
437.7159195312524
 20
-492.3652000000002
 10
439.1778195312509
 20
-496.7196999999996
 10
442.4239195312512
 20
-500.5151000000005
 10
445.526419531252
 20
-504.1421000000009
 10
449.3975195312523
 20
-506.2344000000012
 10
454.0391195312513
 20
-506.7920000000013
 10
458.6602195312516
 20
-507.3296000000009
 10
462.9219195312508
 20
-506.1854999999996
 10
466.8223195312512
 20
-503.3598999999995
 10
466.8223195312512
 20
-503.3598999999995
 10
476.3741195312505
 20
-523.2318999999989
 10
476.3741195312505
 20
-523.2318999999989
 10
476.3741195312505
 20
-523.2318999999989
 10
487.4756195312511
 20
-513.7353999999996
 10
487.4756195312511
 20
-513.7353999999996
 97
        0
 97
        0
 92
        1
 93
        1
 72
     4
 94
        3
 73
     0
 74
     1
 95
       17
 96
       13
 40
0.0
 40
0.0
 40
0.0
 40
0.0
 40
1.0
 40
1.0
 40
1.0
 40
2.0
 40
2.0
 40
2.0
 40
3.0
 40
3.0
 40
3.0
 40
4.0
 40
4.0
 40
4.0
 40
4.0
 10
515.4239195312512
 20
-456.7528999999995
 10
515.4239195312512
 20
-450.8833000000013
 10
510.6661195312518
 20
-446.1255000000001
 10
504.7969195312508
 20
-446.1255000000001
 10
498.9278195312509
 20
-446.1255000000001
 10
494.1700195312515
 20
-450.8833000000013
 10
494.1700195312515
 20
-456.7528999999995
 10
494.1700195312515
 20
-462.6225999999988
 10
498.9278195312509
 20
-467.3804
 10
504.7969195312508
 20
-467.3804
 10
510.6661195312518
 20
-467.3804
 10
515.4239195312512
 20
-462.6225999999988
 10
515.4239195312512
 20
-456.7528999999995
 97
        0
 97
        0
 92
        1
 93
        1
 72
     4
 94
        3
 73
     0
 74
     1
 95
       50
 96
       46
 40
0.0
 40
0.0
 40
0.0
 40
0.0
 40
1.0
 40
1.0
 40
1.0
 40
2.0
 40
2.0
 40
2.0
 40
3.0
 40
3.0
 40
3.0
 40
4.0
 40
4.0
 40
4.0
 40
5.0
 40
5.0
 40
5.0
 40
6.0
 40
6.0
 40
6.0
 40
7.0
 40
7.0
 40
7.0
 40
8.0
 40
8.0
 40
8.0
 40
9.0
 40
9.0
 40
9.0
 40
10.0
 40
10.0
 40
10.0
 40
11.0
 40
11.0
 40
11.0
 40
12.0
 40
12.0
 40
12.0
 40
13.0
 40
13.0
 40
13.0
 40
14.0
 40
14.0
 40
14.0
 40
15.0
 40
15.0
 40
15.0
 40
15.0
 10
518.1983195312514
 20
-384.6309000000001
 10
521.6319195312517
 20
-375.9346000000005
 10
521.4717195312514
 20
-366.4233000000004
 10
517.7491195312505
 20
-357.8467000000001
 10
514.0274195312522
 20
-349.2724999999991
 10
507.1895195312518
 20
-342.6602000000003
 10
498.492219531252
 20
-339.2279999999992
 10
498.2871195312509
 20
-339.1470000000008
 10
498.0791195312522
 20
-339.0800999999992
 10
497.8741195312505
 20
-339.0033999999996
 10
500.3477195312516
 20
-326.3827999999994
 10
501.6563195312519
 20
-313.3451999999997
 10
501.6563195312519
 20
-300.0
 10
501.6563195312519
 20
-273.1440000000002
 10
496.3926195312524
 20
-247.5200000000004
 10
486.8633195312505
 20
-224.0874000000003
 10
480.9473195312512
 20
-209.5415000000003
 10
473.3379195312518
 20
-195.7236000000003
 10
464.2120195312509
 20
-182.9434000000001
 10
464.2120195312509
 20
-182.9434000000001
 10
182.9541195312522
 20
-464.2026000000005
 10
182.9541195312522
 20
-464.2026000000005
 10
215.9590195312521
 20
-487.7710000000006
 10
256.3536195312518
 20
-501.6562999999987
 10
300.0000195312514
 20
-501.6562999999987
 10
318.082119531251
 20
-501.6562999999987
 10
335.6016195312513
 20
-499.2626999999993
 10
352.276419531252
 20
-494.7988000000005
 10
360.2002195312507
 20
-500.7407000000003
 10
371.1534195312524
 20
-504.1807000000008
 10
385.2832195312512
 20
-498.1548000000003
 10
401.117219531252
 20
-491.4022999999997
 10
407.0567195312506
 20
-480.4038
 10
408.6250195312514
 20
-469.9272000000001
 10
434.6612195312518
 20
-453.2494999999999
 10
456.6084195312505
 20
-430.7505000000001
 10
472.6377195312507
 20
-404.2685999999994
 10
472.690519531252
 20
-404.2904999999992
 10
472.7412195312518
 20
-404.3158999999996
 10
472.7950195312515
 20
-404.3369000000002
 10
477.7325195312515
 20
-406.2837
 10
482.9043195312515
 20
-407.0771000000004
 10
488.1670195312508
 20
-406.6952999999994
 10
501.5039195312511
 20
-405.7245999999996
 10
513.2920195312508
 20
-397.0630000000001
 10
518.1983195312514
 20
-384.6309000000001
 97
        0
 97
        0
 92
        1
 93
        1
 72
     4
 94
        3
 73
     0
 74
     1
 95
       20
 96
       16
 40
0.0
 40
0.0
 40
0.0
 40
0.0
 40
1.0
 40
1.0
 40
1.0
 40
2.0
 40
2.0
 40
2.0
 40
3.0
 40
3.0
 40
3.0
 40
4.0
 40
4.0
 40
4.0
 40
5.0
 40
5.0
 40
5.0
 40
5.0
 10
336.6485195312507
 20
-539.5410000000011
 10
332.7246195312509
 20
-536.5283
 10
328.3145195312518
 20
-535.3257000000012
 10
323.4200195312515
 20
-535.9341000000004
 10
323.4200195312515
 20
-535.9341000000004
 10
328.088919531252
 20
-571.4668000000001
 10
328.088919531252
 20
-571.4668000000001
 10
332.9756195312511
 20
-570.7900000000009
 10
336.9239195312512
 20
-568.4897000000001
 10
339.9375195312514
 20
-564.5649000000012
 10
342.9541195312522
 20
-560.675299999999
 10
344.1397195312511
 20
-556.2681000000011
 10
343.492219531252
 20
-551.3428000000004
 10
342.8487195312518
 20
-546.4521000000004
 10
340.5674195312513
 20
-542.5181000000011
 10
336.6485195312507
 20
-539.5410000000011
 97
        0
 97
        0
 92
        1
 93
        1
 72
     4
 94
        3
 73
     0
 74
     1
 95
       29
 96
       25
 40
0.0
 40
0.0
 40
0.0
 40
0.0
 40
1.0
 40
1.0
 40
1.0
 40
2.0
 40
2.0
 40
2.0
 40
3.0
 40
3.0
 40
3.0
 40
4.0
 40
4.0
 40
4.0
 40
5.0
 40
5.0
 40
5.0
 40
6.0
 40
6.0
 40
6.0
 40
7.0
 40
7.0
 40
7.0
 40
8.0
 40
8.0
 40
8.0
 40
8.0
 10
203.6856195312521
 20
-522.2036000000007
 10
200.0010195312516
 20
-520.6576999999997
 10
196.3184195312515
 20
-520.7227000000003
 10
192.6368195312516
 20
-522.3974999999991
 10
188.9551195312506
 20
-524.0731999999989
 10
186.3409195312524
 20
-526.7520000000004
 10
184.7950195312515
 20
-530.4364999999998
 10
183.2276195312515
 20
-534.1723999999995
 10
183.1416195312522
 20
-537.9277000000002
 10
184.5371195312509
 20
-541.7026000000005
 10
185.9209195312505
 20
-545.5033999999996
 10
188.4561195312508
 20
-548.1762999999992
 10
192.1397195312511
 20
-549.7222000000002
 10
195.797919531251
 20
-551.2573000000011
 10
199.4688195312519
 20
-551.1875
 10
203.1504195312518
 20
-549.5126999999993
 10
206.8223195312512
 20
-547.8633000000009
 10
209.4414195312511
 20
-545.170900000001
 10
211.008819531251
 20
-541.4350999999988
 10
212.554719531252
 20
-537.7505000000001
 10
212.6348195312512
 20
-534.0083000000013
 10
211.2510195312516
 20
-530.2075000000004
 10
209.8662195312518
 20
-526.4071999999996
 10
207.3448195312521
 20
-523.7387999999992
 10
203.6856195312521
 20
-522.2036000000007
 97
        0
 97
        0
 75
     2
 76
     1
 98
        0
  0
ENDSEC
  0
SECTION
  2
OBJECTS
  0
DICTIONARY
  5
C
330
0
100
AcDbDictionary
281
     1
  3
ACAD_GROUP
350
D
  3
ACAD_LAYOUT
350
1A
  3
ACAD_MATERIAL
350
3B
  3
ACAD_MLEADERSTYLE
350
CC
  3
ACAD_MLINESTYLE
350
17
  3
ACAD_PLOTSETTINGS
350
19
  3
ACAD_PLOTSTYLENAME
350
E
  3
ACAD_TABLESTYLE
350
CB
  3
ACAD_VISUALSTYLE
350
2A
  0
SUN
  5
3F
330
29
100
AcDbSun
 90
        1
290
     0
 63
     7
421
 16777215
 40
1.0
291
     1
 91
  2455826
 92
 54000000
292
     0
 70
     2
 71
   256
280
     1
  0
DICTIONARY
  5
D
102
{ACAD_REACTORS
330
C
102
}
330
C
100
AcDbDictionary
281
     1
  0
DICTIONARY
  5
1A
102
{ACAD_REACTORS
330
C
102
}
330
C
100
AcDbDictionary
281
     1
  3
Layout1
350
1E
  3
Layout2
350
26
  3
Model
350
22
  0
DICTIONARY
  5
3B
102
{ACAD_REACTORS
330
C
102
}
330
C
100
AcDbDictionary
281
     1
  3
ByBlock
350
3D
  3
ByLayer
350
3C
  3
Global
350
3E
  0
DICTIONARY
  5
CC
102
{ACAD_REACTORS
330
C
102
}
330
C
100
AcDbDictionary
281
     1
  0
DICTIONARY
  5
17
102
{ACAD_REACTORS
330
C
102
}
330
C
100
AcDbDictionary
281
     1
  3
Standard
350
18
  0
DICTIONARY
  5
19
102
{ACAD_REACTORS
330
C
102
}
330
C
100
AcDbDictionary
281
     1
  0
ACDBDICTIONARYWDFLT
  5
E
102
{ACAD_REACTORS
330
C
102
}
330
C
100
AcDbDictionary
281
     1
  3
Normal
350
F
100
AcDbDictionaryWithDefault
340
F
  0
DICTIONARY
  5
CB
102
{ACAD_REACTORS
330
C
102
}
330
C
100
AcDbDictionary
281
     1
  0
DICTIONARY
  5
2A
102
{ACAD_REACTORS
330
C
102
}
330
C
100
AcDbDictionary
281
     1
  3
2dWireframe
350
2F
  3
3D Hidden
350
31
  3
3dWireframe
350
30
  3
Basic
350
32
  3
Brighten
350
36
  3
ColorChange
350
3A
  3
Conceptual
350
34
  3
Dim
350
35
  3
Facepattern
350
39
  3
Flat
350
2B
  3
FlatWithEdges
350
2C
  3
Gouraud
350
2D
  3
GouraudWithEdges
350
2E
  3
Linepattern
350
38
  3
Realistic
350
33
  3
Thicken
350
37
  0
LAYOUT
  5
1E
102
{ACAD_REACTORS
330
1A
102
}
330
1A
100
AcDbPlotSettings
  1

  2
none_device
  4

  6

 40
0.0
 41
0.0
 42
0.0
 43
0.0
 44
0.0
 45
0.0
 46
0.0
 47
0.0
 48
0.0
 49
0.0
140
0.0
141
0.0
142
1.0
143
1.0
 70
   688
 72
     0
 73
     0
 74
     5
  7

 75
    16
 76
     0
 77
     2
 78
   300
147
1.0
148
0.0
149
0.0
100
AcDbLayout
  1
Layout1
 70
     1
 71
     1
 10
0.0
 20
0.0
 11
12.0
 21
9.0
 12
0.0
 22
0.0
 32
0.0
 14
1.000000000000000E+20
 24
1.000000000000000E+20
 34
1.000000000000000E+20
 15
-1.000000000000000E+20
 25
-1.000000000000000E+20
 35
-1.000000000000000E+20
146
0.0
 13
0.0
 23
0.0
 33
0.0
 16
1.0
 26
0.0
 36
0.0
 17
0.0
 27
1.0
 37
0.0
 76
     0
330
1B
  0
LAYOUT
  5
26
102
{ACAD_REACTORS
330
1A
102
}
330
1A
100
AcDbPlotSettings
  1

  2
none_device
  4

  6

 40
0.0
 41
0.0
 42
0.0
 43
0.0
 44
0.0
 45
0.0
 46
0.0
 47
0.0
 48
0.0
 49
0.0
140
0.0
141
0.0
142
1.0
143
1.0
 70
   688
 72
     0
 73
     0
 74
     5
  7

 75
    16
 76
     0
 77
     2
 78
   300
147
1.0
148
0.0
149
0.0
100
AcDbLayout
  1
Layout2
 70
     1
 71
     2
 10
0.0
 20
0.0
 11
0.0
 21
0.0
 12
0.0
 22
0.0
 32
0.0
 14
0.0
 24
0.0
 34
0.0
 15
0.0
 25
0.0
 35
0.0
146
0.0
 13
0.0
 23
0.0
 33
0.0
 16
1.0
 26
0.0
 36
0.0
 17
0.0
 27
1.0
 37
0.0
 76
     0
330
23
  0
LAYOUT
  5
22
102
{ACAD_REACTORS
330
1A
102
}
330
1A
100
AcDbPlotSettings
  1

  2
none_device
  4

  6

 40
0.0
 41
0.0
 42
0.0
 43
0.0
 44
0.0
 45
0.0
 46
0.0
 47
0.0
 48
0.0
 49
0.0
140
0.0
141
0.0
142
1.0
143
1.0
 70
  1712
 72
     0
 73
     0
 74
     0
  7

 75
     0
 76
     0
 77
     2
 78
   300
147
1.0
148
0.0
149
0.0
100
AcDbLayout
  1
Model
 70
     1
 71
     0
 10
0.0
 20
0.0
 11
12.0
 21
9.0
 12
0.0
 22
0.0
 32
0.0
 14
1.000000000000000E+20
 24
1.000000000000000E+20
 34
1.000000000000000E+20
 15
-1.000000000000000E+20
 25
-1.000000000000000E+20
 35
-1.000000000000000E+20
146
0.0
 13
0.0
 23
0.0
 33
0.0
 16
1.0
 26
0.0
 36
0.0
 17
0.0
 27
1.0
 37
0.0
 76
     0
330
1F
331
29
  0
MATERIAL
  5
3D
102
{ACAD_REACTORS
330
3B
102
}
330
3B
100
AcDbMaterial
  1
ByBlock
 72
     1
 94
      127
  0
MATERIAL
  5
3C
102
{ACAD_REACTORS
330
3B
102
}
330
3B
100
AcDbMaterial
  1
ByLayer
 72
     1
 94
      127
  0
MATERIAL
  5
3E
102
{ACAD_REACTORS
330
3B
102
}
330
3B
100
AcDbMaterial
  1
Global
 72
     1
 94
      127
  0
MLINESTYLE
  5
18
102
{ACAD_REACTORS
330
17
102
}
330
17
100
AcDbMlineStyle
  2
Standard
 70
     0
  3

 62
   256
 51
90.0
 52
90.0
 71
     2
 49
0.5
 62
   256
  6
BYLAYER
 49
-0.5
 62
   256
  6
BYLAYER
  0
ACDBPLACEHOLDER
  5
F
102
{ACAD_REACTORS
330
E
102
}
330
E
  0
VISUALSTYLE
  5
2F
102
{ACAD_REACTORS
330
2A
102
}
330
2A
100
AcDbVisualStyle
  2
2dWireframe
 70
     4
177
     2
291
     0
 71
     0
176
     1
 72
     2
176
     1
 73
     0
176
     1
 90
        0
176
     1
 40
-0.6
176
     1
 41
-30.0
176
     1
 62
     5
 63
     7
421
 16777215
176
     1
 74
     1
176
     1
 91
        4
176
     1
 64
     7
176
     1
 65
   257
176
     1
 75
     1
176
     1
175
     1
176
     1
 42
1.0
176
     1
 92
        0
176
     1
 66
   257
176
     1
 43
1.0
176
     1
 76
     1
176
     1
 77
     6
176
     1
 78
     2
176
     1
 67
     7
176
     1
 79
     5
176
     1
170
     0
176
     1
171
     0
176
     1
290
     0
176
     1
 93
        1
176
     1
 44
0.0
176
     1
173
     0
176
     1
  0
VISUALSTYLE
  5
31
102
{ACAD_REACTORS
330
2A
102
}
330
2A
100
AcDbVisualStyle
  2
3D Hidden
 70
     6
177
     2
291
     0
 71
     1
176
     1
 72
     2
176
     1
 73
     2
176
     1
 90
        0
176
     1
 40
-0.6
176
     1
 41
-30.0
176
     1
 62
     5
 63
     7
421
 16777215
176
     1
 74
     2
176
     1
 91
        2
176
     1
 64
     7
176
     1
 65
   257
176
     1
 75
     2
176
     1
175
     1
176
     1
 42
40.0
176
     1
 92
        0
176
     1
 66
   257
176
     1
 43
1.0
176
     1
 76
     1
176
     1
 77
     6
176
     1
 78
     2
176
     1
 67
     7
176
     1
 79
     3
176
     1
170
     0
176
     1
171
     0
176
     1
290
     0
176
     1
 93
        1
176
     1
 44
0.0
176
     1
173
     0
176
     1
  0
VISUALSTYLE
  5
30
102
{ACAD_REACTORS
330
2A
102
}
330
2A
100
AcDbVisualStyle
  2
3dWireframe
 70
     5
177
     2
291
     0
 71
     0
176
     1
 72
     2
176
     1
 73
     0
176
     1
 90
        0
176
     1
 40
-0.6
176
     1
 41
-30.0
176
     1
 62
     5
 63
     7
421
 16777215
176
     1
 74
     1
176
     1
 91
        4
176
     1
 64
     7
176
     1
 65
   257
176
     1
 75
     1
176
     1
175
     1
176
     1
 42
1.0
176
     1
 92
        0
176
     1
 66
   257
176
     1
 43
1.0
176
     1
 76
     1
176
     1
 77
     6
176
     1
 78
     2
176
     1
 67
     7
176
     1
 79
     5
176
     1
170
     0
176
     1
171
     0
176
     1
290
     0
176
     1
 93
        1
176
     1
 44
0.0
176
     1
173
     0
176
     1
  0
VISUALSTYLE
  5
32
102
{ACAD_REACTORS
330
2A
102
}
330
2A
100
AcDbVisualStyle
  2
Basic
 70
     7
177
     2
291
     1
 71
     1
176
     1
 72
     0
176
     1
 73
     1
176
     1
 90
        0
176
     1
 40
-0.6
176
     1
 41
-30.0
176
     1
 62
     5
 63
     7
421
 16777215
176
     1
 74
     0
176
     1
 91
        4
176
     1
 64
     7
176
     1
 65
   257
176
     1
 75
     1
176
     1
175
     1
176
     1
 42
1.0
176
     1
 92
        8
176
     1
 66
     7
176
     1
 43
1.0
176
     1
 76
     1
176
     1
 77
     6
176
     1
 78
     2
176
     1
 67
     7
176
     1
 79
     5
176
     1
170
     0
176
     1
171
     0
176
     1
290
     0
176
     1
 93
        1
176
     1
 44
0.0
176
     1
173
     0
176
     1
  0
VISUALSTYLE
  5
36
102
{ACAD_REACTORS
330
2A
102
}
330
2A
100
AcDbVisualStyle
  2
Brighten
 70
    12
177
     2
291
     1
 71
     2
176
     1
 72
     2
176
     1
 73
     0
176
     1
 90
        0
176
     1
 40
-0.6
176
     1
 41
-30.0
176
     1
 62
     5
 63
     7
421
 16777215
176
     1
 74
     1
176
     1
 91
        4
176
     1
 64
     7
176
     1
 65
   257
176
     1
 75
     1
176
     1
175
     1
176
     1
 42
1.0
176
     1
 92
        8
176
     1
 66
     7
176
     1
 43
1.0
176
     1
 76
     1
176
     1
 77
     6
176
     1
 78
     2
176
     1
 67
     7
176
     1
 79
     5
176
     1
170
     0
176
     1
171
     0
176
     1
290
     0
176
     1
 93
        1
176
     1
 44
50.0
176
     1
173
     0
176
     1
  0
VISUALSTYLE
  5
3A
102
{ACAD_REACTORS
330
2A
102
}
330
2A
100
AcDbVisualStyle
  2
ColorChange
 70
    16
177
     2
291
     1
 71
     2
176
     1
 72
     2
176
     1
 73
     3
176
     1
 90
        0
176
     1
 40
-0.6
176
     1
 41
-30.0
176
     1
 62
     5
 63
     8
421
  8421504
176
     1
 74
     1
176
     1
 91
        4
176
     1
 64
     7
176
     1
 65
   257
176
     1
 75
     1
176
     1
175
     1
176
     1
 42
1.0
176
     1
 92
        8
176
     1
 66
     8
424
  8421504
176
     1
 43
1.0
176
     1
 76
     1
176
     1
 77
     6
176
     1
 78
     2
176
     1
 67
     7
176
     1
 79
     5
176
     1
170
     0
176
     1
171
     0
176
     1
290
     0
176
     1
 93
        1
176
     1
 44
0.0
176
     1
173
     0
176
     1
  0
VISUALSTYLE
  5
34
102
{ACAD_REACTORS
330
2A
102
}
330
2A
100
AcDbVisualStyle
  2
Conceptual
 70
     9
177
     2
291
     0
 71
     3
176
     1
 72
     2
176
     1
 73
     0
176
     1
 90
        0
176
     1
 40
-0.6
176
     1
 41
-30.0
176
     1
 62
     5
 63
     7
421
 16777215
176
     1
 74
     2
176
     1
 91
        2
176
     1
 64
     7
176
     1
 65
   257
176
     1
 75
     1
176
     1
175
     1
176
     1
 42
40.0
176
     1
 92
        8
176
     1
 66
     7
176
     1
 43
1.0
176
     1
 76
     1
176
     1
 77
     6
176
     1
 78
     2
176
     1
 67
     7
176
     1
 79
     3
176
     1
170
     0
176
     1
171
     0
176
     1
290
     0
176
     1
 93
        1
176
     1
 44
0.0
176
     1
173
     0
176
     1
  0
VISUALSTYLE
  5
35
102
{ACAD_REACTORS
330
2A
102
}
330
2A
100
AcDbVisualStyle
  2
Dim
 70
    11
177
     2
291
     1
 71
     2
176
     1
 72
     2
176
     1
 73
     0
176
     1
 90
        0
176
     1
 40
-0.6
176
     1
 41
-30.0
176
     1
 62
     5
 63
     7
421
 16777215
176
     1
 74
     1
176
     1
 91
        4
176
     1
 64
     7
176
     1
 65
   257
176
     1
 75
     1
176
     1
175
     1
176
     1
 42
1.0
176
     1
 92
        8
176
     1
 66
     7
176
     1
 43
1.0
176
     1
 76
     1
176
     1
 77
     6
176
     1
 78
     2
176
     1
 67
     7
176
     1
 79
     5
176
     1
170
     0
176
     1
171
     0
176
     1
290
     0
176
     1
 93
        1
176
     1
 44
-50.0
176
     1
173
     0
176
     1
  0
VISUALSTYLE
  5
39
102
{ACAD_REACTORS
330
2A
102
}
330
2A
100
AcDbVisualStyle
  2
Facepattern
 70
    15
177
     2
291
     1
 71
     2
176
     1
 72
     2
176
     1
 73
     0
176
     1
 90
        0
176
     1
 40
-0.6
176
     1
 41
-30.0
176
     1
 62
     5
 63
     7
421
 16777215
176
     1
 74
     1
176
     1
 91
        4
176
     1
 64
     7
176
     1
 65
   257
176
     1
 75
     1
176
     1
175
     1
176
     1
 42
1.0
176
     1
 92
        8
176
     1
 66
     7
176
     1
 43
1.0
176
     1
 76
     1
176
     1
 77
     6
176
     1
 78
     2
176
     1
 67
     7
176
     1
 79
     5
176
     1
170
     0
176
     1
171
     0
176
     1
290
     0
176
     1
 93
        1
176
     1
 44
0.0
176
     1
173
     0
176
     1
  0
VISUALSTYLE
  5
2B
102
{ACAD_REACTORS
330
2A
102
}
330
2A
100
AcDbVisualStyle
  2
Flat
 70
     0
177
     2
291
     1
 71
     2
176
     1
 72
     1
176
     1
 73
     1
176
     1
 90
        2
176
     1
 40
-0.6
176
     1
 41
30.0
176
     1
 62
     5
 63
     7
421
 16777215
176
     1
 74
     0
176
     1
 91
        4
176
     1
 64
     7
176
     1
 65
   257
176
     1
 75
     1
176
     1
175
     1
176
     1
 42
1.0
176
     1
 92
        8
176
     1
 66
     7
176
     1
 43
1.0
176
     1
 76
     1
176
     1
 77
     6
176
     1
 78
     2
176
     1
 67
     7
176
     1
 79
     5
176
     1
170
     0
176
     1
171
     0
176
     1
290
     0
176
     1
 93
       13
176
     1
 44
0.0
176
     1
173
     0
176
     1
  0
VISUALSTYLE
  5
2C
102
{ACAD_REACTORS
330
2A
102
}
330
2A
100
AcDbVisualStyle
  2
FlatWithEdges
 70
     1
177
     2
291
     1
 71
     2
176
     1
 72
     1
176
     1
 73
     1
176
     1
 90
        2
176
     1
 40
-0.6
176
     1
 41
30.0
176
     1
 62
     5
 63
     7
421
 16777215
176
     1
 74
     1
176
     1
 91
        4
176
     1
 64
     7
176
     1
 65
   257
176
     1
 75
     1
176
     1
175
     1
176
     1
 42
1.0
176
     1
 92
        0
176
     1
 66
   257
176
     1
 43
1.0
176
     1
 76
     1
176
     1
 77
     6
176
     1
 78
     2
176
     1
 67
     7
176
     1
 79
     5
176
     1
170
     0
176
     1
171
     0
176
     1
290
     0
176
     1
 93
       13
176
     1
 44
0.0
176
     1
173
     0
176
     1
  0
VISUALSTYLE
  5
2D
102
{ACAD_REACTORS
330
2A
102
}
330
2A
100
AcDbVisualStyle
  2
Gouraud
 70
     2
177
     2
291
     1
 71
     2
176
     1
 72
     2
176
     1
 73
     1
176
     1
 90
        2
176
     1
 40
-0.6
176
     1
 41
30.0
176
     1
 62
     5
 63
     7
421
 16777215
176
     1
 74
     0
176
     1
 91
        4
176
     1
 64
     7
176
     1
 65
   257
176
     1
 75
     1
176
     1
175
     1
176
     1
 42
1.0
176
     1
 92
        0
176
     1
 66
     7
176
     1
 43
1.0
176
     1
 76
     1
176
     1
 77
     6
176
     1
 78
     2
176
     1
 67
     7
176
     1
 79
     5
176
     1
170
     0
176
     1
171
     0
176
     1
290
     0
176
     1
 93
       13
176
     1
 44
0.0
176
     1
173
     0
176
     1
  0
VISUALSTYLE
  5
2E
102
{ACAD_REACTORS
330
2A
102
}
330
2A
100
AcDbVisualStyle
  2
GouraudWithEdges
 70
     3
177
     2
291
     1
 71
     2
176
     1
 72
     2
176
     1
 73
     1
176
     1
 90
        2
176
     1
 40
-0.6
176
     1
 41
30.0
176
     1
 62
     5
 63
     7
421
 16777215
176
     1
 74
     1
176
     1
 91
        4
176
     1
 64
     7
176
     1
 65
   257
176
     1
 75
     1
176
     1
175
     1
176
     1
 42
1.0
176
     1
 92
        0
176
     1
 66
   257
176
     1
 43
1.0
176
     1
 76
     1
176
     1
 77
     6
176
     1
 78
     2
176
     1
 67
     7
176
     1
 79
     5
176
     1
170
     0
176
     1
171
     0
176
     1
290
     0
176
     1
 93
       13
176
     1
 44
0.0
176
     1
173
     0
176
     1
  0
VISUALSTYLE
  5
38
102
{ACAD_REACTORS
330
2A
102
}
330
2A
100
AcDbVisualStyle
  2
Linepattern
 70
    14
177
     2
291
     1
 71
     2
176
     1
 72
     2
176
     1
 73
     0
176
     1
 90
        0
176
     1
 40
-0.6
176
     1
 41
-30.0
176
     1
 62
     5
 63
     7
421
 16777215
176
     1
 74
     1
176
     1
 91
        4
176
     1
 64
     7
176
     1
 65
   257
176
     1
 75
     7
176
     1
175
     7
176
     1
 42
1.0
176
     1
 92
        8
176
     1
 66
     7
176
     1
 43
1.0
176
     1
 76
     1
176
     1
 77
     6
176
     1
 78
     2
176
     1
 67
     7
176
     1
 79
     5
176
     1
170
     0
176
     1
171
     0
176
     1
290
     0
176
     1
 93
        1
176
     1
 44
0.0
176
     1
173
     0
176
     1
  0
VISUALSTYLE
  5
33
102
{ACAD_REACTORS
330
2A
102
}
330
2A
100
AcDbVisualStyle
  2
Realistic
 70
     8
177
     2
291
     0
 71
     2
176
     1
 72
     2
176
     1
 73
     0
176
     1
 90
        0
176
     1
 40
-0.6
176
     1
 41
-30.0
176
     1
 62
     5
 63
     7
421
 16777215
176
     1
 74
     1
176
     1
 91
        0
176
     1
 64
     7
176
     1
 65
   257
176
     1
 75
     1
176
     1
175
     1
176
     1
 42
1.0
176
     1
 92
        8
176
     1
 66
     8
424
  7895160
176
     1
 43
1.0
176
     1
 76
     1
176
     1
 77
     6
176
     1
 78
     2
176
     1
 67
     7
176
     1
 79
     5
176
     1
170
     0
176
     1
171
     0
176
     1
290
     0
176
     1
 93
       13
176
     1
 44
0.0
176
     1
173
     0
176
     1
  0
VISUALSTYLE
  5
37
102
{ACAD_REACTORS
330
2A
102
}
330
2A
100
AcDbVisualStyle
  2
Thicken
 70
    13
177
     2
291
     1
 71
     2
176
     1
 72
     2
176
     1
 73
     0
176
     1
 90
        0
176
     1
 40
-0.6
176
     1
 41
-30.0
176
     1
 62
     5
 63
     7
421
 16777215
176
     1
 74
     1
176
     1
 91
        4
176
     1
 64
     7
176
     1
 65
   257
176
     1
 75
     1
176
     1
175
     1
176
     1
 42
1.0
176
     1
 92
       12
176
     1
 66
     7
176
     1
 43
1.0
176
     1
 76
     1
176
     1
 77
     6
176
     1
 78
     2
176
     1
 67
     7
176
     1
 79
     5
176
     1
170
     0
176
     1
171
     0
176
     1
290
     0
176
     1
 93
        1
176
     1
 44
0.0
176
     1
173
     0
176
     1
  0
ENDSEC
  0
EOF
