<?xml version="1.0" encoding="utf-8"?>
<!-- Generator: Adobe Illustrator 19.0.0, SVG Export Plug-In . SVG Version: 6.00 Build 0)  -->
<svg version="1.1" id="Layer_1" xmlns="http://www.w3.org/2000/svg" xmlns:xlink="http://www.w3.org/1999/xlink" x="0px" y="0px"
	 width="600px" height="600px" viewBox="0 0 600 600" enable-background="new 0 0 600 600" xml:space="preserve">
<path id="color_x5F_2_1_" fill="#61C4B1" d="M474.691,222.351c5.263,12.122-0.301,26.214-12.423,31.476
	c-8.889,3.858-18.828,1.89-25.58-4.206l-27.235,9.789l48.203-50.944C464.983,210.01,471.481,214.956,474.691,222.351z
	 M143.382,375.802l31.83-13.302l60.604-60.271c-2.563-1.955-4.222-5.031-4.222-8.502c0-5.91,4.79-10.702,10.7-10.702
	c3.493,0,6.585,1.681,8.538,4.269l20.531-20.419c-6.028-2.604-10.25-8.599-10.25-15.584c0-9.374,7.599-16.975,16.974-16.975
	c7.019,0,13.04,4.26,15.625,10.333l63.98-63.63l5.228-13.249c4.382-0.222,8.604-1.66,12.206-4.089l6.392-6.359
	c0.972-1.431,1.802-2.989,2.463-4.666c4.855-12.293-1.179-26.19-13.473-31.04c-12.291-4.853-26.19,1.181-31.039,13.473
	c-3.558,9.014-1.259,18.883,5.064,25.424l-15.983,40.501c-6.387-1.823-12.964-3.016-19.632-3.548l-0.417-21.173
	c5.478-3.46,9.068-9.62,8.934-16.574c-0.211-10.569-8.948-18.97-19.516-18.762c-10.57,0.208-18.97,8.943-18.763,19.515
	c0.137,6.954,3.967,12.967,9.58,16.209l0.418,21.169c-6.342,0.753-12.678,2.122-18.938,4.142l-21.617-49.145
	c6.102-6.748,8.065-16.691,4.207-25.579c-5.262-12.123-19.354-17.683-31.474-12.422c-12.123,5.262-17.685,19.354-12.424,31.476
	c3.856,8.887,12.462,14.242,21.559,14.396l21.618,49.144c-5.922,3.287-11.398,7.107-16.397,11.372l-15.259-14.67
	c1.427-6.324-0.391-13.218-5.404-18.037c-7.619-7.327-19.737-7.089-27.064,0.532c-7.328,7.621-7.089,19.738,0.531,27.065
	c5.014,4.82,11.976,6.365,18.237,4.69l15.261,14.675c-4.014,5.108-7.513,10.576-10.457,16.315l-47.838-18.962
	c-0.462-9.083-6.103-17.506-15.114-21.063c-12.291-4.851-26.191,1.182-31.041,13.474c-4.852,12.294,1.183,26.19,13.473,31.041
	c9.012,3.557,18.884,1.258,25.424-5.064l47.842,18.961c-1.822,6.386-3.015,12.963-3.549,19.634l-21.174,0.416
	c-3.457-5.481-9.619-9.072-16.572-8.935c-10.569,0.208-18.972,8.945-18.763,19.517c0.208,10.569,8.946,18.969,19.516,18.761
	c6.955-0.137,12.969-3.965,16.208-9.579l21.168-0.416c0.755,6.338-1.061,7.77,0.958,14.027l-66.562,34.053
	c-6.749-6.1-16.692-8.065-25.58-4.207c-12.122,5.262-17.685,19.353-12.423,31.477c5.261,12.121,19.354,17.683,31.477,12.421
	C137.873,393.502,143.226,384.896,143.382,375.802z M266.279,404.797l-49.839,48.847c0.757,8.759,6.324,16.772,15.057,20.217
	c12.292,4.85,26.19-1.182,31.042-13.474c3.556-9.013,1.256-18.884-5.066-25.423L266.279,404.797z M494.429,349.525
	c-9.012-3.556-18.884-1.257-25.426,5.065l-71.273-29.304c1.823-6.386,3.016-12.962,3.548-19.633l21.174-0.418
	c3.461,5.482,9.621,9.071,16.574,8.935c10.567-0.208,18.972-8.945,18.761-19.515c-0.208-10.57-8.944-18.97-19.516-18.763
	c-6.951,0.137-12.965,3.966-16.208,9.58l-21.169,0.415c-0.649-5.454-1.783-10.905-3.365-16.307l-50.804,51.638
	c5.101,3.278,8.468,9.008,8.413,15.519c-0.088,10.088-8.337,18.195-18.423,18.107c-6.29-0.054-11.81-3.283-15.053-8.152
	l-47.243,48.02c6.085,1.673,12.334,2.793,18.671,3.299l0.418,21.174c-5.482,3.458-9.072,9.619-8.934,16.574
	c0.209,10.568,8.944,18.969,19.516,18.76c10.569-0.206,18.97-8.945,18.761-19.513c-0.136-6.954-3.966-12.968-9.58-16.211
	l-0.416-21.168c6.341-0.755,12.676-2.122,18.935-4.142l23.767,55.522c-6.098,6.75-8.066,16.692-4.208,25.58
	c5.262,12.123,19.354,17.684,31.475,12.423c12.123-5.261,17.686-19.354,12.424-31.476c-3.858-8.888-12.464-14.243-21.558-14.396
	l-23.765-55.523c5.919-3.287,11.397-7.107,16.392-11.372l15.263,14.671c-1.429,6.323,0.389,13.216,5.402,18.037
	c7.619,7.326,19.738,7.089,27.066-0.532c7.326-7.622,7.088-19.739-0.534-27.066c-5.013-4.821-11.974-6.366-18.235-4.689
	l-15.262-14.675c4.017-5.108,7.514-10.576,10.457-16.316l71.274,29.303c0.462,9.086,6.102,17.506,15.113,21.063
	c12.293,4.852,26.19-1.181,31.041-13.473C512.755,368.274,506.724,354.376,494.429,349.525z"/>
<path id="color_x5F_1_1_" fill="#D62627" d="M303.4,68.266c-0.796,0.344-1.627,0.509-2.494,0.495l0.213-13.085
	c0.867,0.014,1.692,0.206,2.478,0.576c0.783,0.37,1.463,0.853,2.043,1.449c0.577,0.597,1.038,1.292,1.383,2.09
	c0.342,0.796,0.509,1.628,0.493,2.495c-0.014,0.869-0.207,1.695-0.574,2.48c-0.37,0.785-0.853,1.478-1.45,2.08
	C304.893,67.448,304.197,67.922,303.4,68.266z M305.877,41.099c0.597-0.603,1.08-1.297,1.45-2.082
	c0.367-0.785,0.561-1.611,0.574-2.479c0.016-0.867-0.151-1.698-0.493-2.496c-0.345-0.796-0.806-1.493-1.383-2.089
	c-0.577-0.596-1.26-1.079-2.043-1.45c-0.786-0.369-1.611-0.562-2.479-0.576l-0.213,13.086c0.867,0.014,1.698-0.15,2.494-0.495
	C304.582,42.175,305.281,41.701,305.877,41.099z M402.428,57.481l-13.555,20.186l9,4L402.428,57.481z M460.498,485.38
	c-0.501-0.585-1.1-1.041-1.798-1.369c-0.696-0.328-1.414-0.519-2.147-0.577c-0.734-0.057-1.473,0.021-2.212,0.237
	c-0.74,0.216-1.403,0.574-1.988,1.074c-0.586,0.501-1.041,1.1-1.37,1.798c-0.326,0.698-0.527,1.421-0.602,2.17
	c-0.074,0.75-0.006,1.495,0.212,2.233c0.216,0.741,0.573,1.403,1.073,1.988c0.502,0.586,1.1,1.042,1.799,1.37
	c0.697,0.329,1.419,0.529,2.17,0.603c0.748,0.075,1.486,0.012,2.208-0.189c0.723-0.201,1.375-0.552,1.961-1.052
	c0.551-0.472,0.999-1.063,1.345-1.776c0.344-0.712,0.547-1.452,0.607-2.218c0.06-0.767-0.01-1.527-0.209-2.282
	C461.349,486.635,460.999,485.966,460.498,485.38z M600,300c0,165.685-134.314,300-300,300S0,465.685,0,300S134.315,0,300,0
	S600,134.314,600,300z M481.25,134c0,5.661,4.589,10.25,10.25,10.25c5.661,0,10.25-4.589,10.25-10.25s-4.589-10.25-10.25-10.25
	C485.839,123.75,481.25,128.339,481.25,134z M431.332,66.345l8.318,5.33l-25.625,39.995l13.318,8.533l25.625-39.995l8.359,5.355
	l8.533-13.319l-29.996-19.219L431.332,66.345z M401.184,35.587l-35.879,53.688L379.54,95l3.844-6.995l11.369,4.661l-2.213,7.668
	l13.753,5.871l12.469-63.356L401.184,35.587z M328.938,82.208l31.047,6.069l3.035-15.524l-15.523-3.034l2.71-9.385l15.334,2
	l2.036-12.89l-15.525-3.035l1.523-7.785l15.523,3.034l3.035-15.524l-31.049-6.069L328.938,82.208z M286.137,80.743l15.814,0.256
	c4.947,0.08,9.424-1.27,13.428-4.05c4.35-3.115,6.565-7.1,6.643-11.955c0.123-7.637-3.365-12.813-10.465-15.525
	c6.141-2.962,9.268-7.876,9.379-14.74c0.076-4.761-1.713-8.827-5.371-12.196c-3.506-3.149-7.701-4.764-12.586-4.843l-15.816-0.256
	L286.137,80.743z M200.176,35.639l19.15,60.352l30.154-9.568l-4.785-15.077l-15.076,4.784l-2.733-9.463l13.987-4.333l-2.667-12
	l-15.076,4.784l-3.093-9.186l15.076-4.784L230.33,26.07L200.176,35.639z M130.139,72.706l42.596,48.329l9.805-5.785l-7.008-23.521
	l17.258,17.771l9.879-6.287l-22.191-60.479L169.873,49l10.455,35.284L163.54,64.666l-5.334,4l8.532,23.71L141.54,66L130.139,72.706z
	 M98.25,134c0,5.661,4.589,10.25,10.25,10.25c5.661,0,10.25-4.589,10.25-10.25s-4.589-10.25-10.25-10.25
	C102.839,123.75,98.25,128.339,98.25,134z M87.352,389.346c5.914,13.624,19.836,22.055,34.646,20.978
	c2.773-0.202,5.495-0.75,8.138-1.6c2.671,4.165,5.509,8.211,8.47,12.158l282.287-282.287C387.205,113.322,345.353,98.344,300,98.344
	c-18.508,0-36.428,2.507-53.452,7.176c-5.519-2.772-11.788-4.105-18.227-3.637c-3.927,0.286-7.715,1.336-11.397,2.808
	c-14.112,5.641-19.201,20.842-19.453,21.643c-30.535,18.066-55.889,43.95-73.312,74.902c-8.766,2.853-18.051,8.723-21.718,24.963
	c-2.206,9.771-0.959,18.495,2.006,24.407c-3.98,15.807-6.104,32.352-6.104,49.394c0,15.255,1.704,30.111,4.914,44.397
	c-7.471,3.889-13.231,10.255-16.354,18.166C83.47,371.259,83.631,380.77,87.352,389.346z M105.83,456.753
	c0-5.87-4.758-10.627-10.627-10.627c-5.869,0-10.627,4.758-10.627,10.627c0,5.87,4.758,10.628,10.627,10.628
	C101.072,467.38,105.83,462.623,105.83,456.753z M161.549,507.135l14.426,0.176c0.498-5.801-0.888-11.426-4.156-16.873
	c-4.071-6.781-9.989-11.06-17.756-12.838c-7.719-1.807-14.992-0.661-21.82,3.438c-6.852,4.112-11.295,9.999-13.33,17.661
	c-2.011,7.647-0.982,14.862,3.088,21.641c3.257,5.425,7.53,9.283,12.822,11.576c5.291,2.292,11.07,2.755,17.338,1.389l-1.088-14.347
	c-3.231,1.194-6.424,1.266-9.578,0.215c-3.17-1.075-5.647-3.099-7.433-6.073c-2.07-3.45-2.54-7.116-1.407-10.999
	c1.145-3.86,3.443-6.825,6.893-8.895c3.426-2.057,7.11-2.684,11.057-1.88c3.959,0.827,6.974,2.966,9.045,6.415
	C161.434,500.715,162.066,503.846,161.549,507.135z M224.382,524.839c-2.845-7.422-7.912-12.663-15.204-15.723
	c-7.293-3.059-14.596-3.009-21.909,0.151c-7.293,3.109-12.479,8.335-15.561,15.678c-3.092,7.369-3.192,14.744-0.302,22.126
	c2.901,7.356,7.999,12.564,15.29,15.623c7.292,3.06,14.566,3.043,21.823-0.052c7.291-3.108,12.484-8.347,15.577-15.716
	C227.178,539.583,227.272,532.221,224.382,524.839z M276.614,528.442l-11.627-1.689l-14.944,40.406l-0.554-43.173l-12.116-2.124
	l1.81,57.909l16.829,2.823L276.614,528.442z M299.579,528.44l-12.254-0.213l-1.197,56.799l12.255,0.214L299.579,528.44z
	 M355.547,549.959c-1.016-7.73-4.65-13.983-10.903-18.758c-6.228-4.807-13.223-6.701-20.98-5.681l-14.071,1.849l7.402,56.329
	l14.072-1.85c7.758-1.019,14.026-4.641,18.806-10.867C354.675,564.725,356.566,557.718,355.547,549.959z M401.429,542.265
	l-3.583-10.035l-30.103,10.748l3.582,10.035L401.429,542.265z M455.025,539.483l-7.17-12.248l-6.788,3.86l-21.534-36.78
	l-17.275,10.112l7.171,12.248l5.028-2.941l14.362,24.532l-6.979,3.914l7.171,12.247L455.025,539.483z M487.476,513.735
	l-15.383-32.194c-0.73-1.493-1.663-2.904-2.799-4.232c-3.193-3.732-7.262-5.82-12.206-6.265c-4.945-0.443-9.272,0.922-12.983,4.096
	c-3.774,3.229-5.795,7.332-6.065,12.31c-0.323,4.914,1.139,9.269,4.385,13.064c3.103,3.627,6.974,5.719,11.615,6.277
	c4.621,0.538,8.883-0.607,12.783-3.432l9.552,19.872L487.476,513.735z M515.424,456.753c0-5.87-4.758-10.627-10.627-10.627
	c-5.869,0-10.627,4.758-10.627,10.627c0,5.87,4.758,10.628,10.627,10.628C510.666,467.38,515.424,462.623,515.424,456.753z
	 M518.198,384.631c3.434-8.696,3.273-18.208-0.449-26.784c-3.722-8.574-10.56-15.187-19.257-18.619
	c-0.205-0.081-0.413-0.148-0.618-0.225c2.474-12.621,3.782-25.658,3.782-39.003c0-26.856-5.264-52.48-14.793-75.913
	c-5.916-14.546-13.525-28.364-22.651-41.144L182.954,464.203c33.005,23.568,73.399,37.454,117.046,37.454
	c18.082,0,35.602-2.394,52.276-6.858c7.924,5.942,18.877,9.382,33.007,3.356c15.834-6.752,21.773-17.751,23.342-28.228
	c26.036-16.678,47.983-39.177,64.013-65.659c0.053,0.022,0.103,0.047,0.157,0.068c4.938,1.947,10.109,2.74,15.372,2.358
	C501.504,405.725,513.292,397.063,518.198,384.631z M336.649,539.541c-3.924-3.013-8.334-4.215-13.229-3.607l4.669,35.533
	c4.887-0.677,8.835-2.977,11.849-6.902c3.017-3.89,4.202-8.297,3.555-13.222C342.849,546.452,340.567,542.518,336.649,539.541z
	 M203.686,522.204c-3.685-1.546-7.367-1.481-11.049,0.194c-3.682,1.676-6.296,4.354-7.842,8.039
	c-1.567,3.736-1.653,7.491-0.258,11.266c1.384,3.801,3.919,6.474,7.603,8.02c3.658,1.535,7.329,1.465,11.011-0.21
	c3.672-1.649,6.291-4.342,7.858-8.078c1.546-3.685,1.626-7.427,0.242-11.228C209.866,526.407,207.345,523.739,203.686,522.204z"/>
</svg>
